{
.appVersion = "1231";
classes = (
{
automatic = 1;
code = "A A.ss01 B C C.ss01 D E F G H I J K L M M.ss01 N O P P.ss01 Q Q.ss01 Q.ss02 Q.ss03 R S S.ss01 T U V V.ss01 V.ss02 W X Y Z a a_hook a_macr b b_e b_e_macr b_o b_s c c_hook c_macr c_a c_a_macr c_e c_e_macr c_i c_o c_o_macr c_r c_t c_u c_u_macr d d.ss01 d_strok d_e d_o e e_hook e_macr e_c e_t f f_e f_f f_i f_o f_r f_r_a f_u g g.ss01 g.ss02 g.ss03 g_hook g_macr g_ra g_l_strok h h_strok h_e h_e_macr h_o i idotless i.ss01 i.ss02 i_hook i_macr i_j i_j_dotless i_j_macr i_m i_n i_u i_u_macr j k l l_strok l_l m m_macr m_i n n_hook n_macr n_i o o_macr o_ra o_r o_r_ra p p.ss01 p_bardes p_flour p_macr p_urrot p_e p_e_macr p_o p_o_macr p_p p_p_macr p_p_flour p_p_flour_hook p_p_hook q q_macr q_ra q_ring q_urrot q_etfin q_etfin_ring q_r q_strok q_strok_ra r r.ss01 r_hook r_macr r_ra r_a r_a_macr r_u r_u_macr s longs longs_strok longs_b_strok longs_etfin longs_longs_etfin longs_i longs_i_m longs_longs longs_t longs_u longs_u_macr t t_acute t_hook t_e t_e_macr t_i t_i_macr t_o t_u t_u_macr u u_hook u_macr u_i u_i_macr v v_hook v_e v_e.ss01 v_o v_o.ss01 w x x_ra y z z.ss01 con rum us";
name = AllLetters;
}
);
copyright = "Copyright (c) 2019 ANRT. All rights reserved.";
customParameters = (
{
name = glyphOrder;
value = (
.notdef,
emspace,
enspace,
threeperemspace,
fourperemspace,
space,
thinspace,
hairspace,
A,
A.ss01,
B,
C,
C.ss01,
D,
E,
F,
G,
H,
I,
J,
K,
L,
M,
M.ss01,
N,
O,
P,
P.ss01,
Q,
Q.ss01,
Q.ss02,
Q.ss03,
Q.ss04,
R,
S,
S.ss01,
T,
U,
V,
V.ss01,
V.ss02,
W,
X,
Y,
Z,
a,
a_hook,
a_macr,
b,
b_e,
b_e_macr,
b_o,
b_s,
c,
c_hook,
c_macr,
c_a,
c_a_macr,
c_e,
c_e_macr,
c_i,
c_o,
c_o_macr,
c_r,
c_t,
c_u,
c_u_macr,
d,
d.ss01,
d_strok,
d_e,
d_o,
e,
e_hook,
e_macr,
e_c,
e_t,
f,
f_e,
f_f,
f_i,
f_o,
f_r,
f_r_a,
f_u,
g,
g.ss01,
g.ss02,
g.ss03,
g_hook,
g_macr,
g_ra,
g_l_strok,
h,
h_strok,
h_e,
h_e_macr,
h_o,
i,
idotless,
i.ss01,
i.ss02,
i_hook,
i_macr,
i_j,
i_j_dotless,
i_j_macr,
i_m,
i_n,
i_u,
i_u_macr,
j,
k,
l,
l_strok,
l_l,
m,
m_macr,

glyphs = (
{
color = 3;
glyphname = A;
layers = (
{
anchors = (
{
name = bottom;
position = "{328, 0}";
},
{
name = ogonek;
position = "{593, 10}";
},
{
name = top;
position = "{328, 700}";
}
);
layerId = "5FE47517-9953-4891-9518-AB2E2247E448";
paths = (
{
closed = 1;
nodes = (
"50 -40 LINE",
"79 45 OFFCURVE",
"121 150 OFFCURVE",
"153 225 CURVE",
"399 225 LINE",
"470 48 LINE SMOOTH",
"490 -2 OFFCURVE",
"532 -22 OFFCURVE",
"553 -22 CURVE SMOOTH",
"574 -22 OFFCURVE",
"612 27 OFFCURVE",
"655 81 CURVE",
"647 103 LINE",
"582 98 OFFCURVE",
"577 117 OFFCURVE",
"558 163 CURVE SMOOTH",
"343 699 LINE",
"344 700 LINE",
"295 700 LINE",
"-10 -32 LINE",
"-10 -40 LINE"
);
},
{
closed = 1;
nodes = (
"275 552 LINE",
"365 316 LINE",
"192 316 LINE"
);
}
);
userData = {
com.schriftgestaltung.Glyphs.lastChange = "2019-03-08 08:35:18 +0000";
};
width = 655;
}
);
unicode = 0041;
},
{
color = 3;
glyphname = A.ss01;
layers = (
{
anchors = (
{
name = bottom;
position = "{302, 0}";
},
{
name = ogonek;
position = "{543, 10}";
},
{
name = top;
position = "{302, 700}";
}
);
layerId = "5FE47517-9953-4891-9518-AB2E2247E448";
paths = (
{
closed = 1;
nodes = (
"382 243 LINE",
"358 182 OFFCURVE",
"257 108 OFFCURVE",
"200 108 CURVE SMOOTH",
"156 108 OFFCURVE",
"140 127 OFFCURVE",
"140 165 CURVE SMOOTH",
"140 247 OFFCURVE",
"267 331 OFFCURVE",
"399 465 CURVE",
"390 506 LINE",
"127 270 LINE SMOOTH",
"76 225 OFFCURVE",
"43 164 OFFCURVE",
"43 98 CURVE SMOOTH",
"43 29 OFFCURVE",
"72 -20 OFFCURVE",
"146 -20 CURVE SMOOTH",
"214 -20 OFFCURVE",
"318 89 OFFCURVE",
"400 208 CURVE"
);
},
{
closed = 1;
nodes = (
"365 119 OFFCURVE",
"411 35 OFFCURVE",
"450 -20 CURVE",
"467 -20 OFFCURVE",
"529 33 OFFCURVE",
"553 64 CURVE",
"553 86 LINE",
"521 95 OFFCURVE",
"494 116 OFFCURVE",
"494 183 CURVE SMOOTH",
"496 578 LINE SMOOTH",
"496 651 OFFCURVE",
"410 717 OFFCURVE",
"337 717 CURVE SMOOTH",
"280 717 OFFCURVE",
"222 680 OFFCURVE",
"75 579 CURVE",
"95 552 LINE",
"166 599 OFFCURVE",
"209 634 OFFCURVE",
"264 634 CURVE SMOOTH",
"320 634 OFFCURVE",
"380 601 OFFCURVE",
"380 530 CURVE SMOOTH",
"380 471 OFFCURVE",
"376 205 OFFCURVE",
"369 187 CURVE"
);
}
);
userData = {
com.schriftgestaltung.Glyphs.lastChange = "2019-04-13 09:59:42 +0000";
};
width = 603;
}
);
},
{
color = 3;
glyphname = B;
layers = (
{
anchors = (
{
name = bottom;
position = "{361, 0}";
},
{
name = top;
position = "{361, 700}";
}
);
layerId = "5FE47517-9953-4891-9518-AB2E2247E448";
paths = (
{
closed = 1;
nodes = (
"451 4 OFFCURVE",
"640 104 OFFCURVE",
"676 158 CURVE",
"742 378 OFFCURVE",
"578 495 OFFCURVE",
"350 423 CURVE",
"387 418 LINE",
"405 467 OFFCURVE",
"442 478 OFFCURVE",
"442 545 CURVE SMOOTH",
"442 620 OFFCURVE",
"367 689 OFFCURVE",
"311 720 CURVE",
"289 720 OFFCURVE",
"136 620 OFFCURVE",
"43 568 CURVE",
"52 543 LINE",
"79 549 OFFCURVE",
"99 553 OFFCURVE",
"98 489 CURVE SMOOTH",
"95 166 LINE SMOOTH",
"95 122 OFFCURVE",
"92 93 OFFCURVE",
"50 0 CURVE",
"69 -18 LINE",
"95 0 OFFCURVE",
"140 11 OFFCURVE",
"188 11 CURVE SMOOTH",
"240 11 OFFCURVE",
"327 -9 OFFCURVE",
"393 -21 CURVE"
);
},
{
closed = 1;
nodes = (
"380 82 OFFCURVE",
"279 124 OFFCURVE",
"197 104 CURVE",
"197 162 OFFCURVE",
"200 231 OFFCURVE",
"209 256 CURVE",
"240 306 OFFCURVE",
"313 362 OFFCURVE",
"394 362 CURVE SMOOTH",
"523 362 OFFCURVE",
"626 272 OFFCURVE",
"588 147 CURVE",
"552 110 OFFCURVE",
"499 82 OFFCURVE",
"437 82 CURVE SMOOTH"
);
},
{
closed = 1;
nodes = (
"209 458 LINE SMOOTH",
"208 502 OFFCURVE",
"201 602 OFFCURVE",
"246 632 CURVE",
"275 608 OFFCURVE",
"338 565 OFFCURVE",
"335 486 CURVE SMOOTH",
"333 434 OFFCURVE",
"272 356 OFFCURVE",
"211 321 CURVE"
);
}
);
userData = {
com.schriftgestaltung.Glyphs.lastChange = "2019-04-13 11:07:24 +0000";
};
width = 722;
}
);
unicode = 0042;
},
{
color = 3;
glyphname = C;
layers = (
{
anchors = (
{
name = bottom;
position = "{339, 0}";
},
{
name = top;
position = "{339, 700}";
}
);
layerId = "5FE47517-9953-4891-9518-AB2E2247E448";
paths = (
{
closed = 1;
nodes = (
"424 14 OFFCURVE",
"527 64 OFFCURVE",
"628 116 CURVE",
"612 147 LINE",
"536 111 OFFCURVE",
"452 89 OFFCURVE",
"412 89 CURVE SMOOTH",
"224 89 OFFCURVE",
"162 227 OFFCURVE",
"162 374 CURVE SMOOTH",
"162 516 OFFCURVE",
"224 572 OFFCURVE",
"297 614 CURVE",
"313 614 OFFCURVE",
"374 579 OFFCURVE",
"411 566 CURVE",
"448 595 OFFCURVE",
"511 633 OFFCURVE",
"616 687 CURVE",
"601 711 LINE",
"559 697 OFFCURVE",
"499 678 OFFCURVE",
"479 678 CURVE SMOOTH",
"448 678 OFFCURVE",
"425 707 OFFCURVE",
"384 721 CURVE",
"342 701 OFFCURVE",
"221 624 OFFCURVE",
"108 541 CURVE",
"67 490 OFFCURVE",
"30 411 OFFCURVE",
"30 307 CURVE SMOOTH",
"30 122 OFFCURVE",
"169 -19 OFFCURVE",
"337 -19 CURVE"
);
}
);
userData = {
com.schriftgestaltung.Glyphs.lastChange = "2019-04-13 10:00:00 +0000";
};
width = 648;
}
);
leftMetricsKey = O;
unicode = 0043;
},
{
color = 3;
glyphname = C.ss01;
layers = (
{
anchors = (
{
name = bottom;
position = "{345, 0}";
},
{
name = "new anchor";
position = "{-94, -60}";
},
{
name = top;
position = "{345, 700}";
}
);
layerId = "5FE47517-9953-4891-9518-AB2E2247E448";
paths = (
{
closed = 1;
nodes = (
"469 0 OFFCURVE",
"553 46 OFFCURVE",
"659 105 CURVE",
"645 135 LINE",
"572 103 OFFCURVE",
"524 79 OFFCURVE",
"436 79 CURVE SMOOTH",
"288 79 OFFCURVE",
"158 191 OFFCURVE",
"158 377 CURVE SMOOTH",
"158 496 OFFCURVE",
"196 593 OFFCURVE",
"330 650 CURVE",
"489 635 OFFCURVE",
"537 610 OFFCURVE",
"570 543 CURVE",
"586 539 LINE",
"657 602 LINE",
"658 671 OFFCURVE",
"601 706 OFFCURVE",
"553 720 CURVE",
"250 720 OFFCURVE",
"25 580 OFFCURVE",
"25 315 CURVE SMOOTH",
"25 125 OFFCURVE",
"180 -20 OFFCURVE",
"388 -20 CURVE"
);
}
);
userData = {
com.schriftgestaltung.Glyphs.lastChange = "2019-04-13 10:01:45 +0000";
};
width = 689;
}
);
},
{
color = 3;
glyphname = D;
layers = (
{
anchors = (
{
name = bottom;
position = "{283, 0}";
},
{
name = center;
position = "{283, 350}";
},
{
name = top;
position = "{283, 700}";
}
);
layerId = "5FE47517-9953-4891-9518-AB2E2247E448";
paths = (
{
closed = 1;
nodes = (
"52 7 OFFCURVE",
"104 20 OFFCURVE",
"163 20 CURVE SMOOTH",
"249 20 OFFCURVE",
"309 0 OFFCURVE",
"383 -20 CURVE",
"432 30 OFFCURVE",
"565 149 OFFCURVE",
"565 195 CURVE SMOOTH",
"565 270 OFFCURVE",
"509 350 OFFCURVE",
"457 445 CURVE SMOOTH",
"404 542 OFFCURVE",
"361 617 OFFCURVE",
"341 654 CURVE SMOOTH",
"330 675 OFFCURVE",
"331 686 OFFCURVE",
"347 700 CURVE",
"329 721 LINE",
"37 520 LINE",
"52 496 LINE",
"72 514 OFFCURVE",
"104 524 OFFCURVE",
"106 486 CURVE SMOOTH",
"109 437 OFFCURVE",
"118 256 OFFCURVE",
"94 184 CURVE SMOOTH",
"76 130 OFFCURVE",
"47 59 OFFCURVE",
"5 -7 CURVE",
"26 -22 LINE"
);
},
{
closed = 1;
nodes = (
"194 205 OFFCURVE",
"233 246 OFFCURVE",
"233 313 CURVE SMOOTH",
"233 377 OFFCURVE",
"212 459 OFFCURVE",
"212 509 CURVE SMOOTH",
"212 550 OFFCURVE",
"219 574 OFFCURVE",
"238 599 CURVE",
"262 566 OFFCURVE",
"309 489 OFFCURVE",
"365 383 CURVE SMOOTH",
"406 305 OFFCURVE",
"464 227 OFFCURVE",
"464 159 CURVE SMOOTH",
"464 114 OFFCURVE",
"444 85 OFFCURVE",
"416 85 CURVE SMOOTH",
"380 85 OFFCURVE",
"314 132 OFFCURVE",
"275 132 CURVE SMOOTH",
"230 132 OFFCURVE",
"162 123 OFFCURVE",
"96 91 CURVE",
"89 44 LINE"
);
}
);
userData = {
com.schriftgestaltung.Glyphs.lastChange = "2019-04-13 10:04:08 +0000";
};
width = 605;
}
);
unicode = 0044;
},
{
color = 3;
glyphname = E;
layers = (
{
anchors = (
{
name = bottom;
position = "{340, 0}";
},
{
name = ogonek;
position = "{611, 10}";
},
{
name = top;
position = "{340, 700}";
},
{
name = topleft;
position = "{20, 700}";
}
);
layerId = "5FE47517-9953-4891-9518-AB2E2247E448";
paths = (
{
closed = 1;
nodes = (
"352 -20 OFFCURVE",
"527 44 OFFCURVE",
"638 90 CURVE",
"623 121 LINE",
"571 100 OFFCURVE",
"506 72 OFFCURVE",
"450 72 CURVE SMOOTH",
"332 72 OFFCURVE",
"171 152 OFFCURVE",
"171 350 CURVE SMOOTH",
"171 490 OFFCURVE",
"264 597 OFFCURVE",
"297 617 CURVE",
"314 617 OFFCURVE",
"389 577 OFFCURVE",
"418 557 CURVE",
"471 577 OFFCURVE",
"553 629 OFFCURVE",
"659 694 CURVE",
"639 722 LINE",
"587 687 OFFCURVE",
"537 663 OFFCURVE",
"510 663 CURVE SMOOTH",
"460 663 OFFCURVE",
"439 694 OFFCURVE",
"413 720 CURVE",
"401 720 OFFCURVE",
"296 668 OFFCURVE",
"195 594 CURVE SMOOTH",
"94 520 OFFCURVE",
"37 420 OFFCURVE",
"37 288 CURVE SMOOTH",
"37 107 OFFCURVE",
"198 0 OFFCURVE",
"320 -20 CURVE"
);
},
{
closed = 1;
nodes = (
"225 270 OFFCURVE",
"252 273 OFFCURVE",
"290 273 CURVE SMOOTH",
"347 273 OFFCURVE",
"415 252 OFFCURVE",
"455 244 CURVE",
"506 270 OFFCURVE",
"559 303 OFFCURVE",
"642 350 CURVE",
"628 372 LINE",
"599 359 OFFCURVE",
"579 349 OFFCURVE",
"546 349 CURVE SMOOTH",
"440 349 OFFCURVE",
"382 372 OFFCURVE",
"341 377 CURVE",
"315 362 OFFCURVE",
"254 317 OFFCURVE",
"169 257 CURVE",
"182 219 LINE"
);
}
);
userData = {
com.schriftgestaltung.Glyphs.lastChange = "2019-04-13 10:04:38 +0000";
};
width = 679;
}
);
unicode = 0045;
},
{
color = 3;
glyphname = F;
layers = (
{
anchors = (
{
name = bottom;
position = "{250, 0}";
},
{
name = top;
position = "{250, 700}";
}
);
layerId = "5FE47517-9953-4891-9518-AB2E2247E448";
paths = (
{
closed = 1;
nodes = (
"115 -208 OFFCURVE",
"172 -142 OFFCURVE",
"210 -93 CURVE",
"204 100 OFFCURVE",
"202 337 OFFCURVE",
"209 530 CURVE SMOOTH",
"210 557 OFFCURVE",
"213 585 OFFCURVE",
"238 607 CURVE",
"252 586 OFFCURVE",
"258 563 OFFCURVE",
"258 526 CURVE SMOOTH",
"258 303 OFFCURVE",
"251 91 OFFCURVE",
"250 -132 CURVE",
"258 -135 LINE",
"293 -45 LINE",
"293 281 LINE",
"428 281 LINE",
"436 378 LINE",
"295 378 LINE",
"293 591 LINE",
"322 608 OFFCURVE",
"365 624 OFFCURVE",
"393 624 CURVE SMOOTH",
"406 624 OFFCURVE",
"447 601 OFFCURVE",
"447 550 CURVE SMOOTH",
"447 531 OFFCURVE",
"442 518 OFFCURVE",
"423 507 CURVE",
"426 492 LINE",
"476 513 OFFCURVE",
"499 576 OFFCURVE",
"499 649 CURVE SMOOTH",
"499 692 OFFCURVE",
"487 723 OFFCURVE",
"476 723 CURVE SMOOTH",
"462 723 OFFCURVE",
"351 688 OFFCURVE",
"251 651 CURVE SMOOTH",
"171 622 OFFCURVE",
"97 596 OFFCURVE",
"29 560 CURVE",
"29 555 LINE",
"83 512 OFFCURVE",
"97 473 OFFCURVE",
"106 408 CURVE",
"25 390 LINE",
"25 385 LINE",
"77 351 OFFCURVE",
"104 316 OFFCURVE",
"114 239 CURVE",
"37 209 LINE",
"37 204 LINE",
"51 199 OFFCURVE",
"76 180 OFFCURVE",
"87 133 CURVE SMOOTH",
"100 80 OFFCURVE",
"105 16 OFFCURVE",
"103 -58 CURVE SMOOTH",
"102 -105 OFFCURVE",
"94 -181 OFFCURVE",
"37 -226 CURVE",
"63 -241 LINE"
);
}
);
userData = {
com.schriftgestaltung.Glyphs.lastChange = "2019-04-13 10:05:23 +0000";
};
width = 499;
}
);
unicode = 0046;
},
{
color = 3;
glyphname = G;
layers = (
{
anchors = (
{
name = bottom;
position = "{432, 0}";
},
{
name = top;
position = "{432, 700}";
}
);
layerId = "5FE47517-9953-4891-9518-AB2E2247E448";
paths = (
{
closed = 1;
nodes = (
"336 354 LINE",
"388 415 OFFCURVE",
"444 460 OFFCURVE",
"524 460 CURVE SMOOTH",
"636 460 OFFCURVE",
"710 392 OFFCURVE",
"710 282 CURVE SMOOTH",
"710 170 OFFCURVE",
"625 111 OFFCURVE",
"542 76 CURVE",
"495 76 OFFCURVE",
"402 146 OFFCURVE",
"276 135 CURVE",
"265 193 OFFCURVE",
"267 379 OFFCURVE",
"267 585 CURVE SMOOTH",
"267 604 OFFCURVE",
"268 628 OFFCURVE",
"273 643 CURVE",
"311 618 LINE",
"312 452 OFFCURVE",
"310 286 OFFCURVE",
"307 120 CURVE",
"339 120 LINE",
"344 641 LINE",
"375 643 OFFCURVE",
"414 599 OFFCURVE",
"455 589 CURVE",
"495 621 OFFCURVE",
"550 666 OFFCURVE",
"595 697 CURVE",
"577 711 LINE",
"564 706 OFFCURVE",
"544 698 OFFCURVE",
"535 698 CURVE SMOOTH",
"514 698 OFFCURVE",
"487 720 OFFCURVE",
"432 720 CURVE SMOOTH",
"357 720 OFFCURVE",
"235 668 OFFCURVE",
"67 607 CURVE",
"67 603 LINE",
"107 565 OFFCURVE",
"127 531 OFFCURVE",
"138 470 CURVE",
"58 450 LINE",
"58 445 LINE",
"117 409 OFFCURVE",
"131 349 OFFCURVE",
"137 283 CURVE",
"67 253 LINE",
"67 249 LINE",
"98 221 OFFCURVE",
"124 193 OFFCURVE",
"126 162 CURVE SMOOTH",
"127 143 OFFCURVE",
"123 116 OFFCURVE",
"118 85 CURVE SMOOTH",
"115 68 OFFCURVE",
"57 26 OFFCURVE",
"30 1 CURVE",
"48 -23 LINE",
"108 15 OFFCURVE",
"153 40 OFFCURVE",
"194 40 CURVE SMOOTH",
"284 40 OFFCURVE",
"372 -10 OFFCURVE",
"395 -19 CURVE",
"415 -16 OFFCURVE",
"558 32 OFFCURVE",
"658 69 CURVE",
"763 128 OFFCURVE",
"825 198 OFFCURVE",
"828 314 CURVE SMOOTH",
"831 476 OFFCURVE",
"694 591 OFFCURVE",
"506 558 CURVE",
"461 532 OFFCURVE",
"384 470 OFFCURVE",
"337 403 CURVE"
);
}
);
userData = {
com.schriftgestaltung.Glyphs.lastChange = "2019-04-13 12:36:56 +0000";
};
width = 863;
}
);
leftMetricsKey = H;
rightMetricsKey = H;
unicode = 0047;
},
{
color = 3;
glyphname = H;
layers = (
{
anchors = (
{
name = bottom;
position = "{418, 0}";
},
{
name = center;
position = "{418, 350}";
},
{
name = top;
position = "{418, 700}";
},
{
name = topleft;
position = "{25, 700}";
}
);
layerId = "5FE47517-9953-4891-9518-AB2E2247E448";
paths = (
{
closed = 1;
nodes = (
"671 60 OFFCURVE",
"790 184 OFFCURVE",
"790 320 CURVE SMOOTH",
"790 459 OFFCURVE",
"693 570 OFFCURVE",
"549 570 CURVE SMOOTH",
"416 570 OFFCURVE",
"302 441 OFFCURVE",
"249 348 CURVE",
"246 292 LINE",
"312 390 OFFCURVE",
"393 448 OFFCURVE",
"500 448 CURVE SMOOTH",
"628 448 OFFCURVE",
"699 366 OFFCURVE",
"699 257 CURVE SMOOTH",
"699 168 OFFCURVE",
"647 115 OFFCURVE",
"610 87 CURVE",
"590 75 OFFCURVE",
"561 114 OFFCURVE",
"553 146 CURVE",
"543 147 LINE",
"523 126 OFFCURVE",
"477 88 OFFCURVE",
"464 71 CURVE",
"464 37 OFFCURVE",
"490 -1 OFFCURVE",
"534 -11 CURVE"
);
},
{
closed = 1;
nodes = (
"233 -21 OFFCURVE",
"354 73 OFFCURVE",
"426 125 CURVE",
"412 146 LINE",
"351 113 OFFCURVE",
"324 98 OFFCURVE",
"302 98 CURVE SMOOTH",
"276 98 OFFCURVE",
"217 109 OFFCURVE",
"207 115 CURVE",
"205 706 LINE",
"201 709 LINE",
"30 664 LINE",
"30 659 LINE",
"81 604 OFFCURVE",
"110 526 OFFCURVE",
"110 480 CURVE",
"33 430 LINE",
"33 427 LINE",
"75 386 OFFCURVE",
"93 352 OFFCURVE",
"95 311 CURVE",
"33 273 LINE",
"33 269 LINE",
"84 225 OFFCURVE",
"106 171 OFFCURVE",
"93 127 CURVE SMOOTH",
"87 106 OFFCURVE",
"71 64 OFFCURVE",
"62 41 CURVE",
"62 41 OFFCURVE",
"197 -2 OFFCURVE",
"220 -21 CURVE"
);
},
{
closed = 1;
nodes = (
"268 62 LINE",
"278 704 LINE",
"247 705 LINE",
"241 704 LINE",
"243 44 LINE"
);
}
);
userData = {
com.schriftgestaltung.Glyphs.lastChange = "2019-04-13 10:14:48 +0000";
};
width = 825;
}
);
unicode = 0048;
},
{
color = 6;
glyphname = I;
layers = (
{
anchors = (
{
name = bottom;
position = "{224, 0}";
},
{
name = ogonek;
position = "{423, 10}";
},
{
name = top;
position = "{224, 700}";
},
{
name = topleft;
position = "{-5, 700}";
}
);
layerId = "5FE47517-9953-4891-9518-AB2E2247E448";
paths = (
{
closed = 1;
nodes = (
"57 -10 OFFCURVE",
"85 0 OFFCURVE",
"101 0 CURVE SMOOTH",
"129 0 OFFCURVE",
"161 -1 OFFCURVE",
"209 -9 CURVE",
"294 60 OFFCURVE",
"383 144 OFFCURVE",
"383 201 CURVE SMOOTH",
"383 263 OFFCURVE",
"372 658 OFFCURVE",
"395 708 CURVE",
"380 721 LINE",
"322 716 OFFCURVE",
"182 716 OFFCURVE",
"124 720 CURVE",
"27 567 LINE",
"48 551 LINE",
"85 587 OFFCURVE",
"126 618 OFFCURVE",
"179 616 CURVE SMOOTH",
"275 613 LINE",
"270 576 OFFCURVE",
"266 501 OFFCURVE",
"264 445 CURVE",
"187 399 LINE",
"192 391 LINE",
"257 360 OFFCURVE",
"260 310 OFFCURVE",
"260 256 CURVE SMOOTH",
"260 223 OFFCURVE",
"268 148 OFFCURVE",
"245 92 CURVE",
"205 97 OFFCURVE",
"143 105 OFFCURVE",
"109 105 CURVE",
"10 -10 LINE",
"31 -31 LINE"
);
}
);
userData = {
com.schriftgestaltung.Glyphs.lastChange = "2019-04-24 15:12:59 +0000";
};
width = 445;
}
);
unicode = 0049;
},
{
color = 3;
glyphname = J;
layers = (
{
layerId = "5FE47517-9953-4891-9518-AB2E2247E448";
paths = (
{
closed = 1;
nodes = (
"369 -178 OFFCURVE",
"461 -123 OFFCURVE",
"461 -54 CURVE SMOOTH",
"461 11 OFFCURVE",
"447 652 OFFCURVE",
"473 708 CURVE",
"458 725 LINE",
"400 710 OFFCURVE",
"190 720 OFFCURVE",
"132 720 CURVE",
"5 547 LINE",
"34 531 LINE",
"71 567 OFFCURVE",
"104 608 OFFCURVE",
"157 606 CURVE SMOOTH",
"353 600 LINE",
"335 475 OFFCURVE",
"336 145 OFFCURVE",
"338 59 CURVE SMOOTH",
"342 -96 OFFCURVE",
"322 -147 OFFCURVE",
"276 -221 CURVE",
"250 -326 OFFCURVE",
"327 63 OFFCURVE",
"298 -240 LINE"
);
}
);
userData = {
com.schriftgestaltung.Glyphs.lastChange = "2019-01-30 09:36:07 +0000";
};
width = 523;
}
);
unicode = 004A;
},
{
color = 3;
glyphname = K;
layers = (
{
layerId = "5FE47517-9953-4891-9518-AB2E2247E448";
paths = (
{
closed = 1;
nodes = (
"392 99 LINE",
"372 119 LINE",
"356 107 OFFCURVE",
"343 92 OFFCURVE",
"319 92 CURVE SMOOTH",
"299 92 OFFCURVE",
"284 104 OFFCURVE",
"256 129 CURVE",
"255 577 LINE",
"255 605 OFFCURVE",
"270 630 OFFCURVE",
"281 652 CURVE",
"193 723 LINE",
"85 642 LINE",
"98 619 LINE",
"131 630 OFFCURVE",
"149 607 OFFCURVE",
"149 580 CURVE SMOOTH",
"149 543 OFFCURVE",
"150 498 OFFCURVE",
"148 467 CURVE",
"78 427 LINE",
"78 421 LINE",
"121 373 OFFCURVE",
"144 334 OFFCURVE",
"142 290 CURVE",
"77 250 LINE",
"77 246 LINE",
"142 216 OFFCURVE",
"144 176 OFFCURVE",
"144 126 CURVE SMOOTH",
"144 96 OFFCURVE",
"140 79 OFFCURVE",
"123 48 CURVE",
"260 -22 LINE"
);
},
{
closed = 1;
nodes = (
"630 81 LINE",
"630 95 LINE",
"607 109 OFFCURVE",
"580 151 OFFCURVE",
"570 202 CURVE SMOOTH",
"552 293 OFFCURVE",
"530 371 OFFCURVE",
"437 437 CURVE",
"330 373 LINE",
"514 302 OFFCURVE",
"406 93 OFFCURVE",
"519 -18 CURVE"
);
},
{
closed = 1;
nodes = (
"358 363 LINE",
"397 408 LINE",
"485 457 OFFCURVE",
"550 503 OFFCURVE",
"550 552 CURVE SMOOTH",
"550 603 OFFCURVE",
"483 665 OFFCURVE",
"421 685 CURVE",
"379 665 OFFCURVE",
"292 607 OFFCURVE",
"223 574 CURVE",
"227 530 LINE",
"264 566 OFFCURVE",
"300 588 OFFCURVE",
"337 590 CURVE SMOOTH",
"367 592 OFFCURVE",
"416 558 OFFCURVE",
"416 503 CURVE SMOOTH",
"416 438 OFFCURVE",
"277 360 OFFCURVE",
"212 307 CURVE",
"220 281 LINE"
);
}
);
userData = {
com.schriftgestaltung.Glyphs.lastChange = "2019-04-13 11:06:35 +0000";
};
width = 600;
}
);
unicode = 004B;
},
{
color = 3;
glyphname = L;
layers = (
{
anchors = (
{
name = bottom;
position = "{274, 0}";
},
{
name = center;
position = "{274, 350}";
},
{
name = top;
position = "{274, 700}";
},
{
name = topright;
position = "{528, 700}";
}
);
layerId = "5FE47517-9953-4891-9518-AB2E2247E448";
paths = (
{
closed = 1;
nodes = (
"90 7 OFFCURVE",
"140 30 OFFCURVE",
"191 30 CURVE SMOOTH",
"280 30 OFFCURVE",
"335 -1 OFFCURVE",
"376 -19 CURVE",
"421 -19 OFFCURVE",
"484 44 OFFCURVE",
"538 90 CURVE",
"525 109 LINE",
"504 101 OFFCURVE",
"477 77 OFFCURVE",
"445 77 CURVE SMOOTH",
"402 77 OFFCURVE",
"332 130 OFFCURVE",
"282 130 CURVE SMOOTH",
"251 130 OFFCURVE",
"183 99 OFFCURVE",
"105 68 CURVE",
"126 65 LINE",
"170 111 OFFCURVE",
"200 146 OFFCURVE",
"252 228 CURVE SMOOTH",
"312 322 OFFCURVE",
"358 440 OFFCURVE",
"358 564 CURVE SMOOTH",
"358 627 OFFCURVE",
"351 668 OFFCURVE",
"332 700 CURVE",
"271 700 LINE",
"271 694 LINE",
"311 669 OFFCURVE",
"321 610 OFFCURVE",
"321 554 CURVE SMOOTH",
"321 486 OFFCURVE",
"306 419 OFFCURVE",
"277 358 CURVE",
"275 358 LINE",
"285 402 OFFCURVE",
"291 431 OFFCURVE",
"291 492 CURVE SMOOTH",
"291 606 OFFCURVE",
"242 697 OFFCURVE",
"162 712 CURVE",
"144 712 OFFCURVE",
"53 700 OFFCURVE",
"37 694 CURVE",
"37 682 LINE",
"154 635 OFFCURVE",
"200 520 OFFCURVE",
"193 410 CURVE",
"169 435 OFFCURVE",
"122 475 OFFCURVE",
"66 481 CURVE",
"63 478 LINE",
"148 407 OFFCURVE",
"168 323 OFFCURVE",
"168 312 CURVE SMOOTH",
"168 296 OFFCURVE",
"149 262 OFFCURVE",
"143 255 CURVE",
"126 276 OFFCURVE",
"101 298 OFFCURVE",
"38 298 CURVE",
"37 293 LINE",
"62 275 OFFCURVE",
"108 236 OFFCURVE",
"117 201 CURVE",
"96 104 OFFCURVE",
"75 48 OFFCURVE",
"32 -9 CURVE",
"44 -23 LINE"
);
}
);
userData = {
com.schriftgestaltung.Glyphs.lastChange = "2019-04-23 08:06:16 +0000";
};
width = 548;
}
);
unicode = 004C;
},
{
color = 3;
glyphname = M;
layers = (
{
anchors = (
{
name = bottom;
position = "{455, 0}";
},
{
name = top;
position = "{455, 700}";
}
);
layerId = "5FE47517-9953-4891-9518-AB2E2247E448";
paths = (
{
closed = 1;
nodes = (
"520 10 OFFCURVE",
"576 57 OFFCURVE",
"619 89 CURVE",
"612 112 LINE",
"556 85 OFFCURVE",
"527 68 OFFCURVE",
"517 100 CURVE SMOOTH",
"453 301 OFFCURVE",
"379 520 OFFCURVE",
"332 709 CURVE",
"296 714 OFFCURVE",
"244 699 OFFCURVE",
"217 688 CURVE",
"289 503 OFFCURVE",
"352 255 OFFCURVE",
"416 40 CURVE SMOOTH",
"424 13 OFFCURVE",
"455 -20 OFFCURVE",
"479 -20 CURVE"
);
},
{
closed = 1;
nodes = (
"121 52 OFFCURVE",
"276 530 OFFCURVE",
"311 627 CURVE",
"274 664 LINE",
"97 115 LINE SMOOTH",
"88 87 OFFCURVE",
"88 87 OFFCURVE",
"14 118 CURVE",
"3 91 OFFCURVE",
"-20 40 OFFCURVE",
"-20 22 CURVE",
"3 4 OFFCURVE",
"57 -13 OFFCURVE",
"91 -5 CURVE"
);
},
{
closed = 1;
nodes = (
"654 635 LINE",
"624 670 LINE",
"624 670 OFFCURVE",
"519 368 OFFCURVE",
"463 192 CURVE",
"482 134 LINE"
);
},
{
closed = 1;
nodes = (
"868 7 OFFCURVE",
"898 38 OFFCURVE",
"934 63 CURVE",
"932 89 LINE",
"879 82 OFFCURVE",
"875 88 OFFCURVE",
"862 126 CURVE SMOOTH",
"799 312 OFFCURVE",
"738 528 OFFCURVE",
"685 714 CURVE",
"671 720 LINE",
"663 720 OFFCURVE",
"586 657 OFFCURVE",
"567 632 CURVE",
"634 502 OFFCURVE",
"737 134 OFFCURVE",
"768 39 CURVE SMOOTH",
"778 8 OFFCURVE",
"822 -20 OFFCURVE",
"840 -20 CURVE"
);
}
);
userData = {
com.schriftgestaltung.Glyphs.lastChange = "2019-04-23 08:06:43 +0000";
};
width = 939;
}
);
unicode = 004D;
},
{
color = 3;
glyphname = M.ss01;
layers = (
{
anchors = (
{
name = bottom;
position = "{430, 0}";
},
{
name = top;
position = "{430, 700}";
}
);
layerId = "5FE47517-9953-4891-9518-AB2E2247E448";
paths = (
{
closed = 1;
nodes = (
"481 -138 OFFCURVE",
"557 -81 OFFCURVE",
"655 19 CURVE SMOOTH",
"758 124 OFFCURVE",
"812 213 OFFCURVE",
"812 335 CURVE SMOOTH",
"812 510 OFFCURVE",
"742 633 OFFCURVE",
"616 726 CURVE",
"552 680 OFFCURVE",
"482 594 OFFCURVE",
"436 552 CURVE",
"443 495 LINE",
"494 566 OFFCURVE",
"537 597 OFFCURVE",
"595 640 CURVE",
"555 632 LINE",
"641 558 OFFCURVE",
"693 460 OFFCURVE",
"693 314 CURVE SMOOTH",
"693 116 OFFCURVE",
"572 -34 OFFCURVE",
"531 -34 CURVE SMOOTH",
"510 -34 OFFCURVE",
"479 -15 OFFCURVE",
"466 -6 CURVE",
"449 -26 OFFCURVE",
"397 -76 OFFCURVE",
"350 -127 CURVE",
"357 -138 LINE"
);
},
{
closed = 1;
nodes = (
"282 25 OFFCURVE",
"370 93 OFFCURVE",
"405 126 CURVE",
"440 174 OFFCURVE",
"493 261 OFFCURVE",
"493 357 CURVE SMOOTH",
"493 542 OFFCURVE",
"355 669 OFFCURVE",
"308 717 CURVE",
"288 717 OFFCURVE",
"95 582 OFFCURVE",
"82 563 CURVE",
"55 518 OFFCURVE",
"14 432 OFFCURVE",
"14 334 CURVE SMOOTH",
"14 146 OFFCURVE",
"121 42 OFFCURVE",
"202 -22 CURVE"
);
},
{
closed = 1;
nodes = (
"217 98 OFFCURVE",
"131 225 OFFCURVE",
"131 359 CURVE SMOOTH",
"131 491 OFFCURVE",
"193 576 OFFCURVE",
"238 613 CURVE",
"297 565 OFFCURVE",
"372 483 OFFCURVE",
"372 330 CURVE SMOOTH",
"372 222 OFFCURVE",
"309 122 OFFCURVE",
"266 75 CURVE"
);
}
);
userData = {
com.schriftgestaltung.Glyphs.lastChange = "2019-04-23 08:06:40 +0000";
};
width = 860;
}
);
},
{
color = 3;
glyphname = N;
layers = (
{
anchors = (
{
name = bottom;
position = "{377, 0}";
},
{
name = top;
position = "{377, 700}";
}
);
layerId = "5FE47517-9953-4891-9518-AB2E2247E448";
paths = (
{
closed = 1;
nodes = (
"233 593 LINE",
"241 435 OFFCURVE",
"247 155 OFFCURVE",
"214 -60 CURVE",
"222 -61 LINE",
"257 -19 LINE",
"285 191 OFFCURVE",
"277 455 OFFCURVE",
"278 614 CURVE"
);
},
{
closed = 1;
nodes = (
"272 636 OFFCURVE",
"381 636 CURVE SMOOTH",
"472 636 OFFCURVE",
"572 580 OFFCURVE",
"572 453 CURVE SMOOTH",
"572 365 OFFCURVE",
"519 254 OFFCURVE",
"455 176 CURVE",
"437 153 OFFCURVE",
"409 135 OFFCURVE",
"378 109 CURVE",
"425 67 OFFCURVE",
"476 18 OFFCURVE",
"524 -21 CURVE",
"540 -21 OFFCURVE",
"665 47 OFFCURVE",
"723 89 CURVE",
"719 112 LINE",
"688 95 OFFCURVE",
"651 86 OFFCURVE",
"630 86 CURVE SMOOTH",
"580 86 OFFCURVE",
"529 136 OFFCURVE",
"502 169 CURVE",
"565 269 OFFCURVE",
"701 394 OFFCURVE",
"701 512 CURVE SMOOTH",
"701 611 OFFCURVE",
"603 722 OFFCURVE",
"481 722 CURVE SMOOTH",
"452 722 OFFCURVE",
"252 620 OFFCURVE",
"61 575 CURVE",
"71 375 OFFCURVE",
"80 148 OFFCURVE",
"78 -22 CURVE SMOOTH",
"77 -100 OFFCURVE",
"71 -142 OFFCURVE",
"30 -224 CURVE",
"50 -239 LINE",
"102 -194 OFFCURVE",
"156 -114 OFFCURVE",
"180 -76 CURVE",
"195 66 OFFCURVE",
"196 308 OFFCURVE",
"196 543 CURVE",
"238 573 OFFCURVE"
);
}
);
userData = {
com.schriftgestaltung.Glyphs.lastChange = "2019-04-13 17:48:54 +0000";
};
width = 758;
}
);
leftMetricsKey = H;
rightMetricsKey = H;
unicode = 004E;
},
{
color = 3;
glyphname = O;
layers = (
{
anchors = (
{
name = bottom;
position = "{392, 0}";
},
{
name = center;
position = "{392, 350}";
},
{
name = ogonek;
position = "{713, 10}";
},
{
name = top;
position = "{392, 700}";
},
{
name = topleft;
position = "{11, 700}";
},
{
name = topright;
position = "{773, 700}";
}
);
layerId = "5FE47517-9953-4891-9518-AB2E2247E448";
paths = (
{
closed = 1;
nodes = (
"433 -9 OFFCURVE",
"768 151 OFFCURVE",
"768 390 CURVE SMOOTH",
"768 542 OFFCURVE",
"667 674 OFFCURVE",
"492 721 CURVE",
"333 700 OFFCURVE",
"195 622 OFFCURVE",
"115 567 CURVE",
"53 511 OFFCURVE",
"31 431 OFFCURVE",
"30 352 CURVE SMOOTH",
"27 146 OFFCURVE",
"168 8 OFFCURVE",
"368 -19 CURVE"
);
},
{
closed = 1;
nodes = (
"261 72 OFFCURVE",
"153 192 OFFCURVE",
"153 344 CURVE SMOOTH",
"153 488 OFFCURVE",
"237 643 OFFCURVE",
"404 643 CURVE SMOOTH",
"532 643 OFFCURVE",
"646 526 OFFCURVE",
"646 369 CURVE SMOOTH",
"646 190 OFFCURVE",
"532 72 OFFCURVE",
"402 72 CURVE SMOOTH"
);
}
);
userData = {
com.schriftgestaltung.Glyphs.lastChange = "2019-04-13 09:29:40 +0000";
};
width = 798;
}
);
unicode = 004F;
},
{
color = 3;
glyphname = P;
layers = (
{
anchors = (
{
name = bottom;
position = "{438, 0}";
},
{
name = top;
position = "{438, 700}";
}
);
layerId = "5FE47517-9953-4891-9518-AB2E2247E448";
paths = (
{
closed = 1;
nodes = (
"353 236 OFFCURVE",
"359 468 OFFCURVE",
"361 613 CURVE",
"317 600 LINE",
"321 494 OFFCURVE",
"312 321 OFFCURVE",
"309 176 CURVE",
"351 90 LINE"
);
},
{
closed = 1;
nodes = (
"250 7 OFFCURVE",
"246 304 OFFCURVE",
"247 569 CURVE SMOOTH",
"247 607 OFFCURVE",
"257 663 OFFCURVE",
"260 715 CURVE",
"238 723 LINE",
"181 688 OFFCURVE",
"122 666 OFFCURVE",
"40 628 CURVE",
"47 603 LINE",
"103 601 OFFCURVE",
"113 551 OFFCURVE",
"114 496 CURVE SMOOTH",
"118 251 OFFCURVE",
"117 25 OFFCURVE",
"109 -221 CURVE",
"257 -221 LINE"
);
},
{
closed = 1;
nodes = (
"240 46 LINE",
"266 60 OFFCURVE",
"293 68 OFFCURVE",
"316 65 CURVE SMOOTH",
"369 60 OFFCURVE",
"411 18 OFFCURVE",
"444 -11 CURVE",
"535 23 OFFCURVE",
"663 84 OFFCURVE",
"741 118 CURVE",
"805 180 OFFCURVE",
"895 266 OFFCURVE",
"895 393 CURVE SMOOTH",
"895 616 OFFCURVE",
"698 723 OFFCURVE",
"477 723 CURVE",
"403 682 OFFCURVE",
"311 634 OFFCURVE",
"247 599 CURVE",
"232 548 LINE",
"340 611 OFFCURVE",
"414 624 OFFCURVE",
"467 624 CURVE SMOOTH",
"598 624 OFFCURVE",
"771 544 OFFCURVE",
"771 353 CURVE SMOOTH",
"771 213 OFFCURVE",
"698 127 OFFCURVE",
"543 77 CURVE",
"512 94 OFFCURVE",
"428 141 OFFCURVE",
"379 141 CURVE SMOOTH",
"361 141 OFFCURVE",
"294 106 OFFCURVE",
"242 81 CURVE"
);
}
);
userData = {
com.schriftgestaltung.Glyphs.lastChange = "2019-04-13 17:48:45 +0000";
};
width = 915;
}
);
unicode = 0050;
},
{
color = 3;
glyphname = P.ss01;
layers = (
{
anchors = (
{
name = bottom;
position = "{322, 0}";
},
{
name = top;
position = "{322, 700}";
}
);
layerId = "5FE47517-9953-4891-9518-AB2E2247E448";
paths = (
{
closed = 1;
nodes = (
"137 -209 OFFCURVE",
"215 -179 OFFCURVE",
"295 -155 CURVE",
"293 -122 LINE",
"279 -126 OFFCURVE",
"265 -127 OFFCURVE",
"247 -131 CURVE",
"247 22 LINE",
"306 42 OFFCURVE",
"400 -12 OFFCURVE",
"442 -12 CURVE",
"458 -12 OFFCURVE",
"628 145 OFFCURVE",
"628 211 CURVE SMOOTH",
"628 302 OFFCURVE",
"323 536 OFFCURVE",
"372 702 CURVE",
"352 708 LINE",
"271 633 OFFCURVE",
"144 536 OFFCURVE",
"24 459 CURVE",
"35 428 LINE",
"119 476 LINE",
"128 445 OFFCURVE",
"131 401 OFFCURVE",
"131 352 CURVE SMOOTH",
"132 61 LINE",
"120 45 OFFCURVE",
"96 16 OFFCURVE",
"75 -15 CURVE",
"80 -36 LINE",
"131 5 LINE",
"131 -42 OFFCURVE",
"126 -95 OFFCURVE",
"125 -121 CURVE SMOOTH",
"123 -173 OFFCURVE",
"128 -171 OFFCURVE",
"77 -210 CURVE",
"82 -241 LINE"
);
},
{
closed = 1;
nodes = (
"443 85 OFFCURVE",
"359 119 OFFCURVE",
"283 138 CURVE",
"271 138 OFFCURVE",
"259 132 OFFCURVE",
"251 129 CURVE",
"251 492 LINE SMOOTH",
"251 536 OFFCURVE",
"259 562 OFFCURVE",
"269 581 CURVE",
"306 503 OFFCURVE",
"365 400 OFFCURVE",
"415 330 CURVE SMOOTH",
"472 251 OFFCURVE",
"532 199 OFFCURVE",
"532 157 CURVE SMOOTH",
"532 122 OFFCURVE",
"511 99 OFFCURVE",
"498 91 CURVE"
);
}
);
userData = {
com.schriftgestaltung.Glyphs.lastChange = "2019-04-23 08:06:35 +0000";
};
width = 643;
}
);
},
{
color = 3;
glyphname = Q;
layers = (
{
anchors = (
{
name = bottom;
position = "{433, 0}";
},
{
name = top;
position = "{433, 700}";
}
);
layerId = "5FE47517-9953-4891-9518-AB2E2247E448";
paths = (
{
closed = 1;
nodes = (
"432 52 OFFCURVE",
"492 104 OFFCURVE",
"556 166 CURVE",
"534 184 LINE",
"471 129 OFFCURVE",
"416 102 OFFCURVE",
"368 102 CURVE SMOOTH",
"233 102 OFFCURVE",
"160 217 OFFCURVE",
"160 336 CURVE SMOOTH",
"160 513 OFFCURVE",
"305 630 OFFCURVE",
"405 630 CURVE SMOOTH",
"569 630 OFFCURVE",
"699 537 OFFCURVE",
"699 384 CURVE SMOOTH",
"699 228 OFFCURVE",
"617 150 OFFCURVE",
"563 74 CURVE",
"619 34 OFFCURVE",
"693 -20 OFFCURVE",
"704 -20 CURVE SMOOTH",
"713 -20 OFFCURVE",
"809 70 OFFCURVE",
"870 111 CURVE",
"855 135 LINE",
"828 121 OFFCURVE",
"774 94 OFFCURVE",
"767 94 CURVE SMOOTH",
"756 94 OFFCURVE",
"697 131 OFFCURVE",
"674 156 CURVE",
"697 191 OFFCURVE",
"831 284 OFFCURVE",
"836 430 CURVE SMOOTH",
"842 600 OFFCURVE",
"721 680 OFFCURVE",
"603 720 CURVE",
"303 720 OFFCURVE",
"29 553 OFFCURVE",
"29 300 CURVE SMOOTH",
"29 105 OFFCURVE",
"155 -20 OFFCURVE",
"358 -20 CURVE"
);
}
);
userData = {
com.schriftgestaltung.Glyphs.lastChange = "2019-04-23 08:06:32 +0000";
};
width = 865;
}
);
unicode = 0051;
},
{
color = 3;
glyphname = Q.ss01;
layers = (
{
anchors = (
{
name = bottom;
position = "{435, 0}";
},
{
name = top;
position = "{435, 700}";
}
);
layerId = "5FE47517-9953-4891-9518-AB2E2247E448";
paths = (
{
closed = 1;
nodes = (
"703 -20 OFFCURVE",
"749 41 OFFCURVE",
"810 82 CURVE",
"795 106 LINE",
"767 99 OFFCURVE",
"749 102 OFFCURVE",
"725 115 CURVE SMOOTH",
"537 215 LINE",
"489 158 OFFCURVE",
"426 119 OFFCURVE",
"358 119 CURVE SMOOTH",
"223 119 OFFCURVE",
"151 248 OFFCURVE",
"151 367 CURVE SMOOTH",
"151 544 OFFCURVE",
"286 617 OFFCURVE",
"396 617 CURVE SMOOTH",
"570 617 OFFCURVE",
"662 492 OFFCURVE",
"662 388 CURVE SMOOTH",
"662 296 OFFCURVE",
"627 224 OFFCURVE",
"586 174 CURVE",
"625 156 LINE",
"639 185 OFFCURVE",
"773 298 OFFCURVE",
"778 430 CURVE SMOOTH",
"785 600 OFFCURVE",
"683 715 OFFCURVE",
"475 715 CURVE SMOOTH",
"327 715 OFFCURVE",
"29 546 OFFCURVE",
"29 290 CURVE SMOOTH",
"29 115 OFFCURVE",
"173 -8 OFFCURVE",
"330 -18 CURVE",
"387 13 OFFCURVE",
"462 69 OFFCURVE",
"506 110 CURVE",
"628 31 OFFCURVE",
"686 -20 OFFCURVE",
"694 -20 CURVE SMOOTH"
);
}
);
userData = {
com.schriftgestaltung.Glyphs.lastChange = "2019-04-23 08:06:29 +0000";
};
width = 870;
}
);
},
{
color = 3;
glyphname = Q.ss02;
layers = (
{
anchors = (
{
name = bottom;
position = "{339, 0}";
},
{
name = top;
position = "{339, 700}";
}
);
layerId = "5FE47517-9953-4891-9518-AB2E2247E448";
paths = (
{
closed = 1;
nodes = (
"597 26 OFFCURVE",
"631 67 OFFCURVE",
"667 122 CURVE",
"648 132 LINE",
"633 111 OFFCURVE",
"627 96 OFFCURVE",
"602 96 CURVE SMOOTH",
"553 96 OFFCURVE",
"551 182 OFFCURVE",
"524 244 CURVE SMOOTH",
"507 282 OFFCURVE",
"462 313 OFFCURVE",
"424 347 CURVE",
"450 383 OFFCURVE",
"476 409 OFFCURVE",
"503 459 CURVE",
"523 627 OFFCURVE",
"443 736 OFFCURVE",
"257 713 CURVE",
"223 709 OFFCURVE",
"82 600 OFFCURVE",
"40 546 CURVE",
"22 496 OFFCURVE",
"20 450 OFFCURVE",
"20 408 CURVE SMOOTH",
"20 266 OFFCURVE",
"128 176 OFFCURVE",
"235 153 CURVE",
"270 190 OFFCURVE",
"299 222 OFFCURVE",
"343 267 CURVE",
"389 237 OFFCURVE",
"414 207 OFFCURVE",
"426 171 CURVE SMOOTH",
"474 26 OFFCURVE",
"483 -10 OFFCURVE",
"569 -18 CURVE"
);
},
{
closed = 1;
nodes = (
"202 296 OFFCURVE",
"126 343 OFFCURVE",
"126 459 CURVE SMOOTH",
"126 530 OFFCURVE",
"146 604 OFFCURVE",
"222 640 CURVE",
"320 640 OFFCURVE",
"409 574 OFFCURVE",
"409 458 CURVE SMOOTH",
"409 353 OFFCURVE",
"337 291 OFFCURVE",
"291 273 CURVE"
);
}
);
userData = {
com.schriftgestaltung.Glyphs.lastChange = "2019-04-13 10:28:57 +0000";
};
width = 677;
}
);
},
{
color = 3;
glyphname = Q.ss03;
layers = (
{
anchors = (
{
name = bottom;
position = "{594, 0}";
},
{
name = top;
position = "{594, 700}";
}
);
layerId = "5FE47517-9953-4891-9518-AB2E2247E448";
paths = (
{
closed = 1;
nodes = (
"939 -20 OFFCURVE",
"1070 71 OFFCURVE",
"1157 138 CURVE",
"1139 160 LINE",
"1076 123 OFFCURVE",
"1044 106 OFFCURVE",
"1008 106 CURVE SMOOTH",
"924 106 OFFCURVE",
"740 364 OFFCURVE",
"539 364 CURVE SMOOTH",
"478 364 OFFCURVE",
"434 361 OFFCURVE",
"404 357 CURVE",
"436 424 OFFCURVE",
"491 503 OFFCURVE",
"494 561 CURVE SMOOTH",
"499 651 OFFCURVE",
"422 714 OFFCURVE",
"346 714 CURVE SMOOTH",
"295 714 OFFCURVE",
"269 704 OFFCURVE",
"239 685 CURVE",
"86 542 LINE",
"65 517 OFFCURVE",
"54 482 OFFCURVE",
"54 440 CURVE SMOOTH",
"54 330 OFFCURVE",
"134 276 OFFCURVE",
"226 256 CURVE",
"248 267 OFFCURVE",
"311 344 OFFCURVE",
"342 378 CURVE",
"326 390 LINE",
"309 381 OFFCURVE",
"291 369 OFFCURVE",
"274 369 CURVE SMOOTH",
"184 369 OFFCURVE",
"158 441 OFFCURVE",
"158 498 CURVE SMOOTH",
"158 566 OFFCURVE",
"209 610 OFFCURVE",
"262 610 CURVE SMOOTH",
"350 610 OFFCURVE",
"394 542 OFFCURVE",
"394 468 CURVE SMOOTH",
"394 387 OFFCURVE",
"348 329 OFFCURVE",
"300 252 CURVE",
"308 237 LINE",
"342 245 OFFCURVE",
"395 255 OFFCURVE",
"463 255 CURVE SMOOTH",
"662 255 OFFCURVE",
"752 62 OFFCURVE",
"923 -20 CURVE"
);
}
);
userData = {
com.schriftgestaltung.Glyphs.lastChange = "2019-04-13 10:29:43 +0000";
};
width = 1187;
}
);
},
{
color = 3;
glyphname = R;
layers = (
{
anchors = (
{
name = bottom;
position = "{281, 0}";
},
{
name = top;
position = "{281, 700}";
}
);
layerId = "5FE47517-9953-4891-9518-AB2E2247E448";
paths = (
{
closed = 1;
nodes = (
"152 10 LINE",
"153 370 LINE SMOOTH",
"153 391 OFFCURVE",
"181 395 OFFCURVE",
"201 395 CURVE SMOOTH",
"330 395 OFFCURVE",
"397 184 OFFCURVE",
"408 -9 CURVE",
"421 -10 LINE",
"531 67 LINE",
"494 277 OFFCURVE",
"459 421 OFFCURVE",
"287 473 CURVE",
"378 537 OFFCURVE",
"422 546 OFFCURVE",
"422 612 CURVE SMOOTH",
"422 688 OFFCURVE",
"356 720 OFFCURVE",
"286 719 CURVE SMOOTH",
"212 718 OFFCURVE",
"131 670 OFFCURVE",
"46 601 CURVE",
"35 -10 LINE"
);
},
{
closed = 1;
nodes = (
"153 619 LINE",
"169 633 OFFCURVE",
"197 648 OFFCURVE",
"225 648 CURVE SMOOTH",
"269 648 OFFCURVE",
"299 622 OFFCURVE",
"299 580 CURVE SMOOTH",
"299 520 OFFCURVE",
"242 481 OFFCURVE",
"207 460 CURVE SMOOTH",
"152 426 LINE"
);
}
);
userData = {
com.schriftgestaltung.Glyphs.lastChange = "2019-04-24 15:12:59 +0000";
};
width = 561;
}
);
unicode = 0052;
},
{
color = 3;
glyphname = S;
layers = (
{
anchors = (
{
name = bottom;
position = "{334, 0}";
},
{
name = top;
position = "{334, 700}";
}
);
layerId = "5FE47517-9953-4891-9518-AB2E2247E448";
paths = (
{
closed = 1;
nodes = (
"-23 20 OFFCURVE",
"46 68 OFFCURVE",
"152 68 CURVE SMOOTH",
"297 68 OFFCURVE",
"441 -10 OFFCURVE",
"509 -20 CURVE",
"538 -10 OFFCURVE",
"777 83 OFFCURVE",
"777 227 CURVE SMOOTH",
"777 375 OFFCURVE",
"669 461 OFFCURVE",
"513 461 CURVE SMOOTH",
"429 461 OFFCURVE",
"399 455 OFFCURVE",
"345 455 CURVE SMOOTH",
"261 455 OFFCURVE",
"220 501 OFFCURVE",
"222 559 CURVE SMOOTH",
"224 614 OFFCURVE",
"259 644 OFFCURVE",
"277 654 CURVE",
"368 664 OFFCURVE",
"415 624 OFFCURVE",
"415 565 CURVE SMOOTH",
"415 535 OFFCURVE",
"404 491 OFFCURVE",
"355 454 CURVE",
"390 440 LINE",
"456 503 OFFCURVE",
"526 538 OFFCURVE",
"529 615 CURVE SMOOTH",
"530 640 OFFCURVE",
"516 701 OFFCURVE",
"473 721 CURVE",
"404 721 OFFCURVE",
"305 718 OFFCURVE",
"270 697 CURVE SMOOTH",
"189 649 OFFCURVE",
"114 579 OFFCURVE",
"114 484 CURVE SMOOTH",
"114 390 OFFCURVE",
"189 333 OFFCURVE",
"291 333 CURVE SMOOTH",
"354 333 OFFCURVE",
"435 335 OFFCURVE",
"492 335 CURVE SMOOTH",
"593 335 OFFCURVE",
"690 291 OFFCURVE",
"690 194 CURVE SMOOTH",
"690 134 OFFCURVE",
"652 86 OFFCURVE",
"597 65 CURVE",
"536 62 OFFCURVE",
"313 182 OFFCURVE",
"219 182 CURVE SMOOTH",
"132 182 OFFCURVE",
"-37 54 OFFCURVE",
"-170 -25 CURVE",
"-150 -55 LINE"
);
}
);
userData = {
com.schriftgestaltung.Glyphs.lastChange = "2019-04-23 08:07:09 +0000";
};
width = 827;
}
);
unicode = 0053;
},
{
color = 3;
glyphname = S.ss01;
layers = (
{
anchors = (
{
name = bottom;
position = "{424, 0}";
},
{
name = top;
position = "{424, 700}";
}
);
layerId = "5FE47517-9953-4891-9518-AB2E2247E448";
paths = (
{
closed = 1;
nodes = (
"370 19 OFFCURVE",
"422 59 OFFCURVE",
"447 59 CURVE SMOOTH",
"477 59 OFFCURVE",
"515 38 OFFCURVE",
"555 -20 CURVE",
"639 33 OFFCURVE",
"694 60 OFFCURVE",
"761 100 CURVE SMOOTH",
"820 135 OFFCURVE",
"837 196 OFFCURVE",
"837 249 CURVE SMOOTH",
"837 384 OFFCURVE",
"714 472 OFFCURVE",
"593 472 CURVE SMOOTH",
"463 472 OFFCURVE",
"357 394 OFFCURVE",
"257 394 CURVE SMOOTH",
"155 394 OFFCURVE",
"81 491 OFFCURVE",
"131 576 CURVE",
"173 567 OFFCURVE",
"225 555 OFFCURVE",
"278 555 CURVE SMOOTH",
"318 555 OFFCURVE",
"385 639 OFFCURVE",
"437 698 CURVE",
"415 720 LINE",
"369 690 OFFCURVE",
"329 672 OFFCURVE",
"299 672 CURVE SMOOTH",
"254 672 OFFCURVE",
"221 711 OFFCURVE",
"205 721 CURVE",
"187 721 OFFCURVE",
"20 527 OFFCURVE",
"13 462 CURVE SMOOTH",
"7 410 OFFCURVE",
"54 276 OFFCURVE",
"238 276 CURVE SMOOTH",
"351 276 OFFCURVE",
"451 342 OFFCURVE",
"555 342 CURVE SMOOTH",
"656 342 OFFCURVE",
"722 281 OFFCURVE",
"722 208 CURVE SMOOTH",
"722 160 OFFCURVE",
"703 108 OFFCURVE",
"658 82 CURVE",
"623 126 OFFCURVE",
"588 179 OFFCURVE",
"538 179 CURVE SMOOTH",
"468 179 OFFCURVE",
"360 61 OFFCURVE",
"258 -31 CURVE",
"280 -57 LINE"
);
}
);
userData = {
com.schriftgestaltung.Glyphs.lastChange = "2019-04-23 08:07:06 +0000";
};
width = 847;
}
);
},
{
color = 3;
glyphname = T;
layers = (
{
anchors = (
{
name = bottom;
position = "{365, 0}";
},
{
name = center;
position = "{365, 350}";
},
{
name = top;
position = "{365, 700}";
}
);
layerId = "5FE47517-9953-4891-9518-AB2E2247E448";
paths = (
{
closed = 1;
nodes = (
"487 10 OFFCURVE",
"630 99 OFFCURVE",
"660 117 CURVE",
"643 141 LINE",
"598 124 OFFCURVE",
"550 102 OFFCURVE",
"490 102 CURVE SMOOTH",
"351 102 OFFCURVE",
"265 190 OFFCURVE",
"265 314 CURVE SMOOTH",
"265 463 OFFCURVE",
"427 599 OFFCURVE",
"546 596 CURVE SMOOTH",
"584 595 OFFCURVE",
"633 596 OFFCURVE",
"671 604 CURVE",
"714 705 LINE",
"698 716 LINE",
"685 702 OFFCURVE",
"595 702 OFFCURVE",
"534 702 CURVE SMOOTH",
"453 702 OFFCURVE",
"346 710 OFFCURVE",
"272 710 CURVE",
"188 681 OFFCURVE",
"119 633 OFFCURVE",
"50 564 CURVE",
"72 550 LINE",
"193 624 OFFCURVE",
"296 626 OFFCURVE",
"431 604 CURVE",
"316 556 OFFCURVE",
"116 449 OFFCURVE",
"116 267 CURVE SMOOTH",
"116 106 OFFCURVE",
"209 11 OFFCURVE",
"394 -20 CURVE"
);
}
);
userData = {
com.schriftgestaltung.Glyphs.lastChange = "2019-04-23 08:07:03 +0000";
};
width = 730;
}
);
unicode = 0054;
},
{
color = 6;
glyphname = U;
layers = (
{
layerId = "5FE47517-9953-4891-9518-AB2E2247E448";
paths = (
{
closed = 1;
nodes = (
"646 128 LINE",
"646 174 LINE",
"604 149 OFFCURVE",
"479 73 OFFCURVE",
"432 73 CURVE SMOOTH",
"372 73 OFFCURVE",
"248 102 OFFCURVE",
"248 249 CURVE SMOOTH",
"248 337 OFFCURVE",
"331 480 OFFCURVE",
"372 532 CURVE SMOOTH",
"390 555 OFFCURVE",
"442 588 OFFCURVE",
"442 592 CURVE SMOOTH",
"442 601 OFFCURVE",
"300 723 OFFCURVE",
"290 723 CURVE SMOOTH",
"274 723 OFFCURVE",
"155 640 OFFCURVE",
"107 598 CURVE",
"121 578 LINE",
"121 578 OFFCURVE",
"179 604 OFFCURVE",
"200 604 CURVE SMOOTH",
"232 604 OFFCURVE",
"291 566 OFFCURVE",
"318 533 CURVE",
"215 413 OFFCURVE",
"111 288 OFFCURVE",
"111 190 CURVE SMOOTH",
"111 71 OFFCURVE",
"228 -20 OFFCURVE",
"350 -20 CURVE"
);
},
{
closed = 0;
nodes = (
"747 125 LINE"
);
},
{
closed = 1;
nodes = (
"581 113 LINE",
"583 332 OFFCURVE",
"587 432 OFFCURVE",
"593 651 CURVE",
"545 633 LINE",
"543 103 LINE"
);
},
{
closed = 1;
nodes = (
"864 92 LINE",
"861 127 LINE",
"783 109 OFFCURVE",
"744 164 OFFCURVE",
"742 252 CURVE SMOOTH",
"739 381 OFFCURVE",
"729 586 OFFCURVE",
"794 706 CURVE",
"783 728 LINE",
"627 659 LINE",
"628 134 LINE",
"729 -19 LINE"
);
}
);
userData = {
com.schriftgestaltung.Glyphs.lastChange = "2019-04-23 08:07:00 +0000";
};
width = 914;
}
);
unicode = 0055;
},
{
color = 3;
glyphname = V;
layers = (
{
anchors = (
{
name = bottom;
position = "{455, 0}";
},
{
name = top;
position = "{455, 700}";
}
);
layerId = "5FE47517-9953-4891-9518-AB2E2247E448";
paths = (
{
closed = 1;
nodes = (
"620 0 LINE",
"690 244 OFFCURVE",
"771 467 OFFCURVE",
"889 702 CURVE",
"876 719 LINE",
"853 712 OFFCURVE",
"788 702 OFFCURVE",
"738 702 CURVE SMOOTH",
"676 702 OFFCURVE",
"627 711 OFFCURVE",
"582 720 CURVE",
"562 681 OFFCURVE",
"499 618 OFFCURVE",
"479 582 CURVE",
"491 572 OFFCURVE",
"524 538 OFFCURVE",
"566 538 CURVE",
"577 553 LINE",
"562 572 OFFCURVE",
"549 596 OFFCURVE",
"551 619 CURVE",
"594 639 OFFCURVE",
"642 585 OFFCURVE",
"696 585 CURVE SMOOTH",
"720 585 OFFCURVE",
"752 589 OFFCURVE",
"783 599 CURVE",
"740 501 OFFCURVE",
"672 311 OFFCURVE",
"596 70 CURVE",
"611 90 LINE",
"571 332 OFFCURVE",
"373 712 OFFCURVE",
"174 712 CURVE SMOOTH",
"144 712 OFFCURVE",
"115 706 OFFCURVE",
"110 697 CURVE SMOOTH",
"91 663 OFFCURVE",
"42 590 OFFCURVE",
"22 560 CURVE SMOOTH",
"-12 508 OFFCURVE",
"29 442 OFFCURVE",
"79 422 CURVE",
"95 457 OFFCURVE",
"105 478 OFFCURVE",
"136 516 CURVE",
"59 570 OFFCURVE",
"88 616 OFFCURVE",
"122 616 CURVE SMOOTH",
"278 616 OFFCURVE",
"468 263 OFFCURVE",
"515 0 CURVE"
);
}
);
userData = {
com.schriftgestaltung.Glyphs.lastChange = "2019-04-23 08:06:11 +0000";
};
width = 909;
}
);
unicode = 0056;
},
{
color = 3;
glyphname = V.ss01;
layers = (
{
anchors = (
{
name = bottom;
position = "{615, 0}";
},
{
name = ogonek;
position = "{1106, 10}";
},
{
name = top;
position = "{615, 700}";
},
{
name = topright;
position = "{1209, 700}";
}
);
layerId = "5FE47517-9953-4891-9518-AB2E2247E448";
paths = (
{
closed = 1;
nodes = (
"413 16 OFFCURVE",
"478 35 OFFCURVE",
"565 35 CURVE SMOOTH",
"643 35 OFFCURVE",
"801 5 OFFCURVE",
"892 -16 CURVE",
"926 10 OFFCURVE",
"1057 115 OFFCURVE",
"1147 178 CURVE",
"1204 252 OFFCURVE",
"1204 357 OFFCURVE",
"1204 388 CURVE SMOOTH",
"1204 546 OFFCURVE",
"1111 685 OFFCURVE",
"936 685 CURVE SMOOTH",
"882 685 OFFCURVE",
"839 671 OFFCURVE",
"801 653 CURVE",
"754 576 OFFCURVE",
"694 496 OFFCURVE",
"694 465 CURVE",
"694 405 OFFCURVE",
"735 374 OFFCURVE",
"767 350 CURVE",
"792 360 OFFCURVE",
"831 377 OFFCURVE",
"873 407 CURVE",
"873 413 LINE",
"797 452 OFFCURVE",
"783 495 OFFCURVE",
"783 562 CURVE",
"806 578 OFFCURVE",
"840 588 OFFCURVE",
"875 588 CURVE SMOOTH",
"1020 588 OFFCURVE",
"1089 487 OFFCURVE",
"1089 357 CURVE SMOOTH",
"1089 219 OFFCURVE",
"967 93 OFFCURVE",
"947 93 CURVE",
"882 111 OFFCURVE",
"779 151 OFFCURVE",
"697 151 CURVE SMOOTH",
"632 151 OFFCURVE",
"526 125 OFFCURVE",
"459 91 CURVE",
"515 150 OFFCURVE",
"570 199 OFFCURVE",
"571 287 CURVE SMOOTH",
"573 431 OFFCURVE",
"566 574 OFFCURVE",
"574 718 CURVE",
"561 722 LINE",
"500 685 OFFCURVE",
"446 674 OFFCURVE",
"372 674 CURVE SMOOTH",
"300 674 OFFCURVE",
"208 700 OFFCURVE",
"193 700 CURVE",
"155 672 OFFCURVE",
"105 586 OFFCURVE",
"40 538 CURVE",
"34 499 OFFCURVE",
"15 404 OFFCURVE",
"102 365 CURVE",
"135 383 OFFCURVE",
"170 419 OFFCURVE",
"184 454 CURVE",
"144 482 OFFCURVE",
"110 518 OFFCURVE",
"120 575 CURVE",
"270 545 OFFCURVE",
"417 542 OFFCURVE",
"481 587 CURVE",
"468 596 LINE",
"464 569 OFFCURVE",
"449 521 OFFCURVE",
"446 462 CURVE SMOOTH",
"442 380 OFFCURVE",
"451 274 OFFCURVE",
"448 202 CURVE SMOOTH",
"444 121 OFFCURVE",
"374 69 OFFCURVE",
"310 0 CURVE",
"326 -19 LINE"
);
},
{
closed = 1;
nodes = (
"636 108 LINE",
"638 327 OFFCURVE",
"642 547 OFFCURVE",
"648 766 CURVE",
"608 768 LINE",
"606 108 LINE"
);
}
);
userData = {
com.schriftgestaltung.Glyphs.lastChange = "2019-04-23 08:06:57 +0000";
};
width = 1229;
}
);
},
{
color = 3;
glyphname = V.ss02;
layers = (
{
anchors = (
{
name = bottom;
position = "{427, 0}";
},
{
name = top;
position = "{427, 700}";
}
);
layerId = "5FE47517-9953-4891-9518-AB2E2247E448";
paths = (
{
closed = 1;
nodes = (
"554 30 OFFCURVE",
"724 146 OFFCURVE",
"789 199 CURVE",
"815 227 OFFCURVE",
"834 257 OFFCURVE",
"834 305 CURVE SMOOTH",
"834 398 OFFCURVE",
"750 463 OFFCURVE",
"685 463 CURVE SMOOTH",
"655 463 OFFCURVE",
"637 454 OFFCURVE",
"629 447 CURVE",
"492 321 LINE",
"512 292 LINE",
"515 296 OFFCURVE",
"580 347 OFFCURVE",
"630 347 CURVE SMOOTH",
"677 347 OFFCURVE",
"718 308 OFFCURVE",
"718 265 CURVE SMOOTH",
"718 191 OFFCURVE",
"651 145 OFFCURVE",
"545 66 CURVE",
"565 67 LINE",
"567 299 OFFCURVE",
"460 426 OFFCURVE",
"317 465 CURVE SMOOTH",
"218 492 OFFCURVE",
"148 510 OFFCURVE",
"147 581 CURVE SMOOTH",
"146 633 OFFCURVE",
"181 656 OFFCURVE",
"224 656 CURVE SMOOTH",
"281 656 OFFCURVE",
"297 616 OFFCURVE",
"295 583 CURVE",
"298 580 LINE",
"563 629 LINE",
"555 659 LINE",
"517 655 OFFCURVE",
"496 649 OFFCURVE",
"452 649 CURVE SMOOTH",
"401 649 OFFCURVE",
"391 694 OFFCURVE",
"364 723 CURVE",
"301 713 OFFCURVE",
"141 669 OFFCURVE",
"105 664 CURVE",
"48 645 OFFCURVE",
"10 608 OFFCURVE",
"10 562 CURVE SMOOTH",
"10 471 OFFCURVE",
"92 431 OFFCURVE",
"169 408 CURVE SMOOTH",
"377 347 OFFCURVE",
"468 275 OFFCURVE",
"468 -4 CURVE",
"493 -21 LINE"
);
}
);
userData = {
com.schriftgestaltung.Glyphs.lastChange = "2019-04-23 08:06:53 +0000";
};
width = 854;
}
);
},
{
color = 6;
glyphname = W;
layers = (
{
layerId = "5FE47517-9953-4891-9518-AB2E2247E448";
paths = (
{
closed = 1;
nodes = (
"784 0 LINE",
"889 0 LINE",
"959 244 OFFCURVE",
"1040 467 OFFCURVE",
"1158 702 CURVE",
"1135 720 LINE",
"1122 713 OFFCURVE",
"1067 702 OFFCURVE",
"1017 702 CURVE SMOOTH",
"965 702 OFFCURVE",
"897 733 OFFCURVE",
"871 720 CURVE",
"823 659 OFFCURVE",
"788 617 OFFCURVE",
"768 582 CURVE",
"788 542 OFFCURVE",
"813 538 OFFCURVE",
"855 538 CURVE",
"866 553 LINE",
"851 572 OFFCURVE",
"833 596 OFFCURVE",
"831 619 CURVE",
"872 642 OFFCURVE",
"931 585 OFFCURVE",
"985 585 CURVE SMOOTH",
"1009 585 OFFCURVE",
"1030 595 OFFCURVE",
"1061 605 CURVE",
"1021 520 OFFCURVE",
"943 321 OFFCURVE",
"860 65 CURVE",
"880 77 LINE",
"832 318 OFFCURVE",
"735 717 OFFCURVE",
"535 717 CURVE SMOOTH",
"505 717 OFFCURVE",
"486 711 OFFCURVE",
"471 702 CURVE",
"452 668 OFFCURVE",
"394 558 OFFCURVE",
"374 528 CURVE",
"399 507 LINE",
"428 546 OFFCURVE",
"453 603 OFFCURVE",
"501 603 CURVE SMOOTH",
"655 603 OFFCURVE",
"732 263 OFFCURVE",
"779 0 CURVE"
);
},
{
closed = 1;
nodes = (
"615 0 LINE",
"655 148 OFFCURVE",
"687 233 OFFCURVE",
"736 348 CURVE",
"707 401 LINE",
"699 383 OFFCURVE",
"589 68 OFFCURVE",
"601 94 CURVE",
"606 88 LINE",
"566 330 OFFCURVE",
"368 712 OFFCURVE",
"169 712 CURVE SMOOTH",
"139 712 OFFCURVE",
"120 707 OFFCURVE",
"105 697 CURVE",
"86 663 OFFCURVE",
"31 580 OFFCURVE",
"11 550 CURVE",
"-11 499 OFFCURVE",
"24 422 OFFCURVE",
"74 422 CURVE",
"90 442 OFFCURVE",
"109 478 OFFCURVE",
"131 516 CURVE",
"54 570 OFFCURVE",
"83 616 OFFCURVE",
"117 616 CURVE SMOOTH",
"273 616 OFFCURVE",
"463 263 OFFCURVE",
"510 0 CURVE"
);
}
);
userData = {
com.schriftgestaltung.Glyphs.lastChange = "2019-04-13 17:50:25 +0000";
};
width = 1163;
}
);
unicode = 0057;
},
{
color = 3;
glyphname = X;
layers = (
{
anchors = (
{
name = bottom;
position = "{485, 0}";
},
{
name = top;
position = "{485, 700}";
}
);
layerId = "5FE47517-9953-4891-9518-AB2E2247E448";
paths = (
{
closed = 1;
nodes = (
"218 -143 OFFCURVE",
"380 -18 OFFCURVE",
"429 150 CURVE",
"408 146 LINE",
"429 53 OFFCURVE",
"560 -20 OFFCURVE",
"628 -20 CURVE",
"678 -2 OFFCURVE",
"872 55 OFFCURVE",
"920 81 CURVE",
"909 107 LINE",
"838 84 OFFCURVE",
"793 77 OFFCURVE",
"757 77 CURVE SMOOTH",
"660 77 OFFCURVE",
"506 136 OFFCURVE",
"506 309 CURVE SMOOTH",
"506 433 OFFCURVE",
"556 538 OFFCURVE",
"609 575 CURVE",
"638 555 OFFCURVE",
"670 527 OFFCURVE",
"727 512 CURVE",
"769 538 OFFCURVE",
"858 584 OFFCURVE",
"941 655 CURVE",
"921 687 LINE",
"883 660 OFFCURVE",
"843 630 OFFCURVE",
"798 630 CURVE SMOOTH",
"754 630 OFFCURVE",
"727 698 OFFCURVE",
"714 718 CURVE",
"695 718 OFFCURVE",
"451 513 OFFCURVE",
"436 459 CURVE",
"449 450 LINE",
"434 534 OFFCURVE",
"352 649 OFFCURVE",
"226 651 CURVE SMOOTH",
"147 652 OFFCURVE",
"67 600 OFFCURVE",
"20 538 CURVE",
"36 516 LINE",
"78 545 OFFCURVE",
"108 552 OFFCURVE",
"150 552 CURVE SMOOTH",
"277 552 OFFCURVE",
"344 404 OFFCURVE",
"344 257 CURVE SMOOTH",
"344 81 OFFCURVE",
"252 -62 OFFCURVE",
"128 -175 CURVE",
"145 -209 LINE"
);
}
);
userData = {
com.schriftgestaltung.Glyphs.lastChange = "2019-04-23 08:06:50 +0000";
};
width = 970;
}
);
unicode = 0058;
},
{
color = 3;
glyphname = Y;
layers = (
{
anchors = (
{
name = bottom;
position = "{303, 0}";
},
{
name = top;
position = "{303, 700}";
},
{
name = topleft;
position = "{-29, 700}";
}
);
layerId = "5FE47517-9953-4891-9518-AB2E2247E448";
paths = (
{
closed = 1;
nodes = (
"330 33 OFFCURVE",
"506 311 OFFCURVE",
"602 453 CURVE",
"633 499 OFFCURVE",
"648 547 OFFCURVE",
"648 599 CURVE SMOOTH",
"648 669 OFFCURVE",
"592 718 OFFCURVE",
"523 720 CURVE SMOOTH",
"478 721 OFFCURVE",
"456 713 OFFCURVE",
"435 702 CURVE",
"386 661 OFFCURVE",
"345 608 OFFCURVE",
"300 544 CURVE",
"300 502 LINE",
"340 563 OFFCURVE",
"386 591 OFFCURVE",
"433 591 CURVE SMOOTH",
"485 591 OFFCURVE",
"528 546 OFFCURVE",
"528 487 CURVE SMOOTH",
"528 381 OFFCURVE",
"374 187 OFFCURVE",
"301 65 CURVE",
"316 54 LINE",
"319 517 LINE SMOOTH",
"320 636 OFFCURVE",
"271 721 OFFCURVE",
"150 721 CURVE",
"101 674 OFFCURVE",
"15 565 OFFCURVE",
"5 554 CURVE",
"28 536 LINE",
"45 557 OFFCURVE",
"78 591 OFFCURVE",
"120 591 CURVE SMOOTH",
"165 591 OFFCURVE",
"190 563 OFFCURVE",
"189 517 CURVE SMOOTH",
"183 -6 LINE SMOOTH",
"183 -36 OFFCURVE",
"155 -129 OFFCURVE",
"114 -209 CURVE",
"146 -230 LINE"
);
}
);
userData = {
com.schriftgestaltung.Glyphs.lastChange = "2019-04-23 08:06:48 +0000";
};
width = 655;
}
);
unicode = 0059;
},
{
color = 3;
glyphname = Z;
layers = (
{
anchors = (
{
name = bottom;
position = "{339, 0}";
},
{
name = top;
position = "{339, 700}";
}
);
layerId = "5FE47517-9953-4891-9518-AB2E2247E448";
paths = (
{
closed = 1;
nodes = (
"244 -214 OFFCURVE",
"302 -182 OFFCURVE",
"401 -117 CURVE SMOOTH",
"513 -43 OFFCURVE",
"674 58 OFFCURVE",
"674 192 CURVE SMOOTH",
"674 336 OFFCURVE",
"467 404 OFFCURVE",
"353 402 CURVE",
"357 383 LINE",
"460 466 OFFCURVE",
"564 594 OFFCURVE",
"671 676 CURVE",
"649 704 LINE",
"539 685 OFFCURVE",
"474 676 OFFCURVE",
"421 676 CURVE SMOOTH",
"312 676 OFFCURVE",
"204 716 OFFCURVE",
"153 716 CURVE",
"158 717 OFFCURVE",
"72 660 OFFCURVE",
"28 598 CURVE",
"49 577 LINE",
"85 605 OFFCURVE",
"120 612 OFFCURVE",
"149 612 CURVE SMOOTH",
"206 612 OFFCURVE",
"287 586 OFFCURVE",
"362 586 CURVE SMOOTH",
"406 586 OFFCURVE",
"456 591 OFFCURVE",
"507 600 CURVE",
"395 459 OFFCURVE",
"283 370 OFFCURVE",
"74 273 CURVE",
"93 232 LINE",
"139 253 OFFCURVE",
"238 304 OFFCURVE",
"244 304 CURVE SMOOTH",
"372 304 OFFCURVE",
"526 262 OFFCURVE",
"526 140 CURVE SMOOTH",
"526 71 OFFCURVE",
"486 3 OFFCURVE",
"432 -43 CURVE SMOOTH",
"381 -86 OFFCURVE",
"287 -134 OFFCURVE",
"272 -134 CURVE SMOOTH",
"254 -134 OFFCURVE",
"187 -56 OFFCURVE",
"181 -56 CURVE",
"152 -75 OFFCURVE",
"94 -127 OFFCURVE",
"74 -142 CURVE",
"84 -163 OFFCURVE",
"139 -218 OFFCURVE",
"186 -240 CURVE"
);
}
);
userData = {
com.schriftgestaltung.Glyphs.lastChange = "2019-04-23 08:06:45 +0000";
};
width = 698;
}
);
unicode = 005A;
},
{
color = 4;
glyphname = a;
layers = (
{
anchors = (
{
name = bottom;
position = "{212, 0}";
},
{
name = ogonek;
position = "{376, 2}";
},
{
name = top;
position = "{212, 430}";
}
);
layerId = "5FE47517-9953-4891-9518-AB2E2247E448";
paths = (
{
closed = 1;
nodes = (
"328 -8 OFFCURVE",
"376 24 OFFCURVE",
"398 42 CURVE",
"397 61 LINE",
"376 74 OFFCURVE",
"362 89 OFFCURVE",
"362 124 CURVE SMOOTH",
"362 154 OFFCURVE",
"368 298 OFFCURVE",
"368 328 CURVE SMOOTH",
"368 391 OFFCURVE",
"309 451 OFFCURVE",
"241 451 CURVE",
"194 440 OFFCURVE",
"102 394 OFFCURVE",
"31 350 CURVE",
"47 320 LINE",
"92 349 OFFCURVE",
"137 378 OFFCURVE",
"180 378 CURVE SMOOTH",
"236 378 OFFCURVE",
"259 343 OFFCURVE",
"259 319 CURVE SMOOTH",
"259 286 OFFCURVE",
"258 110 OFFCURVE",
"258 70 CURVE SMOOTH",
"258 42 OFFCURVE",
"270 9 OFFCURVE",
"291 -21 CURVE"
);
},
{
closed = 1;
nodes = (
"143 8 OFFCURVE",
"232 57 OFFCURVE",
"277 78 CURVE",
"302 146 LINE",
"278 124 OFFCURVE",
"238 78 OFFCURVE",
"199 78 CURVE SMOOTH",
"160 78 OFFCURVE",
"131 103 OFFCURVE",
"131 136 CURVE SMOOTH",
"131 171 OFFCURVE",
"206 231 OFFCURVE",
"312 285 CURVE",
"302 335 LINE",
"235 289 OFFCURVE",
"67 155 OFFCURVE",
"5 94 CURVE",
"36 65 OFFCURVE",
"64 17 OFFCURVE",
"91 -20 CURVE"
);
}
);
userData = {
com.schriftgestaltung.Glyphs.lastChange = "2019-04-24 15:12:59 +0000";
};
width = 423;
}
);
unicode = 0061;
},
{
color = 4;
glyphname = a_hook;
layers = (
{
anchors = (
{
name = bottom;
position = "{212, 0}";
},
{
name = ogonek;
position = "{381, 10}";
},
{
name = top;
position = "{212, 430}";
}
);
components = (
{
name = a;
}
);
layerId = "5FE47517-9953-4891-9518-AB2E2247E448";
paths = (
{
closed = 1;
nodes = (
"297 534 OFFCURVE",
"328 553 OFFCURVE",
"348 567 CURVE",
"386 632 OFFCURVE",
"356 700 OFFCURVE",
"293 721 CURVE",
"287 721 LINE",
"189 661 LINE",
"189 642 LINE",
"224 634 OFFCURVE",
"246 619 OFFCURVE",
"246 580 CURVE SMOOTH",
"246 544 OFFCURVE",
"228 516 OFFCURVE",
"198 487 CURVE",
"218 470 LINE"
);
}
);
userData = {
com.schriftgestaltung.Glyphs.ComponentInfo = (
{
alignment = -1;
index = 0;
name = a;
}
);
com.schriftgestaltung.Glyphs.lastChange = "2019-04-13 11:12:37 +0000";
};
width = 423;
}
);
leftMetricsKey = a;
rightMetricsKey = a;
unicode = 1EA3;
},
{
color = 4;
glyphname = a_macr;
layers = (
{
anchors = (
{
name = bottom;
position = "{212, 0}";
},
{
name = ogonek;
position = "{381, 10}";
},
{
name = top;
position = "{212, 430}";
}
);
components = (
{
name = a;
}
);
layerId = "5FE47517-9953-4891-9518-AB2E2247E448";
paths = (
{
closed = 1;
nodes = (
"147 580 OFFCURVE",
"181 553 OFFCURVE",
"304 553 CURVE",
"329 578 OFFCURVE",
"341 602 OFFCURVE",
"366 634 CURVE",
"344 645 LINE",
"330 639 OFFCURVE",
"317 637 OFFCURVE",
"295 637 CURVE SMOOTH",
"272 637 OFFCURVE",
"216 641 OFFCURVE",
"192 641 CURVE",
"168 604 OFFCURVE",
"103 536 OFFCURVE",
"97 514 CURVE",
"116 506 LINE"
);
}
);
userData = {
com.schriftgestaltung.Glyphs.ComponentInfo = (
{
alignment = -1;
index = 0;
name = a;
}
);
com.schriftgestaltung.Glyphs.lastChange = "2019-04-23 12:32:18 +0000";
};
width = 423;
}
);
leftMetricsKey = a;
rightMetricsKey = a;
unicode = 0101;
},
{
color = 4;
glyphname = b;
layers = (
{
anchors = (
{
name = bottom;
position = "{247, 0}";
},
{
name = top;
position = "{247, 430}";
}
);
layerId = "5FE47517-9953-4891-9518-AB2E2247E448";
paths = (
{
closed = 1;
nodes = (
"275 5 OFFCURVE",
"366 55 OFFCURVE",
"413 85 CURVE",
"435 109 OFFCURVE",
"473 150 OFFCURVE",
"473 230 CURVE SMOOTH",
"473 341 OFFCURVE",
"419 450 OFFCURVE",
"305 450 CURVE",
"167 343 LINE",
"168 314 LINE",
"187 325 OFFCURVE",
"213 341 OFFCURVE",
"245 341 CURVE SMOOTH",
"311 341 OFFCURVE",
"359 294 OFFCURVE",
"359 213 CURVE SMOOTH",
"359 141 OFFCURVE",
"332 79 OFFCURVE",
"275 79 CURVE",
"228 79 OFFCURVE",
"173 107 OFFCURVE",
"173 175 CURVE SMOOTH",
"173 221 OFFCURVE",
"169 286 OFFCURVE",
"184 330 CURVE",
"173 340 LINE",
"182 718 LINE",
"174 722 LINE",
"58 670 LINE",
"58 590 OFFCURVE",
"58 555 OFFCURVE",
"58 424 CURVE",
"59 400 OFFCURVE",
"33 370 OFFCURVE",
"10 336 CURVE",
"10 328 LINE",
"33 320 OFFCURVE",
"58 304 OFFCURVE",
"58 270 CURVE",
"58 69 LINE",
"87 45 OFFCURVE",
"133 17 OFFCURVE",
"190 -20 CURVE"
);
}
);
userData = {
com.schriftgestaltung.Glyphs.lastChange = "2019-04-13 12:36:56 +0000";
};
width = 488;
}
);
rightMetricsKey = o;
unicode = 0062;
},
{
color = 4;
glyphname = b_e_macr;
layers = (
{
anchors = (
{
name = bottom_1;
position = "{121, 0}";
},
{
name = bottom_2;
position = "{363, 0}";
},
{
name = bottom_3;
position = "{605, 0}";
},
{
name = caret_1;
position = "{242, 0}";
},
{
name = caret_2;
position = "{484, 0}";
},
{
name = top_1;
position = "{121, 430}";
},
{
name = top_2;
position = "{363, 430}";
},
{
name = top_3;
position = "{605, 430}";
}
);
components = (
{
name = b;
},
{
name = e;
transform = "{1, 0, 0, 1, 349, 0}";
}
);
layerId = "5FE47517-9953-4891-9518-AB2E2247E448";
paths = (
{
closed = 1;
nodes = (
"488 592 OFFCURVE",
"536 579 OFFCURVE",
"642 583 CURVE",
"659 604 OFFCURVE",
"681 647 OFFCURVE",
"704 681 CURVE",
"670 688 LINE",
"654 681 OFFCURVE",
"639 678 OFFCURVE",
"613 676 CURVE SMOOTH",
"586 674 OFFCURVE",
"509 674 OFFCURVE",
"481 672 CURVE",
"464 651 OFFCURVE",
"442 604 OFFCURVE",
"414 570 CURVE",
"444 561 LINE"
);
}
);
userData = {
com.schriftgestaltung.Glyphs.ComponentInfo = (
{
alignment = -1;
index = 0;
name = b;
}
);
com.schriftgestaltung.Glyphs.lastChange = "2019-04-23 12:33:08 +0000";
};
width = 750;
}
);
leftMetricsKey = b;
rightMetricsKey = e;
},
{
color = 4;
glyphname = b_o;
layers = (
{
anchors = (
{
name = bottom_1;
position = "{192, 0}";
},
{
name = bottom_2;
position = "{595, 0}";
},
{
name = caret_1;
position = "{393, 0}";
},
{
name = top_1;
position = "{192, 430}";
},
{
name = top_2;
position = "{595, 430}";
}
);
layerId = "5FE47517-9953-4891-9518-AB2E2247E448";
paths = (
{
closed = 1;
nodes = (
"198 -20 OFFCURVE",
"343 47 OFFCURVE",
"403 85 CURVE SMOOTH",
"425 99 OFFCURVE",
"463 180 OFFCURVE",
"463 260 CURVE SMOOTH",
"463 327 OFFCURVE",
"378 450 OFFCURVE",
"305 450 CURVE SMOOTH",
"295 450 OFFCURVE",
"206 379 OFFCURVE",
"157 343 CURVE",
"158 314 LINE",
"177 325 OFFCURVE",
"203 333 OFFCURVE",
"235 333 CURVE SMOOTH",
"301 333 OFFCURVE",
"359 294 OFFCURVE",
"359 213 CURVE SMOOTH",
"359 141 OFFCURVE",
"315 69 OFFCURVE",
"258 69 CURVE SMOOTH",
"211 69 OFFCURVE",
"168 105 OFFCURVE",
"158 131 CURVE",
"158 177 OFFCURVE",
"159 286 OFFCURVE",
"174 330 CURVE",
"163 340 LINE",
"172 718 LINE",
"164 722 LINE",
"48 670 LINE",
"48 590 OFFCURVE",
"48 545 OFFCURVE",
"48 464 CURVE SMOOTH",
"48 426 OFFCURVE",
"23 370 OFFCURVE",
"10 336 CURVE",
"10 328 LINE",
"23 320 OFFCURVE",
"48 304 OFFCURVE",
"48 270 CURVE SMOOTH",
"48 69 LINE SMOOTH",
"48 52 OFFCURVE",
"169 -20 OFFCURVE",
"180 -20 CURVE SMOOTH"
);
},
{
closed = 1;
nodes = (
"549 70 OFFCURVE",
"476 118 OFFCURVE",
"476 228 CURVE SMOOTH",
"476 272 OFFCURVE",
"485 313 OFFCURVE",
"508 341 CURVE",
"568 351 OFFCURVE",
"677 311 OFFCURVE",
"677 202 CURVE SMOOTH",
"677 142 OFFCURVE",
"658 103 OFFCURVE",
"633 71 CURVE"
);
},
{
closed = 1;
nodes = (
"615 9 OFFCURVE",
"700 54 OFFCURVE",
"735 90 CURVE SMOOTH",
"765 121 OFFCURVE",
"776 204 OFFCURVE",
"776 240 CURVE SMOOTH",
"776 391 OFFCURVE",
"657 440 OFFCURVE",
"594 450 CURVE",
"577 450 OFFCURVE",
"440 333 OFFCURVE",
"412 312 CURVE SMOOTH",
"385 291 OFFCURVE",
"362 253 OFFCURVE",
"362 195 CURVE SMOOTH",
"362 80 OFFCURVE",
"475 -11 OFFCURVE",
"548 -21 CURVE"
);
}
);
userData = {
com.schriftgestaltung.Glyphs.lastChange = "2019-04-13 12:36:56 +0000";
};
width = 791;
}
);
leftMetricsKey = b;
rightMetricsKey = "=o";
},
{
color = 4;
glyphname = b_s;
layers = (
{
components = (
{
name = b;
}
);
layerId = "5FE47517-9953-4891-9518-AB2E2247E448";
paths = (
{
closed = 1;
nodes = (
"605 -10 LINE",
"700 56 OFFCURVE",
"783 196 OFFCURVE",
"783 246 CURVE SMOOTH",
"783 361 OFFCURVE",
"694 451 OFFCURVE",
"589 451 CURVE",
"433 318 LINE",
"452 298 LINE",
"482 318 OFFCURVE",
"533 331 OFFCURVE",
"571 331 CURVE SMOOTH",
"636 331 OFFCURVE",
"696 283 OFFCURVE",
"696 208 CURVE SMOOTH",
"696 143 OFFCURVE",
"666 114 OFFCURVE",
"630 89 CURVE",
"482 99 LINE",
"440 9 LINE",
"445 0 LINE",
"497 2 OFFCURVE",
"548 -2 OFFCURVE",
"600 -10 CURVE"
);
}
);
userData = {
com.schriftgestaltung.Glyphs.lastChange = "2019-04-13 12:36:56 +0000";
};
width = 798;
}
);
leftMetricsKey = b;
rightMetricsKey = o;
},
{
color = 4;
glyphname = c;
layers = (
{
anchors = (
{
name = bottom;
position = "{186, 0}";
},
{
name = top;
position = "{186, 430}";
}
);
layerId = "5FE47517-9953-4891-9518-AB2E2247E448";
paths = (
{
closed = 1;
nodes = (
"195 -20 OFFCURVE",
"287 38 OFFCURVE",
"346 78 CURVE",
"346 103 LINE",
"312 97 OFFCURVE",
"249 82 OFFCURVE",
"213 97 CURVE SMOOTH",
"174 113 OFFCURVE",
"160 172 OFFCURVE",
"160 272 CURVE SMOOTH",
"160 299 OFFCURVE",
"165 340 OFFCURVE",
"169 360 CURVE",
"214 354 OFFCURVE",
"239 317 OFFCURVE",
"245 317 CURVE SMOOTH",
"250 317 OFFCURVE",
"316 360 OFFCURVE",
"352 381 CURVE",
"352 396 LINE",
"277 410 OFFCURVE",
"269 451 OFFCURVE",
"253 451 CURVE SMOOTH",
"231 451 OFFCURVE",
"84 356 OFFCURVE",
"65 341 CURVE SMOOTH",
"52 330 OFFCURVE",
"35 224 OFFCURVE",
"35 125 CURVE SMOOTH",
"35 91 OFFCURVE",
"119 -20 OFFCURVE",
"170 -20 CURVE SMOOTH"
);
}
);
userData = {
com.schriftgestaltung.Glyphs.lastChange = "2019-01-14 09:27:42 +0000";
};
width = 367;
}
);
unicode = 0063;
},
{
color = 4;
glyphname = c_hook;
layers = (
{
anchors = (
{
name = bottom;
position = "{171, 0}";
},
{
name = top;
position = "{171, 430}";
}
);
components = (
{
name = c;
}
);
layerId = "5FE47517-9953-4891-9518-AB2E2247E448";
paths = (
{
closed = 1;
nodes = (
"276 550 OFFCURVE",
"368 629 OFFCURVE",
"368 643 CURVE SMOOTH",
"368 685 OFFCURVE",
"344 717 OFFCURVE",
"286 725 CURVE",
"280 725 LINE",
"197 668 LINE",
"197 663 LINE",
"231 646 OFFCURVE",
"262 636 OFFCURVE",
"262 599 CURVE SMOOTH",
"262 565 OFFCURVE",
"216 528 OFFCURVE",
"188 500 CURVE",
"210 480 LINE"
);
}
);
userData = {
com.schriftgestaltung.Glyphs.ComponentInfo = (
{
alignment = -1;
index = 0;
name = c;
}
);
com.schriftgestaltung.Glyphs.lastChange = "2019-04-23 12:31:58 +0000";
};
width = 383;
}
);
rightMetricsKey = c;
},
{
color = 4;
glyphname = c_macr;
layers = (
{
anchors = (
{
name = bottom;
position = "{189, 0}";
},
{
name = top;
position = "{189, 430}";
}
);
components = (
{
name = c;
}
);
layerId = "5FE47517-9953-4891-9518-AB2E2247E448";
paths = (
{
closed = 1;
nodes = (
"114 581 OFFCURVE",
"150 597 OFFCURVE",
"176 598 CURVE SMOOTH",
"203 599 OFFCURVE",
"273 598 OFFCURVE",
"302 600 CURVE",
"317 611 OFFCURVE",
"354 664 OFFCURVE",
"381 698 CURVE",
"347 705 LINE",
"331 698 OFFCURVE",
"316 695 OFFCURVE",
"290 693 CURVE SMOOTH",
"263 691 OFFCURVE",
"196 691 OFFCURVE",
"168 689 CURVE",
"154 678 OFFCURVE",
"94 611 OFFCURVE",
"66 577 CURVE",
"96 568 LINE"
);
}
);
userData = {
com.schriftgestaltung.Glyphs.ComponentInfo = (
{
alignment = -1;
index = 0;
name = c;
}
);
com.schriftgestaltung.Glyphs.lastChange = "2019-04-23 12:31:53 +0000";
};
width = 396;
}
);
leftMetricsKey = c;
rightMetricsKey = c;
},
{
color = 4;
glyphname = c_a;
layers = (
{
anchors = (
{
name = bottom_1;
position = "{186, 0}";
},
{
name = bottom_2;
position = "{529, 0}";
},
{
name = caret_1;
position = "{358, 0}";
},
{
name = top_1;
position = "{186, 430}";
},
{
name = top_2;
position = "{529, 430}";
}
);
layerId = "5FE47517-9953-4891-9518-AB2E2247E448";
paths = (
{
closed = 1;
nodes = (
"610 -21 OFFCURVE",
"653 12 OFFCURVE",
"685 33 CURVE",
"684 52 LINE",
"653 65 OFFCURVE",
"639 89 OFFCURVE",
"639 124 CURVE SMOOTH",
"639 154 OFFCURVE",
"644 298 OFFCURVE",
"644 328 CURVE SMOOTH",
"644 391 OFFCURVE",
"586 451 OFFCURVE",
"518 451 CURVE SMOOTH",
"471 451 OFFCURVE",
"339 396 OFFCURVE",
"278 357 CURVE",
"295 334 LINE",
"350 372 OFFCURVE",
"412 387 OFFCURVE",
"455 387 CURVE SMOOTH",
"511 387 OFFCURVE",
"536 343 OFFCURVE",
"536 309 CURVE SMOOTH",
"536 266 OFFCURVE",
"535 81 OFFCURVE",
"535 41 CURVE SMOOTH",
"535 13 OFFCURVE",
"558 -21 OFFCURVE",
"593 -21 CURVE SMOOTH"
);
},
{
closed = 1;
nodes = (
"195 -20 OFFCURVE",
"307 77 OFFCURVE",
"366 121 CURVE",
"366 170 LINE",
"332 144 OFFCURVE",
"283 94 OFFCURVE",
"245 94 CURVE SMOOTH",
"173 94 OFFCURVE",
"154 165 OFFCURVE",
"154 225 CURVE SMOOTH",
"154 292 OFFCURVE",
"165 340 OFFCURVE",
"169 360 CURVE",
"234 354 OFFCURVE",
"259 317 OFFCURVE",
"265 317 CURVE SMOOTH",
"270 317 OFFCURVE",
"336 360 OFFCURVE",
"372 381 CURVE",
"372 396 LINE",
"297 410 OFFCURVE",
"289 451 OFFCURVE",
"273 451 CURVE SMOOTH",
"251 451 OFFCURVE",
"83 357 OFFCURVE",
"65 341 CURVE SMOOTH",
"52 330 OFFCURVE",
"35 224 OFFCURVE",
"35 125 CURVE SMOOTH",
"35 91 OFFCURVE",
"119 -20 OFFCURVE",
"170 -20 CURVE SMOOTH"
);
},
{
closed = 1;
nodes = (
"420 -20 OFFCURVE",
"472 31 OFFCURVE",
"513 64 CURVE",
"557 48 LINE",
"579 87 LINE",
"579 135 LINE",
"555 121 OFFCURVE",
"483 65 OFFCURVE",
"470 65 CURVE SMOOTH",
"448 65 OFFCURVE",
"404 122 OFFCURVE",
"404 145 CURVE SMOOTH",
"404 162 OFFCURVE",
"512 241 OFFCURVE",
"590 287 CURVE",
"579 348 LINE",
"512 272 OFFCURVE",
"287 122 OFFCURVE",
"287 93 CURVE SMOOTH",
"287 68 OFFCURVE",
"356 -20 OFFCURVE",
"388 -20 CURVE SMOOTH"
);
}
);
userData = {
com.schriftgestaltung.Glyphs.lastChange = "2019-04-23 12:32:06 +0000";
};
width = 710;
}
);
leftMetricsKey = c;
rightMetricsKey = a;
},
{
color = 4;
glyphname = c_a_macr;
layers = (
{
anchors = (
{
name = bottom_1;
position = "{114, 0}";
},
{
name = bottom_2;
position = "{343, 0}";
},
{
name = bottom_3;
position = "{571, 0}";
},
{
name = caret_1;
position = "{228.333, 0}";
},
{
name = caret_2;
position = "{456.667, 0}";
},
{
name = top_1;
position = "{114, 430}";
},
{
name = top_2;
position = "{343, 430}";
},
{
name = top_3;
position = "{571, 430}";
}
);
components = (
{
name = c_a;
}
);
layerId = "5FE47517-9953-4891-9518-AB2E2247E448";
paths = (
{
closed = 1;
nodes = (
"428 609 OFFCURVE",
"456 596 OFFCURVE",
"562 600 CURVE",
"579 621 OFFCURVE",
"601 664 OFFCURVE",
"624 698 CURVE",
"590 705 LINE",
"574 698 OFFCURVE",
"559 695 OFFCURVE",
"533 693 CURVE SMOOTH",
"506 691 OFFCURVE",
"449 691 OFFCURVE",
"421 689 CURVE",
"404 668 OFFCURVE",
"382 621 OFFCURVE",
"354 587 CURVE",
"384 578 LINE"
);
}
);
userData = {
com.schriftgestaltung.Glyphs.ComponentInfo = (
{
alignment = -1;
index = 0;
name = c_a;
}
);
com.schriftgestaltung.Glyphs.lastChange = "2019-04-23 12:29:34 +0000";
};
width = 710;
}
);
leftMetricsKey = c;
rightMetricsKey = a;
},
{
color = 4;
glyphname = c_e;
layers = (
{
anchors = (
{
name = bottom_1;
position = "{190, 0}";
},
{
name = bottom_2;
position = "{539, 0}";
},
{
name = caret_1;
position = "{365, 0}";
},
{
name = top_1;
position = "{190, 430}";
},
{
name = top_2;
position = "{539, 430}";
}
);
layerId = "5FE47517-9953-4891-9518-AB2E2247E448";
paths = (
{
closed = 1;
nodes = (
"195 -20 OFFCURVE",
"307 43 OFFCURVE",
"366 83 CURVE",
"366 113 LINE",
"332 97 OFFCURVE",
"303 74 OFFCURVE",
"245 74 CURVE SMOOTH",
"173 74 OFFCURVE",
"154 165 OFFCURVE",
"154 225 CURVE SMOOTH",
"154 292 OFFCURVE",
"178 340 OFFCURVE",
"189 360 CURVE",
"244 354 OFFCURVE",
"269 307 OFFCURVE",
"275 307 CURVE SMOOTH",
"280 307 OFFCURVE",
"366 340 OFFCURVE",
"402 361 CURVE",
"402 376 LINE",
"331 394 OFFCURVE",
"289 451 OFFCURVE",
"273 451 CURVE SMOOTH",
"251 451 OFFCURVE",
"93 357 OFFCURVE",
"75 341 CURVE SMOOTH",
"62 330 OFFCURVE",
"35 238 OFFCURVE",
"35 125 CURVE SMOOTH",
"35 91 OFFCURVE",
"119 -20 OFFCURVE",
"170 -20 CURVE SMOOTH"
);
},
{
closed = 1;
nodes = (
"541 -20 OFFCURVE",
"638 26 OFFCURVE",
"689 52 CURVE",
"686 82 LINE",
"666 78 OFFCURVE",
"613 73 OFFCURVE",
"594 74 CURVE SMOOTH",
"482 81 OFFCURVE",
"467 163 OFFCURVE",
"467 253 CURVE SMOOTH",
"467 296 OFFCURVE",
"472 367 OFFCURVE",
"509 367 CURVE SMOOTH",
"555 367 OFFCURVE",
"579 316 OFFCURVE",
"579 292 CURVE SMOOTH",
"579 238 OFFCURVE",
"506 180 OFFCURVE",
"450 150 CURVE",
"455 103 LINE",
"525 155 OFFCURVE",
"709 312 OFFCURVE",
"709 326 CURVE SMOOTH",
"709 346 OFFCURVE",
"630 450 OFFCURVE",
"599 450 CURVE SMOOTH",
"571 450 OFFCURVE",
"406 392 OFFCURVE",
"385 372 CURVE SMOOTH",
"368 356 OFFCURVE",
"347 274 OFFCURVE",
"347 172 CURVE SMOOTH",
"347 73 OFFCURVE",
"406 -20 OFFCURVE",
"505 -20 CURVE SMOOTH"
);
}
);
userData = {
com.schriftgestaltung.Glyphs.lastChange = "2019-01-14 10:49:22 +0000";
};
width = 719;
}
);
leftMetricsKey = c;
rightMetricsKey = "=e";
},
{
color = 4;
glyphname = c_e_macr;
layers = (
{
anchors = (
{
name = bottom_1;
position = "{120, 0}";
},
{
name = bottom_2;
position = "{360, 0}";
},
{
name = bottom_3;
position = "{599, 0}";
},
{
name = caret_1;
position = "{239.667, 0}";
},
{
name = caret_2;
position = "{479.333, 0}";
},
{
name = top_1;
position = "{120, 430}";
},
{
name = top_2;
position = "{360, 430}";
},
{
name = top_3;
position = "{599, 430}";
}
);
components = (
{
name = c_e;
}
);
layerId = "5FE47517-9953-4891-9518-AB2E2247E448";
paths = (
{
closed = 1;
nodes = (
"468 592 OFFCURVE",
"516 579 OFFCURVE",
"622 583 CURVE",
"639 604 OFFCURVE",
"661 647 OFFCURVE",
"684 681 CURVE",
"650 688 LINE",
"634 681 OFFCURVE",
"619 678 OFFCURVE",
"593 676 CURVE SMOOTH",
"566 674 OFFCURVE",
"489 674 OFFCURVE",
"461 672 CURVE",
"444 651 OFFCURVE",
"422 604 OFFCURVE",
"394 570 CURVE",
"424 561 LINE"
);
}
);
userData = {
com.schriftgestaltung.Glyphs.ComponentInfo = (
{
alignment = -1;
index = 0;
name = c_e;
}
);
com.schriftgestaltung.Glyphs.lastChange = "2019-04-23 12:30:30 +0000";
};
width = 719;
}
);
leftMetricsKey = c;
rightMetricsKey = e;
},
{
color = 4;
glyphname = c_i;
layers = (
{
anchors = (
{
name = bottom_1;
position = "{148, 0}";
},
{
name = bottom_2;
position = "{415, 0}";
},
{
name = caret_1;
position = "{282, 0}";
},
{
name = top_1;
position = "{148, 430}";
},
{
name = top_2;
position = "{415, 430}";
}
);
layerId = "5FE47517-9953-4891-9518-AB2E2247E448";
paths = (
{
closed = 1;
nodes = (
"195 -20 OFFCURVE",
"327 43 OFFCURVE",
"386 83 CURVE",
"386 113 LINE",
"352 97 OFFCURVE",
"303 74 OFFCURVE",
"245 74 CURVE SMOOTH",
"173 74 OFFCURVE",
"154 165 OFFCURVE",
"154 225 CURVE SMOOTH",
"154 292 OFFCURVE",
"165 340 OFFCURVE",
"169 360 CURVE",
"234 354 OFFCURVE",
"259 317 OFFCURVE",
"265 317 CURVE SMOOTH",
"270 317 OFFCURVE",
"336 360 OFFCURVE",
"372 381 CURVE",
"372 396 LINE",
"297 410 OFFCURVE",
"289 451 OFFCURVE",
"273 451 CURVE SMOOTH",
"251 451 OFFCURVE",
"83 357 OFFCURVE",
"65 341 CURVE SMOOTH",
"52 330 OFFCURVE",
"35 224 OFFCURVE",
"35 125 CURVE SMOOTH",
"35 91 OFFCURVE",
"119 -20 OFFCURVE",
"170 -20 CURVE SMOOTH"
);
},
{
closed = 1;
nodes = (
"445 -20 OFFCURVE",
"485 16 OFFCURVE",
"513 35 CURVE",
"513 54 LINE",
"482 68 OFFCURVE",
"479 80 OFFCURVE",
"478 97 CURVE",
"477 178 OFFCURVE",
"477 243 OFFCURVE",
"478 312 CURVE SMOOTH",
"479 370 OFFCURVE",
"482 413 OFFCURVE",
"487 442 CURVE",
"471 452 LINE",
"432 428 OFFCURVE",
"391 406 OFFCURVE",
"358 389 CURVE",
"371 321 OFFCURVE",
"363 108 OFFCURVE",
"363 85 CURVE SMOOTH",
"363 2 OFFCURVE",
"408 -20 OFFCURVE",
"432 -20 CURVE SMOOTH"
);
},
{
closed = 1;
nodes = (
"451 550 LINE",
"528 714 LINE",
"528 717 LINE",
"490 733 LINE",
"487 732 LINE",
"441 588 LINE",
"448 550 LINE"
);
}
);
userData = {
com.schriftgestaltung.Glyphs.lastChange = "2019-03-28 15:56:55 +0000";
};
width = 543;
}
);
leftMetricsKey = c;
},
{
color = 4;
glyphname = c_o;
layers = (
{
anchors = (
{
name = bottom_1;
position = "{200, 0}";
},
{
name = bottom_2;
position = "{569, 0}";
},
{
name = caret_1;
position = "{384, 0}";
},
{
name = top_1;
position = "{200, 430}";
},
{
name = top_2;
position = "{569, 430}";
}
);
layerId = "5FE47517-9953-4891-9518-AB2E2247E448";
paths = (
{
closed = 1;
nodes = (
"534 -21 OFFCURVE",
"657 64 OFFCURVE",
"692 100 CURVE SMOOTH",
"722 131 OFFCURVE",
"733 194 OFFCURVE",
"733 230 CURVE SMOOTH",
"733 361 OFFCURVE",
"625 450 OFFCURVE",
"561 450 CURVE SMOOTH",
"524 450 OFFCURVE",
"399 361 OFFCURVE",
"371 340 CURVE SMOOTH",
"344 319 OFFCURVE",
"320 253 OFFCURVE",
"320 195 CURVE SMOOTH",
"320 80 OFFCURVE",
"402 -21 OFFCURVE",
"495 -21 CURVE SMOOTH"
);
},
{
closed = 1;
nodes = (
"195 -20 OFFCURVE",
"307 43 OFFCURVE",
"366 83 CURVE",
"366 113 LINE",
"332 97 OFFCURVE",
"303 74 OFFCURVE",
"245 74 CURVE SMOOTH",
"173 74 OFFCURVE",
"154 165 OFFCURVE",
"154 225 CURVE SMOOTH",
"154 292 OFFCURVE",
"178 340 OFFCURVE",
"189 360 CURVE",
"244 354 OFFCURVE",
"289 307 OFFCURVE",
"295 307 CURVE SMOOTH",
"300 307 OFFCURVE",
"386 340 OFFCURVE",
"442 361 CURVE",
"442 376 LINE",
"344 384 OFFCURVE",
"289 451 OFFCURVE",
"273 451 CURVE SMOOTH",
"251 451 OFFCURVE",
"93 357 OFFCURVE",
"75 341 CURVE SMOOTH",
"62 330 OFFCURVE",
"35 238 OFFCURVE",
"35 125 CURVE SMOOTH",
"35 91 OFFCURVE",
"119 -20 OFFCURVE",
"170 -20 CURVE SMOOTH"
);
},
{
closed = 1;
nodes = (
"554 60 OFFCURVE",
"422 90 OFFCURVE",
"422 247 CURVE SMOOTH",
"422 311 OFFCURVE",
"455 351 OFFCURVE",
"478 355 CURVE SMOOTH",
"524 362 OFFCURVE",
"622 318 OFFCURVE",
"622 183 CURVE SMOOTH",
"622 124 OFFCURVE",
"599 76 OFFCURVE",
"577 68 CURVE SMOOTH"
);
}
);
userData = {
com.schriftgestaltung.Glyphs.lastChange = "2019-04-13 12:36:56 +0000";
};
width = 748;
}
);
leftMetricsKey = c;
rightMetricsKey = o;
},
{
color = 4;
glyphname = c_o_macr;
layers = (
{
anchors = (
{
name = bottom_1;
position = "{123, 0}";
},
{
name = bottom_2;
position = "{369, 0}";
},
{
name = bottom_3;
position = "{615, 0}";
},
{
name = caret_1;
position = "{246, 0}";
},
{
name = caret_2;
position = "{492, 0}";
},
{
name = top_1;
position = "{123, 430}";
},
{
name = top_2;
position = "{369, 430}";
},
{
name = top_3;
position = "{615, 430}";
}
);
components = (
{
name = c_o;
}
);
layerId = "5FE47517-9953-4891-9518-AB2E2247E448";
paths = (
{
closed = 1;
nodes = (
"468 609 OFFCURVE",
"516 596 OFFCURVE",
"622 600 CURVE",
"639 621 OFFCURVE",
"661 664 OFFCURVE",
"684 698 CURVE",
"650 705 LINE",
"634 698 OFFCURVE",
"619 695 OFFCURVE",
"593 693 CURVE SMOOTH",
"566 691 OFFCURVE",
"489 691 OFFCURVE",
"461 689 CURVE",
"444 668 OFFCURVE",
"422 621 OFFCURVE",
"394 587 CURVE",
"424 578 LINE"
);
}
);
userData = {
com.schriftgestaltung.Glyphs.ComponentInfo = (
{
alignment = -1;
index = 0;
name = c_o;
}
);
com.schriftgestaltung.Glyphs.lastChange = "2019-04-23 12:30:03 +0000";
};
width = 748;
}
);
rightMetricsKey = o;
},
{
color = 4;
glyphname = c_r;
layers = (
{
anchors = (
{
name = bottom_1;
position = "{156, 0}";
},
{
name = bottom_2;
position = "{468, 0}";
},
{
name = caret_1;
position = "{312, 0}";
},
{
name = top_1;
position = "{156, 430}";
},
{
name = top_2;
position = "{468, 430}";
}
);
components = (
{
name = c;
}
);
layerId = "5FE47517-9953-4891-9518-AB2E2247E448";
paths = (
{
closed = 1;
nodes = (
"494 0 LINE",
"490 102 OFFCURVE",
"489 200 OFFCURVE",
"490 302 CURVE",
"490 334 LINE",
"490 348 LINE SMOOTH",
"490 387 OFFCURVE",
"436 430 OFFCURVE",
"382 450 CURVE SMOOTH",
"375 453 OFFCURVE",
"332 414 OFFCURVE",
"298 384 CURVE",
"298 359 LINE",
"331 359 OFFCURVE",
"375 336 OFFCURVE",
"375 278 CURVE SMOOTH",
"375 -5 LINE",
"379 -7 LINE"
);
},
{
closed = 1;
nodes = (
"558 305 OFFCURVE",
"644 376 OFFCURVE",
"644 380 CURVE SMOOTH",
"644 389 OFFCURVE",
"576 455 OFFCURVE",
"570 450 CURVE SMOOTH",
"543 427 OFFCURVE",
"508 390 OFFCURVE",
"483 367 CURVE",
"490 328 LINE",
"495 332 OFFCURVE",
"507 339 OFFCURVE",
"510 339 CURVE SMOOTH",
"512 339 OFFCURVE",
"548 305 OFFCURVE",
"552 305 CURVE SMOOTH"
);
}
);
userData = {
com.schriftgestaltung.Glyphs.ComponentInfo = (
{
alignment = -1;
index = 0;
name = c;
}
);
com.schriftgestaltung.Glyphs.lastChange = "2019-03-28 15:56:55 +0000";
};
width = 644;
}
);
leftMetricsKey = c;
rightMetricsKey = "=r";
},
{
color = 4;
glyphname = c_t;
layers = (
{
anchors = (
{
name = bottom_1;
position = "{124, 0}";
},
{
name = bottom_2;
position = "{443, 0}";
},
{
name = caret_1;
position = "{283, 0}";
},
{
name = top_1;
position = "{124, 430}";
},
{
name = top_2;
position = "{443, 430}";
}
);
layerId = "5FE47517-9953-4891-9518-AB2E2247E448";
paths = (
{
closed = 1;
nodes = (
"157 -20 OFFCURVE",
"268 11 OFFCURVE",
"352 65 CURVE",
"357 30 OFFCURVE",
"423 -20 OFFCURVE",
"452 -20 CURVE SMOOTH",
"488 -20 OFFCURVE",
"532 35 OFFCURVE",
"574 70 CURVE",
"573 93 LINE",
"519 84 OFFCURVE",
"477 93 OFFCURVE",
"473 131 CURVE SMOOTH",
"466 201 OFFCURVE",
"466 272 OFFCURVE",
"471 342 CURVE",
"602 341 LINE",
"602 430 LINE",
"472 430 LINE",
"470 549 LINE SMOOTH",
"469 609 OFFCURVE",
"442 660 OFFCURVE",
"378 660 CURVE SMOOTH",
"321 660 OFFCURVE",
"190 605 OFFCURVE",
"86 538 CURVE",
"93 510 LINE",
"163 559 OFFCURVE",
"227 577 OFFCURVE",
"277 577 CURVE SMOOTH",
"325 577 OFFCURVE",
"361 551 OFFCURVE",
"360 497 CURVE SMOOTH",
"359 404 LINE SMOOTH",
"359 391 OFFCURVE",
"339 372 OFFCURVE",
"325 372 CURVE SMOOTH",
"268 372 OFFCURVE",
"248 451 OFFCURVE",
"232 451 CURVE SMOOTH",
"210 451 OFFCURVE",
"63 356 OFFCURVE",
"44 341 CURVE SMOOTH",
"31 330 OFFCURVE",
"14 224 OFFCURVE",
"14 125 CURVE SMOOTH",
"14 91 OFFCURVE",
"98 -20 OFFCURVE",
"149 -20 CURVE SMOOTH"
);
},
{
closed = 1;
nodes = (
"153 113 OFFCURVE",
"139 165 OFFCURVE",
"139 265 CURVE SMOOTH",
"139 292 OFFCURVE",
"144 333 OFFCURVE",
"148 353 CURVE",
"193 347 OFFCURVE",
"212 299 OFFCURVE",
"218 299 CURVE SMOOTH",
"226 299 OFFCURVE",
"326 347 OFFCURVE",
"339 347 CURVE SMOOTH",
"352 347 OFFCURVE",
"357 340 OFFCURVE",
"358 330 CURVE SMOOTH",
"361 274 OFFCURVE",
"360 193 OFFCURVE",
"354 97 CURVE",
"281 82 OFFCURVE",
"222 84 OFFCURVE",
"192 97 CURVE SMOOTH"
);
}
);
userData = {
com.schriftgestaltung.Glyphs.lastChange = "2019-04-13 12:36:56 +0000";
};
width = 602;
}
);
leftMetricsKey = o;
rightMetricsKey = t;
unicode = EEC5;
},
{
color = 4;
glyphname = c_u;
layers = (
{
anchors = (
{
name = bottom_1;
position = "{202, 0}";
},
{
name = bottom_2;
position = "{576, 0}";
},
{
name = caret_1;
position = "{389, 0}";
},
{
name = top_1;
position = "{202, 430}";
},
{
name = top_2;
position = "{576, 430}";
}
);
layerId = "5FE47517-9953-4891-9518-AB2E2247E448";
paths = (
{
closed = 1;
nodes = (
"471 -24 OFFCURVE",
"542 43 OFFCURVE",
"585 62 CURVE",
"588 49 LINE SMOOTH",
"596 16 OFFCURVE",
"621 -20 OFFCURVE",
"660 -20 CURVE SMOOTH",
"681 -20 OFFCURVE",
"743 41 OFFCURVE",
"758 58 CURVE",
"756 81 LINE",
"726 80 OFFCURVE",
"696 88 OFFCURVE",
"695 124 CURVE SMOOTH",
"692 220 OFFCURVE",
"693 343 OFFCURVE",
"699 450 CURVE",
"693 452 LINE",
"574 396 LINE",
"583 313 OFFCURVE",
"580 187 OFFCURVE",
"580 104 CURVE",
"564 90 OFFCURVE",
"543 73 OFFCURVE",
"518 73 CURVE SMOOTH",
"484 73 OFFCURVE",
"471 103 OFFCURVE",
"471 134 CURVE SMOOTH",
"471 239 OFFCURVE",
"467 345 OFFCURVE",
"471 450 CURVE",
"465 452 LINE",
"339 395 LINE",
"369 290 OFFCURVE",
"359 170 OFFCURVE",
"359 65 CURVE SMOOTH",
"359 28 OFFCURVE",
"374 -24 OFFCURVE",
"425 -24 CURVE SMOOTH"
);
},
{
closed = 1;
nodes = (
"195 -20 OFFCURVE",
"327 43 OFFCURVE",
"386 83 CURVE",
"386 113 LINE",
"352 97 OFFCURVE",
"303 74 OFFCURVE",
"245 74 CURVE SMOOTH",
"173 74 OFFCURVE",
"154 165 OFFCURVE",
"154 225 CURVE SMOOTH",
"154 292 OFFCURVE",
"165 340 OFFCURVE",
"169 360 CURVE",
"234 354 OFFCURVE",
"259 317 OFFCURVE",
"265 317 CURVE SMOOTH",
"270 317 OFFCURVE",
"336 360 OFFCURVE",
"372 381 CURVE",
"372 396 LINE",
"297 410 OFFCURVE",
"289 451 OFFCURVE",
"273 451 CURVE SMOOTH",
"251 451 OFFCURVE",
"83 357 OFFCURVE",
"65 341 CURVE SMOOTH",
"52 330 OFFCURVE",
"35 224 OFFCURVE",
"35 125 CURVE SMOOTH",
"35 91 OFFCURVE",
"119 -20 OFFCURVE",
"170 -20 CURVE SMOOTH"
);
}
);
userData = {
com.schriftgestaltung.Glyphs.lastChange = "2019-01-14 10:49:22 +0000";
};
width = 763;
}
);
leftMetricsKey = c;
rightMetricsKey = u;
},
{
color = 4;
glyphname = c_u_macr;
layers = (
{
anchors = (
{
name = bottom_1;
position = "{125, 0}";
},
{
name = bottom_2;
position = "{374, 0}";
},
{
name = bottom_3;
position = "{623, 0}";
},
{
name = caret_1;
position = "{249.333, 0}";
},
{
name = caret_2;
position = "{498.667, 0}";
},
{
name = top_1;
position = "{125, 430}";
},
{
name = top_2;
position = "{374, 430}";
},
{
name = top_3;
position = "{623, 430}";
}
);
components = (
{
name = c_u;
}
);
layerId = "5FE47517-9953-4891-9518-AB2E2247E448";
paths = (
{
closed = 1;
nodes = (
"451 609 OFFCURVE",
"499 596 OFFCURVE",
"622 600 CURVE",
"639 621 OFFCURVE",
"661 664 OFFCURVE",
"684 698 CURVE",
"650 705 LINE",
"634 698 OFFCURVE",
"619 695 OFFCURVE",
"593 693 CURVE SMOOTH",
"566 691 OFFCURVE",
"472 691 OFFCURVE",
"444 689 CURVE",
"427 668 OFFCURVE",
"405 621 OFFCURVE",
"377 587 CURVE",
"407 578 LINE"
);
}
);
userData = {
com.schriftgestaltung.Glyphs.ComponentInfo = (
{
alignment = -1;
index = 0;
name = c_u;
}
);
com.schriftgestaltung.Glyphs.lastChange = "2019-04-23 12:31:13 +0000";
};
width = 748;
}
);
},
{
color = 4;
glyphname = d;
layers = (
{
anchors = (
{
name = bottom;
position = "{247, 0}";
},
{
name = center;
position = "{247, 215}";
},
{
name = top;
position = "{247, 430}";
},
{
name = topright;
position = "{474, 430}";
}
);
layerId = "5FE47517-9953-4891-9518-AB2E2247E448";
paths = (
{
closed = 1;
nodes = (
"242 10 OFFCURVE",
"298 48 OFFCURVE",
"347 77 CURVE",
"347 167 LINE",
"325 107 OFFCURVE",
"285 76 OFFCURVE",
"242 76 CURVE SMOOTH",
"188 76 OFFCURVE",
"131 118 OFFCURVE",
"131 198 CURVE SMOOTH",
"131 277 OFFCURVE",
"181 332 OFFCURVE",
"243 332 CURVE SMOOTH",
"275 332 OFFCURVE",
"341 319 OFFCURVE",
"345 229 CURVE",
"353 447 LINE",
"88 312 LINE SMOOTH",
"45 290 OFFCURVE",
"14 252 OFFCURVE",
"14 168 CURVE SMOOTH",
"14 73 OFFCURVE",
"70 -10 OFFCURVE",
"191 -20 CURVE"
);
},
{
closed = 1;
nodes = (
"426 -19 OFFCURVE",
"462 31 OFFCURVE",
"489 53 CURVE",
"489 70 LINE",
"455 75 OFFCURVE",
"445 92 OFFCURVE",
"445 127 CURVE SMOOTH",
"445 342 OFFCURVE",
"448 592 OFFCURVE",
"455 714 CURVE",
"449 719 LINE",
"277 640 LINE",
"286 619 LINE",
"305 627 LINE",
"341 603 OFFCURVE",
"342 559 OFFCURVE",
"346 447 CURVE SMOOTH",
"347 423 OFFCURVE",
"346 310 OFFCURVE",
"343 69 CURVE SMOOTH",
"342 24 OFFCURVE",
"365 -19 OFFCURVE",
"411 -19 CURVE SMOOTH"
);
},
{
closed = 0;
nodes = (
"449 719 LINE"
);
}
);
userData = {
com.schriftgestaltung.Glyphs.lastChange = "2019-04-13 12:36:56 +0000";
};
width = 504;
}
);
leftMetricsKey = o;
unicode = 0064;
},
{
color = 4;
glyphname = d.ss01;
layers = (
{
anchors = (
{
name = bottom;
position = "{256, 0}";
},
{
name = center;
position = "{256, 215}";
},
{
name = top;
position = "{256, 430}";
},
{
name = topright;
position = "{491, 430}";
}
);
layerId = "5FE47517-9953-4891-9518-AB2E2247E448";
paths = (
{
closed = 1;
nodes = (
"264 -19 OFFCURVE",
"426 80 OFFCURVE",
"461 130 CURVE SMOOTH",
"486 166 OFFCURVE",
"502 339 OFFCURVE",
"482 386 CURVE SMOOTH",
"457 444 OFFCURVE",
"281 473 OFFCURVE",
"178 496 CURVE SMOOTH",
"133 506 OFFCURVE",
"145 538 OFFCURVE",
"179 571 CURVE",
"164 585 LINE",
"121 554 OFFCURVE",
"20 499 OFFCURVE",
"20 460 CURVE SMOOTH",
"20 370 OFFCURVE",
"327 368 OFFCURVE",
"364 316 CURVE SMOOTH",
"379 295 OFFCURVE",
"355 107 OFFCURVE",
"308 73 CURVE SMOOTH",
"301 68 OFFCURVE",
"271 69 OFFCURVE",
"255 75 CURVE SMOOTH",
"209 92 OFFCURVE",
"168 167 OFFCURVE",
"168 240 CURVE SMOOTH",
"168 310 OFFCURVE",
"188 347 OFFCURVE",
"215 375 CURVE",
"174 380 LINE",
"96 338 OFFCURVE",
"42 268 OFFCURVE",
"42 231 CURVE SMOOTH",
"42 96 OFFCURVE",
"145 -19 OFFCURVE",
"205 -19 CURVE SMOOTH"
);
}
);
userData = {
com.schriftgestaltung.Glyphs.lastChange = "2019-01-07 10:00:03 +0000";
};
width = 511;
}
);
},
{
color = 4;
glyphname = d_strok;
layers = (
{
anchors = (
{
name = bottom;
position = "{256, 0}";
},
{
name = center;
position = "{256, 215}";
},
{
name = top;
position = "{256, 430}";
},
{
name = topright;
position = "{491, 430}";
}
);
components = (
{
name = d.ss01;
}
);
layerId = "5FE47517-9953-4891-9518-AB2E2247E448";
paths = (
{
closed = 1;
nodes = (
"356 500 OFFCURVE",
"453 603 OFFCURVE",
"453 617 CURVE SMOOTH",
"453 681 OFFCURVE",
"418 720 OFFCURVE",
"369 720 CURVE SMOOTH",
"345 720 OFFCURVE",
"284 672 OFFCURVE",
"236 643 CURVE",
"244 626 LINE",
"256 629 OFFCURVE",
"281 636 OFFCURVE",
"299 636 CURVE SMOOTH",
"322 636 OFFCURVE",
"341 619 OFFCURVE",
"341 589 CURVE SMOOTH",
"341 543 OFFCURVE",
"283 487 OFFCURVE",
"253 458 CURVE",
"277 436 LINE"
);
}
);
userData = {
com.schriftgestaltung.Glyphs.lastChange = "2019-03-28 15:56:55 +0000";
};
width = 511;
}
);
leftMetricsKey = d.ss01;
rightMetricsKey = d.ss01;
unicode = 0111;
},
{
color = 4;
glyphname = d_e;
layers = (
{
anchors = (
{
name = bottom_1;
position = "{185, 0}";
},
{
name = bottom_2;
position = "{555, 0}";
},
{
name = caret_1;
position = "{370, 0}";
},
{
name = center_1;
position = "{0, 0}";
},
{
name = center_2;
position = "{0, 0}";
},
{
name = top_1;
position = "{185, 430}";
},
{
name = top_2;
position = "{555, 430}";
},
{
name = topright_1;
position = "{0, 0}";
},
{
name = topright_2;
position = "{0, 0}";
}
);
components = (
{
name = e;
transform = "{1, 0, 0, 1, 363, 0}";
}
);
layerId = "5FE47517-9953-4891-9518-AB2E2247E448";
paths = (
{
closed = 1;
nodes = (
"274 -19 OFFCURVE",
"426 80 OFFCURVE",
"461 130 CURVE SMOOTH",
"486 166 OFFCURVE",
"499 370 OFFCURVE",
"479 386 CURVE SMOOTH",
"454 406 OFFCURVE",
"148 496 OFFCURVE",
"148 546 CURVE SMOOTH",
"148 553 OFFCURVE",
"148 562 OFFCURVE",
"202 597 CURVE",
"185 615 LINE",
"122 582 OFFCURVE",
"20 549 OFFCURVE",
"20 510 CURVE SMOOTH",
"20 405 OFFCURVE",
"328 365 OFFCURVE",
"364 316 CURVE SMOOTH",
"394 275 OFFCURVE",
"366 83 OFFCURVE",
"308 83 CURVE SMOOTH",
"218 83 OFFCURVE",
"178 154 OFFCURVE",
"178 240 CURVE SMOOTH",
"178 310 OFFCURVE",
"208 347 OFFCURVE",
"245 375 CURVE",
"204 390 LINE",
"136 337 OFFCURVE",
"42 283 OFFCURVE",
"42 261 CURVE SMOOTH",
"42 96 OFFCURVE",
"125 -19 OFFCURVE",
"255 -19 CURVE SMOOTH"
);
}
);
userData = {
com.schriftgestaltung.Glyphs.lastChange = "2019-01-14 09:18:15 +0000";
};
width = 764;
}
);
leftMetricsKey = d.ss01;
rightMetricsKey = "=e";
},
{
color = 4;
glyphname = d_o;
layers = (
{
anchors = (
{
name = bottom_1;
position = "{206, 0}";
},
{
name = bottom_2;
position = "{618, 0}";
},
{
name = caret_1;
position = "{412, 0}";
},
{
name = center_1;
position = "{0, 0}";
},
{
name = center_2;
position = "{0, 0}";
},
{
name = top_1;
position = "{206, 430}";
},
{
name = top_2;
position = "{618, 430}";
},
{
name = topright_1;
position = "{0, 0}";
},
{
name = topright_2;
position = "{0, 0}";
}
);
components = (
{
name = o;
transform = "{1, 0, 0, 1, 371, 0}";
}
);
layerId = "5FE47517-9953-4891-9518-AB2E2247E448";
paths = (
{
closed = 1;
nodes = (
"274 -19 OFFCURVE",
"426 80 OFFCURVE",
"461 130 CURVE SMOOTH",
"474 149 OFFCURVE",
"461 215 OFFCURVE",
"480 275 CURVE SMOOTH",
"497 329 OFFCURVE",
"522 373 OFFCURVE",
"513 381 CURVE SMOOTH",
"489 402 OFFCURVE",
"148 496 OFFCURVE",
"148 546 CURVE SMOOTH",
"148 553 OFFCURVE",
"148 562 OFFCURVE",
"202 597 CURVE",
"185 615 LINE",
"122 582 OFFCURVE",
"20 549 OFFCURVE",
"20 510 CURVE SMOOTH",
"20 405 OFFCURVE",
"328 365 OFFCURVE",
"364 316 CURVE SMOOTH",
"394 275 OFFCURVE",
"366 83 OFFCURVE",
"308 83 CURVE SMOOTH",
"218 83 OFFCURVE",
"178 154 OFFCURVE",
"178 240 CURVE SMOOTH",
"178 310 OFFCURVE",
"208 347 OFFCURVE",
"245 375 CURVE",
"204 390 LINE",
"136 337 OFFCURVE",
"42 283 OFFCURVE",
"42 261 CURVE SMOOTH",
"42 96 OFFCURVE",
"125 -19 OFFCURVE",
"255 -19 CURVE SMOOTH"
);
}
);
userData = {
com.schriftgestaltung.Glyphs.lastChange = "2019-01-14 08:57:00 +0000";
};
width = 824;
}
);
leftMetricsKey = d.ss01;
rightMetricsKey = "=o";
},
{
color = 4;
glyphname = e;
layers = (
{
anchors = (
{
name = bottom;
position = "{208, 0}";
},
{
name = ogonek;
position = "{358, 10}";
},
{
name = top;
position = "{208, 430}";
}
);
layerId = "5FE47517-9953-4891-9518-AB2E2247E448";
paths = (
{
closed = 1;
nodes = (
"243 -20 OFFCURVE",
"320 26 OFFCURVE",
"371 52 CURVE",
"368 82 LINE",
"348 78 OFFCURVE",
"295 73 OFFCURVE",
"276 74 CURVE SMOOTH",
"164 81 OFFCURVE",
"149 163 OFFCURVE",
"149 253 CURVE SMOOTH",
"149 296 OFFCURVE",
"154 367 OFFCURVE",
"191 367 CURVE SMOOTH",
"237 367 OFFCURVE",
"261 316 OFFCURVE",
"261 292 CURVE SMOOTH",
"261 238 OFFCURVE",
"188 180 OFFCURVE",
"132 150 CURVE",
"137 103 LINE",
"207 155 OFFCURVE",
"391 312 OFFCURVE",
"391 326 CURVE SMOOTH",
"391 346 OFFCURVE",
"312 450 OFFCURVE",
"281 450 CURVE SMOOTH",
"253 450 OFFCURVE",
"88 372 OFFCURVE",
"67 352 CURVE SMOOTH",
"50 336 OFFCURVE",
"30 284 OFFCURVE",
"30 182 CURVE SMOOTH",
"30 73 OFFCURVE",
"108 -20 OFFCURVE",
"207 -20 CURVE SMOOTH"
);
}
);
userData = {
com.schriftgestaltung.Glyphs.lastChange = "2019-01-14 09:07:19 +0000";
};
width = 401;
}
);
unicode = 0065;
},
{
color = 4;
glyphname = e_hook;
layers = (
{
anchors = (
{
name = bottom;
position = "{189, 0}";
},
{
name = ogonek;
position = "{339, 10}";
},
{
name = top;
position = "{189, 430}";
}
);
components = (
{
name = e;
}
);
layerId = "5FE47517-9953-4891-9518-AB2E2247E448";
paths = (
{
closed = 1;
nodes = (
"303 555 OFFCURVE",
"390 599 OFFCURVE",
"390 664 CURVE SMOOTH",
"390 701 OFFCURVE",
"360 734 OFFCURVE",
"305 751 CURVE",
"299 751 LINE",
"191 711 LINE",
"191 706 LINE",
"245 689 OFFCURVE",
"268 659 OFFCURVE",
"268 620 CURVE SMOOTH",
"268 584 OFFCURVE",
"230 542 OFFCURVE",
"170 513 CURVE",
"194 491 LINE"
);
}
);
userData = {
com.schriftgestaltung.Glyphs.ComponentInfo = (
{
alignment = -1;
index = 0;
name = e;
}
);
com.schriftgestaltung.Glyphs.lastChange = "2019-04-13 11:17:08 +0000";
};
width = 377;
}
);
},
{
color = 4;
glyphname = e_macr;
layers = (
{
anchors = (
{
name = bottom;
position = "{189, 0}";
},
{
name = ogonek;
position = "{339, 10}";
},
{
name = top;
position = "{189, 430}";
}
);
components = (
{
name = e;
}
);
layerId = "5FE47517-9953-4891-9518-AB2E2247E448";
paths = (
{
closed = 1;
nodes = (
"119.961 537 OFFCURVE",
"155.897 550 OFFCURVE",
"181.4 550 CURVE SMOOTH",
"208.062 550 OFFCURVE",
"276.456 543 OFFCURVE",
"304.277 543 CURVE SMOOTH",
"319.347 543 OFFCURVE",
"359.92 604 OFFCURVE",
"388.9 636 CURVE",
"356.442 645 LINE",
"340.213 639 OFFCURVE",
"325.143 637 OFFCURVE",
"299.64 637 CURVE SMOOTH",
"272.978 637 OFFCURVE",
"208.062 641 OFFCURVE",
"180.24 641 CURVE SMOOTH",
"166.33 641 OFFCURVE",
"102.573 568 OFFCURVE",
"72.433 536 CURVE",
"101.413 525 LINE"
);
}
);
userData = {
com.schriftgestaltung.Glyphs.ComponentInfo = (
{
alignment = -1;
index = 0;
name = e;
}
);
com.schriftgestaltung.Glyphs.lastChange = "2019-04-23 08:56:55 +0000";
};
width = 401;
}
);
rightMetricsKey = "=e";
unicode = 0113;
},
{
color = 4;
glyphname = e_c;
layers = (
{
anchors = (
{
name = bottom_1;
position = "{188, 0}";
},
{
name = bottom_2;
position = "{523, 0}";
},
{
name = caret_1;
position = "{355, 0}";
},
{
name = ogonek_1;
position = "{20, 0}";
},
{
name = ogonek_2;
position = "{20, 0}";
},
{
name = top_1;
position = "{188, 430}";
},
{
name = top_2;
position = "{523, 430}";
}
);
layerId = "5FE47517-9953-4891-9518-AB2E2247E448";
paths = (
{
closed = 1;
nodes = (
"224 -20 OFFCURVE",
"349 56 OFFCURVE",
"400 82 CURVE",
"397 112 LINE",
"369 99 OFFCURVE",
"320 73 OFFCURVE",
"277 74 CURVE SMOOTH",
"165 77 OFFCURVE",
"150 163 OFFCURVE",
"150 253 CURVE SMOOTH",
"150 296 OFFCURVE",
"155 367 OFFCURVE",
"182 367 CURVE SMOOTH",
"228 367 OFFCURVE",
"252 306 OFFCURVE",
"252 282 CURVE SMOOTH",
"252 228 OFFCURVE",
"189 180 OFFCURVE",
"133 150 CURVE",
"138 103 LINE",
"208 155 OFFCURVE",
"364 312 OFFCURVE",
"364 326 CURVE SMOOTH",
"364 346 OFFCURVE",
"293 450 OFFCURVE",
"262 450 CURVE SMOOTH",
"234 450 OFFCURVE",
"89 372 OFFCURVE",
"68 352 CURVE SMOOTH",
"51 336 OFFCURVE",
"30 274 OFFCURVE",
"30 172 CURVE SMOOTH",
"30 73 OFFCURVE",
"89 -20 OFFCURVE",
"188 -20 CURVE SMOOTH"
);
},
{
closed = 1;
nodes = (
"528 -20 OFFCURVE",
"620 38 OFFCURVE",
"679 78 CURVE",
"679 103 LINE",
"645 97 OFFCURVE",
"582 82 OFFCURVE",
"546 97 CURVE SMOOTH",
"507 113 OFFCURVE",
"493 172 OFFCURVE",
"493 272 CURVE SMOOTH",
"493 299 OFFCURVE",
"498 340 OFFCURVE",
"502 360 CURVE",
"547 354 OFFCURVE",
"572 317 OFFCURVE",
"578 317 CURVE SMOOTH",
"583 317 OFFCURVE",
"649 360 OFFCURVE",
"685 381 CURVE",
"685 396 LINE",
"610 410 OFFCURVE",
"602 451 OFFCURVE",
"586 451 CURVE SMOOTH",
"564 451 OFFCURVE",
"417 356 OFFCURVE",
"398 341 CURVE SMOOTH",
"385 330 OFFCURVE",
"368 190 OFFCURVE",
"368 91 CURVE SMOOTH",
"368 57 OFFCURVE",
"452 -20 OFFCURVE",
"503 -20 CURVE SMOOTH"
);
}
);
userData = {
com.schriftgestaltung.Glyphs.lastChange = "2019-01-14 09:18:15 +0000";
};
width = 700;
}
);
leftMetricsKey = e;
rightMetricsKey = c;
},
{
color = 4;
glyphname = e_t;
layers = (
{
anchors = (
{
name = bottom_1;
position = "{169, 0}";
},
{
name = bottom_2;
position = "{466, 0}";
},
{
name = caret_1;
position = "{317, 0}";
},
{
name = ogonek_1;
position = "{20, 0}";
},
{
name = ogonek_2;
position = "{20, 0}";
},
{
name = top_1;
position = "{169, 430}";
},
{
name = top_2;
position = "{466, 430}";
}
);
components = (
{
name = t;
transform = "{1, 0, 0, 1, 317, -6}";
}
);
layerId = "5FE47517-9953-4891-9518-AB2E2247E448";
paths = (
{
closed = 1;
nodes = (
"224 -20 OFFCURVE",
"349 56 OFFCURVE",
"400 82 CURVE",
"397 112 LINE",
"369 99 OFFCURVE",
"320 73 OFFCURVE",
"277 74 CURVE SMOOTH",
"165 77 OFFCURVE",
"150 163 OFFCURVE",
"150 253 CURVE SMOOTH",
"150 296 OFFCURVE",
"155 367 OFFCURVE",
"182 367 CURVE SMOOTH",
"228 367 OFFCURVE",
"252 306 OFFCURVE",
"252 282 CURVE SMOOTH",
"252 228 OFFCURVE",
"189 180 OFFCURVE",
"133 150 CURVE",
"138 103 LINE",
"208 155 OFFCURVE",
"374 322 OFFCURVE",
"374 336 CURVE SMOOTH",
"374 356 OFFCURVE",
"293 450 OFFCURVE",
"262 450 CURVE SMOOTH",
"234 450 OFFCURVE",
"89 372 OFFCURVE",
"68 352 CURVE SMOOTH",
"51 336 OFFCURVE",
"30 274 OFFCURVE",
"30 172 CURVE SMOOTH",
"30 73 OFFCURVE",
"89 -20 OFFCURVE",
"188 -20 CURVE SMOOTH"
);
}
);
userData = {
com.schriftgestaltung.Glyphs.lastChange = "2019-01-14 09:18:15 +0000";
};
width = 614;
}
);
leftMetricsKey = e;
rightMetricsKey = t;
},
{
color = 4;
glyphname = f;
layers = (
{
anchors = (
{
name = bottom;
position = "{166, 0}";
},
{
name = top;
position = "{166, 430}";
}
);
layerId = "5FE47517-9953-4891-9518-AB2E2247E448";
paths = (
{
closed = 1;
nodes = (
"178 9 LINE",
"178 321 LINE",
"304 321 LINE",
"304 408 LINE",
"178 408 LINE",
"178 410 OFFCURVE",
"178 586 OFFCURVE",
"178 600 CURVE",
"192 610 OFFCURVE",
"207 612 OFFCURVE",
"221 612 CURVE SMOOTH",
"248 612 OFFCURVE",
"281 590 OFFCURVE",
"307 561 CURVE",
"315 562 LINE",
"394 640 LINE",
"394 646 LINE",
"352 681 OFFCURVE",
"287 699 OFFCURVE",
"251 699 CURVE SMOOTH",
"242 699 OFFCURVE",
"107 610 OFFCURVE",
"77 589 CURVE SMOOTH",
"63 579 OFFCURVE",
"62 578 OFFCURVE",
"64 562 CURVE SMOOTH",
"72 482 OFFCURVE",
"53 421 OFFCURVE",
"20 357 CURVE",
"20 350 LINE",
"43 333 OFFCURVE",
"66 323 OFFCURVE",
"66 279 CURVE SMOOTH",
"66 -17 LINE",
"72 -20 LINE"
);
}
);
userData = {
com.schriftgestaltung.Glyphs.lastChange = "2019-03-28 15:56:55 +0000";
};
width = 304;
}
);
unicode = 0066;
},
{
color = 4;
glyphname = f_e;
layers = (
{
anchors = (
{
name = bottom_1;
position = "{169, 0}";
},
{
name = bottom_2;
position = "{466, 0}";
},
{
name = caret_1;
position = "{318, 0}";
},
{
name = top_1;
position = "{169, 430}";
},
{
name = top_2;
position = "{466, 430}";
}
);
components = (
{
name = e;
transform = "{1, 0, 0, 1, 238, 0}";
}
);
layerId = "5FE47517-9953-4891-9518-AB2E2247E448";
paths = (
{
closed = 1;
nodes = (
"178 9 LINE",
"178 321 LINE",
"304 321 LINE",
"411 408 LINE",
"178 408 LINE",
"178 410 OFFCURVE",
"178 586 OFFCURVE",
"178 600 CURVE",
"192 610 OFFCURVE",
"207 612 OFFCURVE",
"221 612 CURVE SMOOTH",
"248 612 OFFCURVE",
"281 590 OFFCURVE",
"307 561 CURVE",
"315 562 LINE",
"394 640 LINE",
"394 646 LINE",
"352 681 OFFCURVE",
"287 699 OFFCURVE",
"251 699 CURVE SMOOTH",
"242 699 OFFCURVE",
"107 610 OFFCURVE",
"77 589 CURVE SMOOTH",
"63 579 OFFCURVE",
"62 578 OFFCURVE",
"64 562 CURVE SMOOTH",
"74 482 OFFCURVE",
"53 421 OFFCURVE",
"20 357 CURVE",
"20 350 LINE",
"43 333 OFFCURVE",
"66 323 OFFCURVE",
"66 279 CURVE SMOOTH",
"66 -17 LINE",
"72 -20 LINE"
);
}
);
userData = {
com.schriftgestaltung.Glyphs.lastChange = "2019-03-28 15:56:55 +0000";
};
width = 639;
}
);
leftMetricsKey = f;
rightMetricsKey = e;
},
{
color = 4;
glyphname = f_f;
layers = (
{
anchors = (
{
name = caret_1;
position = "{309, 0}";
}
);
layerId = "5FE47517-9953-4891-9518-AB2E2247E448";
paths = (
{
closed = 1;
nodes = (
"178 9 LINE",
"178 321 LINE",
"341 321 LINE",
"341 408 LINE",
"178 408 LINE",
"178 410 OFFCURVE",
"178 586 OFFCURVE",
"178 600 CURVE",
"192 610 OFFCURVE",
"207 612 OFFCURVE",
"221 612 CURVE SMOOTH",
"248 612 OFFCURVE",
"300 595 OFFCURVE",
"326 566 CURVE",
"334 567 LINE",
"416 640 LINE",
"416 646 LINE",
"374 681 OFFCURVE",
"287 699 OFFCURVE",
"251 699 CURVE SMOOTH",
"242 699 OFFCURVE",
"107 610 OFFCURVE",
"77 589 CURVE SMOOTH",
"63 579 OFFCURVE",
"62 578 OFFCURVE",
"64 562 CURVE SMOOTH",
"74 482 OFFCURVE",
"53 421 OFFCURVE",
"20 357 CURVE",
"20 350 LINE",
"43 333 OFFCURVE",
"66 323 OFFCURVE",
"66 279 CURVE SMOOTH",
"66 -17 LINE",
"72 -20 LINE"
);
},
{
closed = 1;
nodes = (
"440 9 LINE",
"440 321 LINE",
"566 321 LINE",
"566 408 LINE",
"440 408 LINE",
"440 410 OFFCURVE",
"440 586 OFFCURVE",
"440 600 CURVE",
"454 610 OFFCURVE",
"469 612 OFFCURVE",
"483 612 CURVE SMOOTH",
"510 612 OFFCURVE",
"543 590 OFFCURVE",
"569 561 CURVE",
"577 562 LINE",
"656 640 LINE",
"656 646 LINE",
"614 681 OFFCURVE",
"549 699 OFFCURVE",
"513 699 CURVE SMOOTH",
"504 699 OFFCURVE",
"369 620 OFFCURVE",
"339 599 CURVE SMOOTH",
"325 589 OFFCURVE",
"326 598 OFFCURVE",
"326 582 CURVE SMOOTH",
"326 502 OFFCURVE",
"328 323 OFFCURVE",
"328 279 CURVE SMOOTH",
"328 -17 LINE",
"334 -20 LINE"
);
}
);
userData = {
com.schriftgestaltung.Glyphs.lastChange = "2019-03-28 15:56:55 +0000";
};
width = 566;
}
);
leftMetricsKey = f;
rightMetricsKey = "=f";
unicode = FB00;
},
{
color = 4;
glyphname = f_i;
layers = (
{
anchors = (
{
name = bottom_1;
position = "{112, 0}";
},
{
name = bottom_2;
position = "{336, 0}";
},
{
name = caret_1;
position = "{224, 0}";
},
{
name = top_1;
position = "{112, 430}";
},
{
name = top_2;
position = "{336, 430}";
}
);
components = (
{
name = f;
}
);
layerId = "5FE47517-9953-4891-9518-AB2E2247E448";
paths = (
{
closed = 1;
nodes = (
"360 -20 OFFCURVE",
"400 16 OFFCURVE",
"428 35 CURVE",
"428 54 LINE",
"397 68 OFFCURVE",
"394 80 OFFCURVE",
"393 97 CURVE",
"392 178 OFFCURVE",
"392 243 OFFCURVE",
"393 312 CURVE SMOOTH",
"394 370 OFFCURVE",
"397 413 OFFCURVE",
"402 442 CURVE",
"386 452 LINE",
"347 432 OFFCURVE",
"307 412 OFFCURVE",
"268 407 CURVE",
"249 323 LINE",
"268 323 OFFCURVE",
"276 307 OFFCURVE",
"277 279 CURVE SMOOTH",
"278 240 OFFCURVE",
"278 108 OFFCURVE",
"278 85 CURVE SMOOTH",
"278 2 OFFCURVE",
"323 -20 OFFCURVE",
"347 -20 CURVE SMOOTH"
);
}
);
userData = {
com.schriftgestaltung.Glyphs.ComponentInfo = (
{
alignment = -1;
index = 0;
name = f;
}
);
com.schriftgestaltung.Glyphs.lastChange = "2019-03-28 15:56:55 +0000";
};
width = 473;
}
);
leftMetricsKey = f;
rightMetricsKey = i;
unicode = FB01;
},
{
color = 4;
glyphname = f_o;
layers = (
{
anchors = (
{
name = bottom_1;
position = "{180, 0}";
},
{
name = bottom_2;
position = "{520, 0}";
},
{
name = caret_1;
position = "{350, 0}";
},
{
name = top_1;
position = "{180, 430}";
},
{
name = top_2;
position = "{520, 430}";
}
);
components = (
{
name = o;
transform = "{1, 0, 0, 1, 237, 0}";
}
);
layerId = "5FE47517-9953-4891-9518-AB2E2247E448";
paths = (
{
closed = 1;
nodes = (
"161 9 LINE",
"161 321 LINE",
"357 321 LINE",
"437 408 LINE",
"360 408 OFFCURVE",
"161 408 OFFCURVE",
"161 408 CURVE SMOOTH",
"161 410 OFFCURVE",
"161 586 OFFCURVE",
"161 600 CURVE SMOOTH",
"175 610 OFFCURVE",
"190 612 OFFCURVE",
"204 612 CURVE",
"231 612 OFFCURVE",
"264 590 OFFCURVE",
"290 561 CURVE SMOOTH",
"298 562 LINE",
"377 640 LINE",
"377 646 LINE SMOOTH",
"335 681 OFFCURVE",
"270 699 OFFCURVE",
"234 699 CURVE",
"225 699 OFFCURVE",
"90 610 OFFCURVE",
"60 589 CURVE",
"46 579 OFFCURVE",
"45 578 OFFCURVE",
"47 562 CURVE",
"57 482 OFFCURVE",
"49 421 OFFCURVE",
"20 357 CURVE SMOOTH",
"20 350 LINE SMOOTH",
"43 333 OFFCURVE",
"49 323 OFFCURVE",
"49 279 CURVE",
"49 -17 LINE",
"55 -20 LINE"
);
}
);
userData = {
com.schriftgestaltung.Glyphs.lastChange = "2019-03-28 15:56:55 +0000";
};
width = 690;
}
);
leftMetricsKey = f;
rightMetricsKey = o;
},
{
color = 4;
glyphname = f_r;
layers = (
{
anchors = (
{
name = bottom_1;
position = "{145, 0}";
},
{
name = bottom_2;
position = "{414, 0}";
},
{
name = caret_1;
position = "{279, 0}";
},
{
name = top_1;
position = "{145, 430}";
},
{
name = top_2;
position = "{394, 430}";
}
);
layerId = "5FE47517-9953-4891-9518-AB2E2247E448";
paths = (
{
closed = 1;
nodes = (
"161 9 LINE",
"161 341 LINE",
"230 341 LINE SMOOTH",
"289 341 OFFCURVE",
"299 320 OFFCURVE",
"299 268 CURVE SMOOTH",
"299 -5 LINE",
"303 -7 LINE",
"418 50 LINE",
"414 152 OFFCURVE",
"414 200 OFFCURVE",
"414 302 CURVE SMOOTH",
"414 314 LINE",
"434 331 OFFCURVE",
"464 345 OFFCURVE",
"506 305 CURVE",
"511 301 OFFCURVE",
"598 376 OFFCURVE",
"598 380 CURVE SMOOTH",
"598 389 OFFCURVE",
"520 445 OFFCURVE",
"514 440 CURVE SMOOTH",
"488 418 OFFCURVE",
"434 378 OFFCURVE",
"409 355 CURVE",
"395 388 OFFCURVE",
"375 413 OFFCURVE",
"355 433 CURVE",
"358 430 OFFCURVE",
"155 429 OFFCURVE",
"161 431 CURVE",
"161 600 LINE",
"175 610 OFFCURVE",
"190 612 OFFCURVE",
"204 612 CURVE SMOOTH",
"231 612 OFFCURVE",
"264 590 OFFCURVE",
"290 561 CURVE",
"298 562 LINE",
"377 640 LINE",
"377 646 LINE",
"335 681 OFFCURVE",
"270 699 OFFCURVE",
"234 699 CURVE SMOOTH",
"225 699 OFFCURVE",
"90 610 OFFCURVE",
"60 589 CURVE SMOOTH",
"46 579 OFFCURVE",
"45 578 OFFCURVE",
"47 562 CURVE SMOOTH",
"55 482 OFFCURVE",
"49 421 OFFCURVE",
"20 357 CURVE",
"20 350 LINE",
"43 333 OFFCURVE",
"49 323 OFFCURVE",
"49 279 CURVE SMOOTH",
"49 -17 LINE",
"55 -20 LINE"
);
}
);
userData = {
com.schriftgestaltung.Glyphs.lastChange = "2019-04-13 11:29:50 +0000";
};
width = 598;
}
);
leftMetricsKey = f;
rightMetricsKey = r;
},
{
color = 4;
glyphname = f_u;
layers = (
{
anchors = (
{
name = bottom_1;
position = "{181, 0}";
},
{
name = bottom_2;
position = "{522, 0}";
},
{
name = caret_1;
position = "{351, 0}";
},
{
name = top_1;
position = "{181, 430}";
},
{
name = top_2;
position = "{522, 430}";
}
);
layerId = "5FE47517-9953-4891-9518-AB2E2247E448";
paths = (
{
closed = 1;
nodes = (
"400 -24 OFFCURVE",
"471 33 OFFCURVE",
"514 62 CURVE",
"517 49 LINE SMOOTH",
"525 16 OFFCURVE",
"550 -20 OFFCURVE",
"589 -20 CURVE SMOOTH",
"610 -20 OFFCURVE",
"672 41 OFFCURVE",
"687 58 CURVE",
"685 81 LINE",
"655 80 OFFCURVE",
"625 88 OFFCURVE",
"624 124 CURVE SMOOTH",
"621 220 OFFCURVE",
"622 343 OFFCURVE",
"628 450 CURVE",
"622 452 LINE",
"503 396 LINE",
"512 313 OFFCURVE",
"509 187 OFFCURVE",
"509 104 CURVE",
"493 90 OFFCURVE",
"472 73 OFFCURVE",
"447 73 CURVE SMOOTH",
"413 73 OFFCURVE",
"400 103 OFFCURVE",
"400 134 CURVE SMOOTH",
"400 238 OFFCURVE",
"399 342 OFFCURVE",
"404 446 CURVE",
"399 450 LINE",
"357 428 OFFCURVE",
"315 408 OFFCURVE",
"272 408 CURVE SMOOTH",
"161 408 LINE",
"161 600 LINE",
"175 610 OFFCURVE",
"190 612 OFFCURVE",
"204 612 CURVE SMOOTH",
"231 612 OFFCURVE",
"264 590 OFFCURVE",
"290 561 CURVE",
"298 562 LINE",
"377 640 LINE",
"377 646 LINE",
"335 681 OFFCURVE",
"270 699 OFFCURVE",
"234 699 CURVE SMOOTH",
"225 699 OFFCURVE",
"90 610 OFFCURVE",
"60 589 CURVE SMOOTH",
"46 579 OFFCURVE",
"45 578 OFFCURVE",
"47 562 CURVE SMOOTH",
"55 482 OFFCURVE",
"49 421 OFFCURVE",
"20 357 CURVE",
"20 350 LINE",
"43 333 OFFCURVE",
"49 323 OFFCURVE",
"49 279 CURVE SMOOTH",
"49 -17 LINE",
"55 -20 LINE",
"161 9 LINE",
"161 321 LINE",
"250 321 LINE SMOOTH",
"276 321 OFFCURVE",
"288 296 OFFCURVE",
"288 275 CURVE SMOOTH",
"288 65 LINE SMOOTH",
"288 28 OFFCURVE",
"303 -24 OFFCURVE",
"354 -24 CURVE SMOOTH"
);
}
);
userData = {
com.schriftgestaltung.Glyphs.lastChange = "2019-03-28 15:56:55 +0000";
};
width = 692;
}
);
leftMetricsKey = f;
rightMetricsKey = u;
},
{
color = 4;
glyphname = g;
layers = (
{
anchors = (
{
name = bottom;
position = "{286, 0}";
},
{
name = top;
position = "{286, 430}";
}
);
layerId = "5FE47517-9953-4891-9518-AB2E2247E448";
paths = (
{
closed = 1;
nodes = (
"268 -231 OFFCURVE",
"331 -214 OFFCURVE",
"386 -193 CURVE",
"428 -167 OFFCURVE",
"486 -124 OFFCURVE",
"486 -38 CURVE SMOOTH",
"486 45 OFFCURVE",
"430 117 OFFCURVE",
"295 148 CURVE",
"197 100 OFFCURVE",
"111 149 OFFCURVE",
"111 231 CURVE SMOOTH",
"111 279 OFFCURVE",
"129 308 OFFCURVE",
"139 325 CURVE",
"215 384 OFFCURVE",
"319 322 OFFCURVE",
"319 241 CURVE SMOOTH",
"319 198 OFFCURVE",
"301 149 OFFCURVE",
"241 111 CURVE",
"307 122 LINE",
"352 165 OFFCURVE",
"393 238 OFFCURVE",
"427 287 CURVE",
"448 293 OFFCURVE",
"488 294 OFFCURVE",
"508 295 CURVE",
"495 390 LINE",
"325 405 OFFCURVE",
"321 415 OFFCURVE",
"241 454 CURVE",
"199 441 OFFCURVE",
"98 363 OFFCURVE",
"50 317 CURVE",
"30 282 OFFCURVE",
"15 239 OFFCURVE",
"15 200 CURVE SMOOTH",
"15 91 OFFCURVE",
"82 48 OFFCURVE",
"173 30 CURVE",
"287 72 OFFCURVE",
"377 22 OFFCURVE",
"381 -61 CURVE SMOOTH",
"384 -125 OFFCURVE",
"348 -179 OFFCURVE",
"286 -179 CURVE SMOOTH",
"227 -179 OFFCURVE",
"157 -144 OFFCURVE",
"157 -59 CURVE SMOOTH",
"157 -16 OFFCURVE",
"188 25 OFFCURVE",
"211 46 CURVE",
"184 50 LINE",
"155 36 OFFCURVE",
"72 -24 OFFCURVE",
"44 -49 CURVE",
"19 -184 OFFCURVE",
"126 -228 OFFCURVE",
"208 -240 CURVE"
);
}
);
userData = {
com.schriftgestaltung.Glyphs.lastChange = "2019-04-13 11:30:32 +0000";
};
width = 523;
}
);
unicode = 0067;
},
{
color = 4;
glyphname = g.ss01;
layers = (
{
anchors = (
{
name = bottom;
position = "{293, 0}";
},
{
name = top;
position = "{293, 430}";
}
);
layerId = "5FE47517-9953-4891-9518-AB2E2247E448";
paths = (
{
closed = 1;
nodes = (
"281 -240 OFFCURVE",
"484 -186 OFFCURVE",
"484 -79 CURVE SMOOTH",
"484 8 OFFCURVE",
"417 44 OFFCURVE",
"417 163 CURVE SMOOTH",
"417 235 OFFCURVE",
"439 307 OFFCURVE",
"569 303 CURVE",
"585 391 LINE",
"492 401 OFFCURVE",
"308 440 OFFCURVE",
"289 450 CURVE",
"276 450 OFFCURVE",
"152 382 OFFCURVE",
"85 339 CURVE",
"47 295 OFFCURVE",
"30 249 OFFCURVE",
"30 196 CURVE SMOOTH",
"30 88 OFFCURVE",
"71 35 OFFCURVE",
"130 -5 CURVE",
"179 39 OFFCURVE",
"255 98 OFFCURVE",
"304 112 CURVE",
"301 148 LINE",
"281 132 OFFCURVE",
"244 115 OFFCURVE",
"219 115 CURVE SMOOTH",
"138 115 OFFCURVE",
"124 225 OFFCURVE",
"159 301 CURVE",
"214 339 OFFCURVE",
"313 333 OFFCURVE",
"436 311 CURVE",
"377 274 OFFCURVE",
"295 236 OFFCURVE",
"295 140 CURVE SMOOTH",
"295 64 OFFCURVE",
"376 -33 OFFCURVE",
"376 -101 CURVE SMOOTH",
"376 -164 OFFCURVE",
"324 -184 OFFCURVE",
"285 -184 CURVE SMOOTH",
"166 -184 OFFCURVE",
"130 -34 OFFCURVE",
"142 11 CURVE",
"133 11 OFFCURVE",
"49 -46 OFFCURVE",
"19 -69 CURVE",
"28 -180 OFFCURVE",
"110 -220 OFFCURVE",
"183 -240 CURVE"
);
}
);
userData = {
com.schriftgestaltung.Glyphs.lastChange = "2019-04-24 15:12:59 +0000";
};
width = 585;
}
);
},
{
color = 4;
glyphname = g.ss02;
layers = (
{
anchors = (
{
name = bottom;
position = "{315, 0}";
},
{
name = top;
position = "{315, 430}";
}
);
layerId = "5FE47517-9953-4891-9518-AB2E2247E448";
paths = (
{
closed = 1;
nodes = (
"401 -240 OFFCURVE",
"519 -177 OFFCURVE",
"519 -74 CURVE SMOOTH",
"519 9 OFFCURVE",
"473 38 OFFCURVE",
"435 57 CURVE",
"325 -6 LINE",
"325 -10 LINE",
"372 -32 OFFCURVE",
"391 -74 OFFCURVE",
"391 -105 CURVE SMOOTH",
"391 -162 OFFCURVE",
"340 -201 OFFCURVE",
"283 -201 CURVE SMOOTH",
"211 -201 OFFCURVE",
"177 -160 OFFCURVE",
"177 -100 CURVE SMOOTH",
"177 -12 OFFCURVE",
"300 24 OFFCURVE",
"381 80 CURVE SMOOTH",
"442 122 OFFCURVE",
"472 189 OFFCURVE",
"480 272 CURVE SMOOTH",
"482 293 OFFCURVE",
"484 302 OFFCURVE",
"491 302 CURVE SMOOTH",
"613 297 LINE",
"619 321 OFFCURVE",
"627 361 OFFCURVE",
"629 397 CURVE",
"584 400 OFFCURVE",
"477 407 OFFCURVE",
"449 411 CURVE SMOOTH",
"414 416 OFFCURVE",
"353 461 OFFCURVE",
"340 461 CURVE SMOOTH",
"326 461 OFFCURVE",
"234 437 OFFCURVE",
"145 401 CURVE SMOOTH",
"108 386 OFFCURVE",
"42 309 OFFCURVE",
"42 242 CURVE SMOOTH",
"42 185 OFFCURVE",
"67 154 OFFCURVE",
"80 136 CURVE SMOOTH",
"89 123 OFFCURVE",
"138 85 OFFCURVE",
"207 89 CURVE",
"122 42 OFFCURVE",
"50 -7 OFFCURVE",
"50 -73 CURVE SMOOTH",
"50 -190 OFFCURVE",
"138 -240 OFFCURVE",
"280 -240 CURVE SMOOTH"
);
},
{
closed = 1;
nodes = (
"221 134 OFFCURVE",
"162 179 OFFCURVE",
"162 259 CURVE SMOOTH",
"162 310 OFFCURVE",
"185 349 OFFCURVE",
"233 377 CURVE",
"263 377 OFFCURVE",
"359 350 OFFCURVE",
"359 261 CURVE SMOOTH",
"359 196 OFFCURVE",
"325 160 OFFCURVE",
"283 134 CURVE"
);
}
);
userData = {
com.schriftgestaltung.Glyphs.lastChange = "2019-03-28 15:56:55 +0000";
};
width = 629;
}
);
},
{
color = 4;
glyphname = g.ss03;
layers = (
{
layerId = "5FE47517-9953-4891-9518-AB2E2247E448";
paths = (
{
closed = 1;
nodes = (
"446 315 OFFCURVE",
"617 310 CURVE",
"641 429 LINE",
"621 435 LINE",
"570 411 OFFCURVE",
"308 440 OFFCURVE",
"289 450 CURVE",
"276 450 OFFCURVE",
"152 382 OFFCURVE",
"85 339 CURVE",
"47 295 OFFCURVE",
"30 249 OFFCURVE",
"30 196 CURVE SMOOTH",
"30 88 OFFCURVE",
"71 35 OFFCURVE",
"130 -5 CURVE",
"179 39 OFFCURVE",
"255 98 OFFCURVE",
"304 112 CURVE",
"301 155 LINE",
"281 139 OFFCURVE",
"244 115 OFFCURVE",
"219 115 CURVE SMOOTH",
"138 115 OFFCURVE",
"124 225 OFFCURVE",
"159 301 CURVE",
"236 384 OFFCURVE"
);
},
{
closed = 1;
nodes = (
"440 336 LINE",
"381 297 OFFCURVE",
"295 241 OFFCURVE",
"295 140 CURVE SMOOTH",
"295 64 OFFCURVE",
"376 -33 OFFCURVE",
"376 -101 CURVE SMOOTH",
"376 -164 OFFCURVE",
"324 -184 OFFCURVE",
"285 -184 CURVE SMOOTH",
"166 -184 OFFCURVE",
"130 -34 OFFCURVE",
"142 11 CURVE",
"133 11 OFFCURVE",
"49 -46 OFFCURVE",
"19 -69 CURVE",
"28 -180 OFFCURVE",
"110 -220 OFFCURVE",
"183 -240 CURVE",
"281 -240 OFFCURVE",
"484 -186 OFFCURVE",
"484 -79 CURVE SMOOTH",
"484 8 OFFCURVE",
"410 87 OFFCURVE",
"410 206 CURVE SMOOTH",
"410 268 OFFCURVE",
"436 303 OFFCURVE",
"494 325 CURVE"
);
}
);
userData = {
com.schriftgestaltung.Glyphs.lastChange = "2019-04-13 12:37:08 +0000";
};
width = 600;
}
);
},
{
color = 4;
glyphname = g_hook;
layers = (
{
anchors = (
{
name = bottom;
position = "{293, 0}";
},
{
name = top;
position = "{293, 430}";
}
);
components = (
{
name = g;
}
);
layerId = "5FE47517-9953-4891-9518-AB2E2247E448";
paths = (
{
closed = 1;
nodes = (
"220 537 OFFCURVE",
"251 550 OFFCURVE",
"273 550 CURVE SMOOTH",
"296 550 OFFCURVE",
"355 543 OFFCURVE",
"379 543 CURVE SMOOTH",
"392 543 OFFCURVE",
"427 604 OFFCURVE",
"452 636 CURVE",
"424 645 LINE",
"410 639 OFFCURVE",
"397 637 OFFCURVE",
"375 637 CURVE SMOOTH",
"352 637 OFFCURVE",
"296 641 OFFCURVE",
"272 641 CURVE SMOOTH",
"260 641 OFFCURVE",
"205 568 OFFCURVE",
"179 536 CURVE",
"204 525 LINE"
);
}
);
userData = {
com.schriftgestaltung.Glyphs.ComponentInfo = (
{
alignment = -1;
index = 0;
name = g;
}
);
com.schriftgestaltung.Glyphs.lastChange = "2019-04-23 08:56:59 +0000";
};
width = 585;
}
);
},
{
color = 4;
glyphname = g_macr;
layers = (
{
anchors = (
{
name = bottom;
position = "{293, 0}";
},
{
name = top;
position = "{293, 430}";
}
);
components = (
{
name = g.ss01;
}
);
layerId = "5FE47517-9953-4891-9518-AB2E2247E448";
paths = (
{
closed = 1;
nodes = (
"449 552 OFFCURVE",
"562 627 OFFCURVE",
"564 642 CURVE SMOOTH",
"566 657 OFFCURVE",
"541 709 OFFCURVE",
"508 752 CURVE",
"502 753 LINE",
"380 704 LINE",
"380 699 LINE",
"404 678 OFFCURVE",
"435 652 OFFCURVE",
"430 611 CURVE SMOOTH",
"425 573 OFFCURVE",
"371 548 OFFCURVE",
"336 521 CURVE",
"358 495 LINE"
);
}
);
userData = {
com.schriftgestaltung.Glyphs.ComponentInfo = (
{
alignment = -1;
index = 0;
name = g.ss01;
}
);
com.schriftgestaltung.Glyphs.lastChange = "2019-04-24 14:12:55 +0000";
};
width = 585;
}
);
},
{
color = 4;
glyphname = g_ra;
layers = (
{
anchors = (
{
name = bottom;
position = "{305, 0}";
},
{
name = top;
position = "{305, 430}";
}
);
components = (
{
name = g;
}
);
layerId = "5FE47517-9953-4891-9518-AB2E2247E448";
paths = (
{
closed = 1;
nodes = (
"224 534 OFFCURVE",
"296 586 OFFCURVE",
"307 586 CURVE",
"331 537 OFFCURVE",
"360 519 OFFCURVE",
"392 519 CURVE SMOOTH",
"439 519 OFFCURVE",
"501 570 OFFCURVE",
"563 631 CURVE",
"547 658 LINE",
"519 623 OFFCURVE",
"480 614 OFFCURVE",
"438 614 CURVE",
"409 614 OFFCURVE",
"381 640 OFFCURVE",
"371 682 CURVE",
"362 684 LINE",
"336 648 OFFCURVE",
"285 600 OFFCURVE",
"233 600 CURVE SMOOTH",
"200 600 OFFCURVE",
"173 630 OFFCURVE",
"171 685 CURVE",
"163 685 LINE",
"143 670 OFFCURVE",
"50 601 OFFCURVE",
"18 567 CURVE",
"36 545 LINE",
"36 540 OFFCURVE",
"68 575 OFFCURVE",
"97 575 CURVE SMOOTH",
"135 575 OFFCURVE",
"172 518 OFFCURVE",
"184 518 CURVE"
);
}
);
userData = {
com.schriftgestaltung.Glyphs.ComponentInfo = (
{
alignment = -1;
index = 0;
name = g;
}
);
com.schriftgestaltung.Glyphs.lastChange = "2019-04-24 14:13:13 +0000";
};
width = 610;
}
);
},
{
color = 4;
glyphname = g_l_strok;
layers = (
{
anchors = (
{
name = bottom_1;
position = "{134, 0}";
},
{
name = bottom_2;
position = "{402, 0}";
},
{
name = bottom_3;
position = "{669, 0}";
},
{
name = caret_1;
position = "{267.667, 0}";
},
{
name = caret_2;
position = "{535.333, 0}";
},
{
name = top_1;
position = "{134, 430}";
},
{
name = top_2;
position = "{402, 430}";
},
{
name = top_3;
position = "{669, 430}";
}
);
components = (
{
name = g.ss01;
},
{
name = l;
transform = "{1, 0, 0, 1, 515, 0}";
}
);
layerId = "5FE47517-9953-4891-9518-AB2E2247E448";
paths = (
{
closed = 1;
nodes = (
"716 413 OFFCURVE",
"902 551 OFFCURVE",
"902 585 CURVE SMOOTH",
"902 599 OFFCURVE",
"893 645 OFFCURVE",
"837 672 CURVE",
"831 672 LINE",
"723 622 LINE",
"723 617 LINE",
"758 600 OFFCURVE",
"780 580 OFFCURVE",
"780 541 CURVE SMOOTH",
"780 477 OFFCURVE",
"643 420 OFFCURVE",
"613 391 CURVE",
"637 369 LINE"
);
}
);
userData = {
com.schriftgestaltung.Glyphs.ComponentInfo = (
{
alignment = -1;
index = 1;
name = l;
}
);
com.schriftgestaltung.Glyphs.lastChange = "2019-04-13 11:28:18 +0000";
};
width = 803;
}
);
},
{
color = 4;
glyphname = h;
layers = (
{
anchors = (
{
name = bottom;
position = "{277, 0}";
},
{
name = center;
position = "{277, 215}";
},
{
name = top;
position = "{277, 430}";
}
);
layerId = "5FE47517-9953-4891-9518-AB2E2247E448";
paths = (
{
closed = 1;
nodes = (
"179 324 LINE",
"182 446 OFFCURVE",
"185 589 OFFCURVE",
"186 712 CURVE",
"179 716 LINE",
"142 701 OFFCURVE",
"70 689 OFFCURVE",
"59 684 CURVE",
"59 620 OFFCURVE",
"70 458 OFFCURVE",
"63 394 CURVE SMOOTH",
"59 355 OFFCURVE",
"45 338 OFFCURVE",
"20 311 CURVE",
"20 305 LINE",
"40 288 OFFCURVE",
"67 253 OFFCURVE",
"67 214 CURVE SMOOTH",
"67 187 OFFCURVE",
"67 -10 OFFCURVE",
"68 -11 CURVE",
"77 -17 LINE",
"181 8 LINE",
"181 306 LINE"
);
},
{
closed = 1;
nodes = (
"175 289 LINE",
"204 328 OFFCURVE",
"239 343 OFFCURVE",
"282 343 CURVE SMOOTH",
"367 343 OFFCURVE",
"440 277 OFFCURVE",
"440 188 CURVE SMOOTH",
"440 112 OFFCURVE",
"408 78 OFFCURVE",
"376 52 CURVE",
"339 52 OFFCURVE",
"328 78 OFFCURVE",
"309 105 CURVE",
"282 92 OFFCURVE",
"246 69 OFFCURVE",
"230 45 CURVE",
"230 20 OFFCURVE",
"288 -21 OFFCURVE",
"320 -21 CURVE",
"376 23 OFFCURVE",
"410 42 OFFCURVE",
"482 99 CURVE",
"530 150 OFFCURVE",
"538 179 OFFCURVE",
"538 226 CURVE SMOOTH",
"538 343 OFFCURVE",
"453 460 OFFCURVE",
"306 449 CURVE",
"261 409 OFFCURVE",
"180 331 OFFCURVE",
"178 332 CURVE"
);
}
);
userData = {
com.schriftgestaltung.Glyphs.lastChange = "2019-04-13 12:36:56 +0000";
};
width = 553;
}
);
rightMetricsKey = o;
unicode = 0068;
},
{
color = 4;
glyphname = h_strok;
layers = (
{
anchors = (
{
name = bottom;
position = "{274, 0}";
},
{
name = center;
position = "{274, 215}";
},
{
name = top;
position = "{274, 430}";
}
);
components = (
{
name = h;
}
);
layerId = "5FE47517-9953-4891-9518-AB2E2247E448";
paths = (
{
closed = 1;
nodes = (
"226 463 OFFCURVE",
"412 611 OFFCURVE",
"412 625 CURVE SMOOTH",
"412 639 OFFCURVE",
"383 685 OFFCURVE",
"347 722 CURVE",
"341 722 LINE",
"233 662 LINE",
"233 657 LINE",
"258 640 OFFCURVE",
"290 620 OFFCURVE",
"290 581 CURVE SMOOTH",
"290 545 OFFCURVE",
"153 450 OFFCURVE",
"123 421 CURVE",
"147 399 LINE"
);
}
);
userData = {
com.schriftgestaltung.Glyphs.ComponentInfo = (
{
alignment = -1;
index = 0;
name = h;
}
);
com.schriftgestaltung.Glyphs.lastChange = "2019-04-23 08:57:09 +0000";
};
width = 553;
}
);
leftMetricsKey = h;
rightMetricsKey = h;
},
{
color = 4;
glyphname = h_e_macr;
layers = (
{
anchors = (
{
name = bottom_1;
position = "{133, 0}";
},
{
name = bottom_2;
position = "{399, 0}";
},
{
name = bottom_3;
position = "{664, 0}";
},
{
name = caret_1;
position = "{265.667, 0}";
},
{
name = caret_2;
position = "{531.333, 0}";
},
{
name = center_1;
position = "{0, 0}";
},
{
name = center_2;
position = "{0, 0}";
},
{
name = center_3;
position = "{0, 0}";
},
{
name = top_1;
position = "{133, 430}";
},
{
name = top_2;
position = "{399, 430}";
},
{
name = top_3;
position = "{664, 430}";
}
);
components = (
{
name = e;
transform = "{1, 0, 0, 1, 420, 0}";
},
{
name = h;
}
);
layerId = "5FE47517-9953-4891-9518-AB2E2247E448";
paths = (
{
closed = 1;
nodes = (
"539 537 OFFCURVE",
"570 550 OFFCURVE",
"592 550 CURVE SMOOTH",
"615 550 OFFCURVE",
"674 543 OFFCURVE",
"698 543 CURVE SMOOTH",
"711 543 OFFCURVE",
"746 604 OFFCURVE",
"771 636 CURVE",
"743 645 LINE",
"729 639 OFFCURVE",
"716 637 OFFCURVE",
"694 637 CURVE SMOOTH",
"671 637 OFFCURVE",
"615 641 OFFCURVE",
"591 641 CURVE SMOOTH",
"579 641 OFFCURVE",
"524 568 OFFCURVE",
"498 536 CURVE",
"523 525 LINE"
);
}
);
userData = {
com.schriftgestaltung.Glyphs.ComponentInfo = (
{
alignment = -1;
index = 0;
name = e;
},
{
alignment = -1;
index = 1;
name = h;
}
);
com.schriftgestaltung.Glyphs.lastChange = "2019-04-23 08:57:12 +0000";
};
width = 821;
}
);
leftMetricsKey = h;
rightMetricsKey = e;
},
{
color = 4;
glyphname = i;
layers = (
{
anchors = (
{
name = bottom;
position = "{108, 0}";
}
);
layerId = "5FE47517-9953-4891-9518-AB2E2247E448";
paths = (
{
closed = 1;
nodes = (
"187 11 LINE",
"184 115 OFFCURVE",
"186 238 OFFCURVE",
"186 332 CURVE SMOOTH",
"186 418 OFFCURVE",
"140 464 OFFCURVE",
"72 445 CURVE",
"10 362 LINE",
"10 342 LINE",
"40 334 OFFCURVE",
"68 331 OFFCURVE",
"70 282 CURVE SMOOTH",
"72 200 OFFCURVE",
"72 103 OFFCURVE",
"68 -10 CURVE",
"75 -14 LINE"
);
},
{
closed = 1;
nodes = (
"114 550 LINE",
"191 714 LINE",
"191 717 LINE",
"153 733 LINE",
"150 732 LINE",
"104 588 LINE",
"111 550 LINE"
);
}
);
userData = {
com.schriftgestaltung.Glyphs.lastChange = "2019-03-28 15:56:55 +0000";
};
width = 236;
}
);
leftMetricsKey = n;
rightMetricsKey = n;
unicode = 0069;
},
{
color = 4;
glyphname = idotless;
layers = (
{
layerId = "5FE47517-9953-4891-9518-AB2E2247E448";
paths = (
{
closed = 1;
nodes = (
"187 11 LINE",
"184 115 OFFCURVE",
"186 238 OFFCURVE",
"186 332 CURVE SMOOTH",
"186 418 OFFCURVE",
"140 464 OFFCURVE",
"72 445 CURVE",
"10 362 LINE",
"10 342 LINE",
"40 334 OFFCURVE",
"68 331 OFFCURVE",
"70 282 CURVE SMOOTH",
"72 200 OFFCURVE",
"72 103 OFFCURVE",
"68 -10 CURVE",
"75 -14 LINE"
);
}
);
userData = {
com.schriftgestaltung.Glyphs.lastChange = "2019-04-13 12:37:27 +0000";
};
width = 232;
}
);
leftMetricsKey = i;
rightMetricsKey = i;
unicode = 0131;
},
{
color = 4;
glyphname = i.ss01;
layers = (
{
anchors = (
{
name = bottom;
position = "{123, 0}";
}
);
layerId = "5FE47517-9953-4891-9518-AB2E2247E448";
paths = (
{
closed = 1;
nodes = (
"153 -20 OFFCURVE",
"193 16 OFFCURVE",
"221 35 CURVE",
"221 54 LINE",
"190 68 OFFCURVE",
"187 80 OFFCURVE",
"186 97 CURVE SMOOTH",
"185 178 OFFCURVE",
"186 263 OFFCURVE",
"186 332 CURVE SMOOTH",
"186 418 OFFCURVE",
"140 464 OFFCURVE",
"72 445 CURVE",
"10 362 LINE",
"10 342 LINE",
"40 334 OFFCURVE",
"68 331 OFFCURVE",
"70 282 CURVE SMOOTH",
"72 200 OFFCURVE",
"74 148 OFFCURVE",
"70 35 CURVE SMOOTH",
"70 12 OFFCURVE",
"116 -20 OFFCURVE",
"140 -20 CURVE SMOOTH"
);
},
{
closed = 1;
nodes = (
"114 550 LINE",
"191 714 LINE",
"191 717 LINE",
"153 733 LINE",
"150 732 LINE",
"104 588 LINE",
"111 550 LINE"
);
}
);
userData = {
com.schriftgestaltung.Glyphs.lastChange = "2019-03-28 15:56:55 +0000";
};
width = 236;
}
);
leftMetricsKey = n;
},
{
color = 4;
glyphname = i.ss02;
layers = (
{
anchors = (
{
name = bottom;
position = "{109, 0}";
}
);
layerId = "5FE47517-9953-4891-9518-AB2E2247E448";
paths = (
{
closed = 1;
nodes = (
"129 -20 OFFCURVE",
"169 16 OFFCURVE",
"197 35 CURVE",
"197 54 LINE",
"166 68 OFFCURVE",
"163 80 OFFCURVE",
"162 97 CURVE SMOOTH",
"157 178 OFFCURVE",
"154 346 OFFCURVE",
"160 445 CURVE",
"150 449 LINE",
"104 413 OFFCURVE",
"75 390 OFFCURVE",
"45 368 CURVE",
"50 283 OFFCURVE",
"50 136 OFFCURVE",
"46 35 CURVE SMOOTH",
"45 12 OFFCURVE",
"92 -20 OFFCURVE",
"116 -20 CURVE SMOOTH"
);
},
{
closed = 1;
nodes = (
"90 550 LINE",
"167 714 LINE",
"167 717 LINE",
"129 733 LINE",
"126 732 LINE",
"80 588 LINE",
"87 550 LINE"
);
}
);
userData = {
com.schriftgestaltung.Glyphs.lastChange = "2019-03-28 15:56:55 +0000";
};
width = 212;
}
);
rightMetricsKey = i.ss01;
},
{
color = 4;
glyphname = i_hook;
layers = (
{
anchors = (
{
name = bottom;
position = "{120, 0}";
}
);
layerId = "5FE47517-9953-4891-9518-AB2E2247E448";
paths = (
{
closed = 1;
nodes = (
"187 11 LINE",
"184 115 OFFCURVE",
"186 238 OFFCURVE",
"186 332 CURVE SMOOTH",
"186 418 OFFCURVE",
"140 464 OFFCURVE",
"72 445 CURVE",
"10 362 LINE",
"10 342 LINE",
"40 334 OFFCURVE",
"68 331 OFFCURVE",
"70 282 CURVE SMOOTH",
"72 200 OFFCURVE",
"72 103 OFFCURVE",
"68 -10 CURVE",
"75 -14 LINE"
);
},
{
closed = 1;
nodes = (
"146 544 OFFCURVE",
"207 564 OFFCURVE",
"206.871 634.017 CURVE SMOOTH",
"207 674 OFFCURVE",
"180 700 OFFCURVE",
"146.244 724.491 CURVE",
"140.648 724.491 LINE",
"39.914 668.528 LINE",
"39.914 663.864 LINE",
"73 648 OFFCURVE",
"101 629 OFFCURVE",
"101 593 CURVE SMOOTH",
"101 559 OFFCURVE",
"58 531 OFFCURVE",
"20.327 504.369 CURVE",
"42.712 483.849 LINE"
);
}
);
userData = {
com.schriftgestaltung.Glyphs.lastChange = "2019-04-13 11:19:56 +0000";
};
width = 252;
}
);
leftMetricsKey = i;
rightMetricsKey = i;
},
{
color = 4;
glyphname = i_macr;
layers = (
{
anchors = (
{
name = bottom;
position = "{112, 0}";
}
);
layerId = "5FE47517-9953-4891-9518-AB2E2247E448";
paths = (
{
closed = 1;
nodes = (
"183 11 LINE",
"180 115 OFFCURVE",
"182 238 OFFCURVE",
"182 332 CURVE SMOOTH",
"182 418 OFFCURVE",
"136 464 OFFCURVE",
"68 445 CURVE",
"6 362 LINE",
"6 342 LINE",
"36 334 OFFCURVE",
"64 331 OFFCURVE",
"66 282 CURVE SMOOTH",
"68 200 OFFCURVE",
"68 103 OFFCURVE",
"64 -10 CURVE",
"71 -14 LINE"
);
},
{
closed = 1;
nodes = (
"21 567 OFFCURVE",
"52 580 OFFCURVE",
"74 580 CURVE SMOOTH",
"97 580 OFFCURVE",
"156 573 OFFCURVE",
"180 573 CURVE SMOOTH",
"193 573 OFFCURVE",
"228 634 OFFCURVE",
"253 666 CURVE",
"225 675 LINE",
"211 669 OFFCURVE",
"198 667 OFFCURVE",
"176 667 CURVE SMOOTH",
"153 667 OFFCURVE",
"97 671 OFFCURVE",
"73 671 CURVE SMOOTH",
"61 671 OFFCURVE",
"6 598 OFFCURVE",
"-20 566 CURVE",
"5 555 LINE"
);
}
);
userData = {
com.schriftgestaltung.Glyphs.lastChange = "2019-04-23 08:57:16 +0000";
};
width = 223;
}
);
unicode = 012B;
},
{
color = 4;
glyphname = i_j;
layers = (
{
anchors = (
{
name = bottom_1;
position = "{103, 0}";
},
{
name = bottom_2;
position = "{308, 0}";
},
{
name = caret_1;
position = "{205, 0}";
}
);
components = (
{
name = i;
}
);
layerId = "5FE47517-9953-4891-9518-AB2E2247E448";
paths = (
{
closed = 1;
nodes = (
"329 -77 OFFCURVE",
"367 -21 OFFCURVE",
"410 32 CURVE",
"402 136 OFFCURVE",
"401 178 OFFCURVE",
"401 329 CURVE SMOOTH",
"401 415 OFFCURVE",
"352 454 OFFCURVE",
"283 448 CURVE",
"170 361 LINE",
"170 325 LINE",
"219 368 OFFCURVE",
"287 339 OFFCURVE",
"287 263 CURVE SMOOTH",
"287 191 OFFCURVE",
"294 72 OFFCURVE",
"269 -143 CURVE",
"287 -149 LINE"
);
},
{
closed = 1;
nodes = (
"300 550 LINE",
"377 714 LINE",
"377 717 LINE",
"339 733 LINE",
"336 732 LINE",
"290 588 LINE",
"297 550 LINE"
);
}
);
userData = {
com.schriftgestaltung.Glyphs.lastChange = "2019-04-13 11:19:10 +0000";
};
width = 455;
}
);
leftMetricsKey = i;
rightMetricsKey = i;
},
{
color = 4;
glyphname = i_j_dotless;
layers = (
{
anchors = (
{
name = bottom;
position = "{108, 0}";
},
{
name = bottom_1;
position = "{103, 0}";
},
{
name = bottom_2;
position = "{308, 0}";
},
{
name = caret_1;
position = "{205, 0}";
}
);
layerId = "5FE47517-9953-4891-9518-AB2E2247E448";
paths = (
{
closed = 1;
nodes = (
"329 -77 OFFCURVE",
"367 -21 OFFCURVE",
"410 32 CURVE",
"402 136 OFFCURVE",
"401 178 OFFCURVE",
"401 329 CURVE SMOOTH",
"401 415 OFFCURVE",
"352 454 OFFCURVE",
"283 448 CURVE",
"170 361 LINE",
"170 325 LINE",
"219 368 OFFCURVE",
"287 339 OFFCURVE",
"287 263 CURVE SMOOTH",
"287 191 OFFCURVE",
"294 72 OFFCURVE",
"269 -143 CURVE",
"287 -149 LINE"
);
},
{
closed = 1;
nodes = (
"187 11 LINE",
"184 115 OFFCURVE",
"186 238 OFFCURVE",
"186 332 CURVE SMOOTH",
"186 418 OFFCURVE",
"140 464 OFFCURVE",
"72 445 CURVE",
"10 362 LINE",
"10 342 LINE",
"40 334 OFFCURVE",
"68 331 OFFCURVE",
"70 282 CURVE SMOOTH",
"72 200 OFFCURVE",
"72 103 OFFCURVE",
"68 -10 CURVE",
"75 -14 LINE"
);
}
);
userData = {
com.schriftgestaltung.Glyphs.lastChange = "2019-04-23 12:32:21 +0000";
};
width = 455;
}
);
leftMetricsKey = i;
rightMetricsKey = j;
},
{
color = 4;
glyphname = i_j_macr;
layers = (
{
anchors = (
{
name = bottom;
position = "{108, 0}";
},
{
name = bottom_1;
position = "{103, 0}";
},
{
name = bottom_2;
position = "{308, 0}";
},
{
name = caret_1;
position = "{205, 0}";
}
);
layerId = "5FE47517-9953-4891-9518-AB2E2247E448";
paths = (
{
closed = 1;
nodes = (
"187 11 LINE",
"184 115 OFFCURVE",
"186 238 OFFCURVE",
"186 332 CURVE SMOOTH",
"186 418 OFFCURVE",
"140 464 OFFCURVE",
"72 445 CURVE",
"10 362 LINE",
"10 342 LINE",
"40 334 OFFCURVE",
"68 331 OFFCURVE",
"70 282 CURVE SMOOTH",
"72 200 OFFCURVE",
"72 103 OFFCURVE",
"68 -10 CURVE",
"75 -14 LINE"
);
},
{
closed = 1;
nodes = (
"329 -77 OFFCURVE",
"367 -21 OFFCURVE",
"410 32 CURVE",
"402 136 OFFCURVE",
"401 178 OFFCURVE",
"401 329 CURVE SMOOTH",
"401 415 OFFCURVE",
"352 454 OFFCURVE",
"283 448 CURVE",
"170 361 LINE",
"170 325 LINE",
"219 368 OFFCURVE",
"287 339 OFFCURVE",
"287 263 CURVE SMOOTH",
"287 191 OFFCURVE",
"294 72 OFFCURVE",
"269 -143 CURVE",
"287 -149 LINE"
);
},
{
closed = 1;
nodes = (
"128 588 OFFCURVE",
"159 601 OFFCURVE",
"181 601 CURVE SMOOTH",
"204 601 OFFCURVE",
"263 594 OFFCURVE",
"287 594 CURVE SMOOTH",
"300 594 OFFCURVE",
"335 655 OFFCURVE",
"360 687 CURVE",
"332 696 LINE",
"318 690 OFFCURVE",
"305 688 OFFCURVE",
"283 688 CURVE SMOOTH",
"260 688 OFFCURVE",
"204 692 OFFCURVE",
"180 692 CURVE SMOOTH",
"168 692 OFFCURVE",
"113 619 OFFCURVE",
"87 587 CURVE",
"112 576 LINE"
);
}
);
userData = {
com.schriftgestaltung.Glyphs.lastChange = "2019-04-23 08:57:19 +0000";
};
width = 455;
}
);
leftMetricsKey = i;
rightMetricsKey = i;
},
{
color = 4;
glyphname = i_m;
layers = (
{
anchors = (
{
name = bottom_1;
position = "{81, 0}";
},
{
name = bottom_2;
position = "{620, 0}";
},
{
name = caret_1;
position = "{351, 0}";
}
);
components = (
{
name = i;
}
);
layerId = "5FE47517-9953-4891-9518-AB2E2247E448";
paths = (
{
closed = 1;
nodes = (
"637 0 LINE",
"634 115 OFFCURVE",
"634 229 OFFCURVE",
"634 344 CURVE SMOOTH",
"634 430 OFFCURVE",
"563 450 OFFCURVE",
"499 450 CURVE SMOOTH",
"487 450 OFFCURVE",
"453 394 OFFCURVE",
"384 333 CURVE",
"391 299 LINE",
"401 309 OFFCURVE",
"428 337 OFFCURVE",
"457 337 CURVE SMOOTH",
"475 337 OFFCURVE",
"507 328 OFFCURVE",
"511 300 CURVE SMOOTH",
"515 271 OFFCURVE",
"518 94 OFFCURVE",
"514 -4 CURVE",
"518 -6 LINE"
);
},
{
closed = 1;
nodes = (
"411 0 LINE",
"408 115 OFFCURVE",
"408 229 OFFCURVE",
"408 344 CURVE SMOOTH",
"408 430 OFFCURVE",
"337 450 OFFCURVE",
"273 450 CURVE SMOOTH",
"261 450 OFFCURVE",
"227 394 OFFCURVE",
"158 333 CURVE",
"165 299 LINE",
"175 309 OFFCURVE",
"202 337 OFFCURVE",
"231 337 CURVE SMOOTH",
"249 337 OFFCURVE",
"281 328 OFFCURVE",
"285 300 CURVE SMOOTH",
"289 271 OFFCURVE",
"292 94 OFFCURVE",
"288 -4 CURVE",
"292 -6 LINE"
);
},
{
closed = 1;
nodes = (
"869 0 LINE",
"866 115 OFFCURVE",
"866 229 OFFCURVE",
"866 344 CURVE SMOOTH",
"866 430 OFFCURVE",
"795 450 OFFCURVE",
"731 450 CURVE SMOOTH",
"719 450 OFFCURVE",
"685 394 OFFCURVE",
"616 333 CURVE",
"623 299 LINE",
"633 309 OFFCURVE",
"660 337 OFFCURVE",
"689 337 CURVE SMOOTH",
"707 337 OFFCURVE",
"741 328 OFFCURVE",
"743 300 CURVE SMOOTH",
"745 271 OFFCURVE",
"750 94 OFFCURVE",
"746 -4 CURVE",
"518 -6 LINE"
);
}
);
userData = {
com.schriftgestaltung.Glyphs.ComponentInfo = (
{
alignment = -1;
index = 0;
name = i;
}
);
com.schriftgestaltung.Glyphs.lastChange = "2019-03-28 15:56:55 +0000";
};
width = 914;
}
);
leftMetricsKey = i;
rightMetricsKey = m;
},
{
color = 4;
glyphname = i_n;
layers = (
{
anchors = (
{
name = bottom_1;
position = "{164, 0}";
},
{
name = bottom_2;
position = "{491, 0}";
},
{
name = caret_1;
position = "{327.5, 0}";
}
);
components = (
{
name = i;
}
);
layerId = "5FE47517-9953-4891-9518-AB2E2247E448";
paths = (
{
closed = 1;
nodes = (
"403 0 LINE",
"400 115 OFFCURVE",
"400 229 OFFCURVE",
"400 344 CURVE SMOOTH",
"400 430 OFFCURVE",
"329 450 OFFCURVE",
"265 450 CURVE SMOOTH",
"253 450 OFFCURVE",
"219 394 OFFCURVE",
"150 333 CURVE",
"157 299 LINE",
"167 309 OFFCURVE",
"194 337 OFFCURVE",
"223 337 CURVE SMOOTH",
"241 337 OFFCURVE",
"273 328 OFFCURVE",
"277 300 CURVE SMOOTH",
"281 271 OFFCURVE",
"284 94 OFFCURVE",
"280 -4 CURVE",
"284 -6 LINE"
);
},
{
closed = 1;
nodes = (
"635 0 LINE",
"632 115 OFFCURVE",
"632 229 OFFCURVE",
"632 344 CURVE SMOOTH",
"632 430 OFFCURVE",
"561 450 OFFCURVE",
"497 450 CURVE SMOOTH",
"485 450 OFFCURVE",
"451 394 OFFCURVE",
"382 333 CURVE",
"389 299 LINE",
"399 309 OFFCURVE",
"426 337 OFFCURVE",
"455 337 CURVE SMOOTH",
"473 337 OFFCURVE",
"507 328 OFFCURVE",
"509 300 CURVE SMOOTH",
"511 271 OFFCURVE",
"516 94 OFFCURVE",
"512 -4 CURVE",
"284 -6 LINE"
);
}
);
userData = {
com.schriftgestaltung.Glyphs.ComponentInfo = (
{
alignment = -1;
index = 0;
name = i;
}
);
com.schriftgestaltung.Glyphs.lastChange = "2019-03-28 15:56:55 +0000";
};
width = 655;
}
);
leftMetricsKey = i;
},
{
color = 4;
glyphname = i_u;
layers = (
{
anchors = (
{
name = bottom_1;
position = "{171, 0}";
},
{
name = bottom_2;
position = "{514, 0}";
},
{
name = caret_1;
position = "{342.5, 0}";
}
);
components = (
{
name = u;
transform = "{1, 0, 0, 1, 221, 0}";
}
);
layerId = "5FE47517-9953-4891-9518-AB2E2247E448";
paths = (
{
closed = 1;
nodes = (
"167 -20 OFFCURVE",
"273 50 OFFCURVE",
"301 69 CURVE",
"301 114 LINE",
"286 101 OFFCURVE",
"245 67 OFFCURVE",
"218 67 CURVE SMOOTH",
"190 67 OFFCURVE",
"177 87 OFFCURVE",
"176 116 CURVE SMOOTH",
"175 177 OFFCURVE",
"176 263 OFFCURVE",
"176 332 CURVE SMOOTH",
"176 418 OFFCURVE",
"130 464 OFFCURVE",
"62 445 CURVE",
"0 362 LINE",
"0 342 LINE",
"30 334 OFFCURVE",
"58 331 OFFCURVE",
"60 282 CURVE SMOOTH",
"62 200 OFFCURVE",
"64 148 OFFCURVE",
"62 65 CURVE SMOOTH",
"60 12 OFFCURVE",
"90 -20 OFFCURVE",
"134 -20 CURVE SMOOTH"
);
},
{
closed = 1;
nodes = (
"104 550 LINE",
"181 714 LINE",
"181 717 LINE",
"143 733 LINE",
"140 732 LINE",
"94 588 LINE",
"101 550 LINE"
);
}
);
userData = {
com.schriftgestaltung.Glyphs.lastChange = "2019-03-28 15:56:55 +0000";
};
width = 685;
}
);
},
{
color = 4;
glyphname = i_u_macr;
layers = (
{
components = (
{
name = u_macr;
transform = "{1, 0, 0, 1, 216, 0}";
}
);
layerId = "5FE47517-9953-4891-9518-AB2E2247E448";
paths = (
{
closed = 1;
nodes = (
"177 -20 OFFCURVE",
"283 50 OFFCURVE",
"311 69 CURVE",
"311 114 LINE",
"296 101 OFFCURVE",
"255 67 OFFCURVE",
"228 67 CURVE SMOOTH",
"200 67 OFFCURVE",
"187 87 OFFCURVE",
"186 116 CURVE SMOOTH",
"185 177 OFFCURVE",
"186 263 OFFCURVE",
"186 332 CURVE SMOOTH",
"186 418 OFFCURVE",
"140 464 OFFCURVE",
"72 445 CURVE",
"10 362 LINE",
"10 342 LINE",
"40 334 OFFCURVE",
"68 331 OFFCURVE",
"70 282 CURVE SMOOTH",
"72 200 OFFCURVE",
"74 148 OFFCURVE",
"72 65 CURVE SMOOTH",
"70 12 OFFCURVE",
"100 -20 OFFCURVE",
"144 -20 CURVE SMOOTH"
);
},
{
closed = 1;
nodes = (
"114 550 LINE",
"191 714 LINE",
"191 717 LINE",
"153 733 LINE",
"150 732 LINE",
"104 588 LINE",
"111 550 LINE"
);
}
);
userData = {
com.schriftgestaltung.Glyphs.lastChange = "2019-03-28 15:56:55 +0000";
};
width = 680;
}
);
leftMetricsKey = i;
rightMetricsKey = u;
},
{
color = 6;
glyphname = j;
layers = (
{
layerId = "5FE47517-9953-4891-9518-AB2E2247E448";
paths = (
{
closed = 1;
nodes = (
"109 -77 OFFCURVE",
"147 -21 OFFCURVE",
"190 32 CURVE",
"182 136 OFFCURVE",
"177 178 OFFCURVE",
"185 329 CURVE SMOOTH",
"190 415 OFFCURVE",
"144 463 OFFCURVE",
"75 447 CURVE",
"10 365 LINE",
"10 345 LINE",
"39 336 OFFCURVE",
"67 332 OFFCURVE",
"67 283 CURVE SMOOTH",
"67 201 OFFCURVE",
"74 72 OFFCURVE",
"49 -143 CURVE",
"67 -149 LINE"
);
},
{
closed = 1;
nodes = (
"109 550 LINE",
"186 714 LINE",
"186 717 LINE",
"148 733 LINE",
"145 732 LINE",
"99 588 LINE",
"106 550 LINE"
);
}
);
userData = {
com.schriftgestaltung.Glyphs.lastChange = "2019-03-28 15:56:55 +0000";
};
width = 235;
}
);
leftMetricsKey = i;
unicode = 006A;
},
{
color = 4;
glyphname = k;
layers = (
{
layerId = "5FE47517-9953-4891-9518-AB2E2247E448";
paths = (
{
closed = 1;
nodes = (
"421 0 LINE",
"425 20 OFFCURVE",
"430 48 OFFCURVE",
"430 79 CURVE SMOOTH",
"430 149 OFFCURVE",
"358 218 OFFCURVE",
"254 233 CURVE",
"258 226 LINE",
"291 252 OFFCURVE",
"324 275 OFFCURVE",
"357 305 CURVE",
"417 390 OFFCURVE",
"308 450 OFFCURVE",
"278 450 CURVE SMOOTH",
"254 450 OFFCURVE",
"183 387 OFFCURVE",
"131 348 CURVE",
"145 328 LINE",
"199 368 OFFCURVE",
"271 356 OFFCURVE",
"271 296 CURVE SMOOTH",
"271 262 OFFCURVE",
"228 238 OFFCURVE",
"186 211 CURVE SMOOTH",
"127 173 LINE",
"147 155 LINE",
"166 163 LINE",
"280 153 OFFCURVE",
"363 87 OFFCURVE",
"317 21 CURVE",
"321 18 LINE",
"382 -15 LINE"
);
},
{
closed = 1;
nodes = (
"159 0 LINE",
"157 163 OFFCURVE",
"148 162 OFFCURVE",
"167 718 CURVE",
"159 720 LINE",
"47 686 LINE",
"61 592 OFFCURVE",
"61 511 OFFCURVE",
"61 445 CURVE SMOOTH",
"61 413 OFFCURVE",
"47 379 OFFCURVE",
"10 341 CURVE",
"10 332 LINE",
"30 311 OFFCURVE",
"62 282 OFFCURVE",
"62 215 CURVE SMOOTH",
"62 155 OFFCURVE",
"59 46 OFFCURVE",
"39 26 CURVE",
"40 -1 LINE"
);
}
);
userData = {
com.schriftgestaltung.Glyphs.lastChange = "2019-03-28 15:56:55 +0000";
};
width = 435;
}
);
unicode = 006B;
},
{
color = 4;
glyphname = l;
layers = (
{
anchors = (
{
name = bottom;
position = "{109, 0}";
},
{
name = center;
position = "{109, 215}";
},
{
name = top;
position = "{109, 430}";
},
{
name = topright;
position = "{198, 430}";
}
);
layerId = "5FE47517-9953-4891-9518-AB2E2247E448";
paths = (
{
closed = 1;
nodes = (
"140 -19 OFFCURVE",
"180 17 OFFCURVE",
"208 36 CURVE",
"208 55 LINE",
"174 71 OFFCURVE",
"173 83 OFFCURVE",
"172 103 CURVE SMOOTH",
"161 307 OFFCURVE",
"167 501 OFFCURVE",
"170 718 CURVE",
"162 720 LINE",
"47 666 LINE",
"58 582 OFFCURVE",
"61 511 OFFCURVE",
"61 445 CURVE SMOOTH",
"61 413 OFFCURVE",
"47 379 OFFCURVE",
"10 341 CURVE",
"10 332 LINE",
"30 311 OFFCURVE",
"62 282 OFFCURVE",
"62 215 CURVE SMOOTH",
"62 155 OFFCURVE",
"57 96 OFFCURVE",
"57 36 CURVE SMOOTH",
"57 13 OFFCURVE",
"103 -19 OFFCURVE",
"127 -19 CURVE SMOOTH"
);
}
);
userData = {
com.schriftgestaltung.Glyphs.lastChange = "2019-01-07 10:00:03 +0000";
};
width = 218;
}
);
unicode = 006C;
},
{
color = 4;
glyphname = l_strok;
layers = (
{
anchors = (
{
name = bottom;
position = "{184, 0}";
},
{
name = center;
position = "{184, 215}";
},
{
name = top;
position = "{184, 430}";
},
{
name = topright;
position = "{372, 430}";
}
);
components = (
{
name = l;
}
);
layerId = "5FE47517-9953-4891-9518-AB2E2247E448";
paths = (
{
closed = 1;
nodes = (
"201 459 OFFCURVE",
"387 607 OFFCURVE",
"387 621 CURVE SMOOTH",
"387 635 OFFCURVE",
"378 681 OFFCURVE",
"342 718 CURVE",
"336 718 LINE",
"208 688 LINE",
"208 677 LINE",
"243 660 OFFCURVE",
"274 644 OFFCURVE",
"274 605 CURVE SMOOTH",
"274 560 OFFCURVE",
"128 446 OFFCURVE",
"98 417 CURVE",
"122 395 LINE"
);
}
);
userData = {
com.schriftgestaltung.Glyphs.ComponentInfo = (
{
alignment = -1;
index = 0;
name = l;
}
);
com.schriftgestaltung.Glyphs.lastChange = "2019-04-13 11:20:51 +0000";
};
width = 232;
}
);
leftMetricsKey = l;
unicode = A769;
},
{
color = 4;
glyphname = l_l;
layers = (
{
anchors = (
{
name = bottom_1;
position = "{135, 0}";
},
{
name = bottom_2;
position = "{334, 0}";
},
{
name = caret_1;
position = "{235, 0}";
},
{
name = center_1;
position = "{35, 0}";
},
{
name = center_2;
position = "{35, 0}";
},
{
name = top_1;
position = "{135, 430}";
},
{
name = top_2;
position = "{334, 430}";
},
{
name = topright_1;
position = "{35, 0}";
},
{
name = topright_2;
position = "{35, 0}";
}
);
layerId = "5FE47517-9953-4891-9518-AB2E2247E448";
paths = (
{
closed = 1;
nodes = (
"178 -19 OFFCURVE",
"268 58 OFFCURVE",
"296 77 CURVE",
"296 114 LINE",
"280 102 OFFCURVE",
"240 68 OFFCURVE",
"214 68 CURVE SMOOTH",
"186 68 OFFCURVE",
"166 88 OFFCURVE",
"165 112 CURVE SMOOTH",
"156 316 OFFCURVE",
"158 501 OFFCURVE",
"165 718 CURVE",
"157 720 LINE",
"45 666 LINE",
"59 582 OFFCURVE",
"58 125 OFFCURVE",
"55 55 CURVE SMOOTH",
"54 32 OFFCURVE",
"121 -19 OFFCURVE",
"145 -19 CURVE SMOOTH"
);
},
{
closed = 1;
nodes = (
"346 -19 OFFCURVE",
"396 18 OFFCURVE",
"424 43 CURVE",
"424 65 LINE",
"390 68 OFFCURVE",
"376 83 OFFCURVE",
"375 103 CURVE SMOOTH",
"369 307 OFFCURVE",
"372 501 OFFCURVE",
"379 718 CURVE",
"371 720 LINE",
"255 666 LINE",
"269 582 OFFCURVE",
"273 136 OFFCURVE",
"263 66 CURVE SMOOTH",
"260 43 OFFCURVE",
"309 -19 OFFCURVE",
"333 -19 CURVE SMOOTH"
);
}
);
userData = {
com.schriftgestaltung.Glyphs.lastChange = "2019-01-14 09:56:04 +0000";
};
width = 434;
}
);
rightMetricsKey = l;
},
{
color = 4;
glyphname = m;
layers = (
{
anchors = (
{
name = bottom;
position = "{338, 0}";
},
{
name = top;
position = "{338, 430}";
}
);
layerId = "5FE47517-9953-4891-9518-AB2E2247E448";
paths = (
{
closed = 1;
nodes = (
"424 0 LINE",
"421 115 OFFCURVE",
"421 229 OFFCURVE",
"421 344 CURVE SMOOTH",
"421 430 OFFCURVE",
"350 450 OFFCURVE",
"286 450 CURVE SMOOTH",
"274 450 OFFCURVE",
"240 394 OFFCURVE",
"171 333 CURVE",
"178 299 LINE",
"188 309 OFFCURVE",
"215 337 OFFCURVE",
"244 337 CURVE SMOOTH",
"262 337 OFFCURVE",
"294 328 OFFCURVE",
"298 300 CURVE SMOOTH",
"302 271 OFFCURVE",
"305 94 OFFCURVE",
"301 -4 CURVE",
"305 -6 LINE"
);
},
{
closed = 1;
nodes = (
"195 0 LINE",
"191 105 OFFCURVE",
"190 205 OFFCURVE",
"191 310 CURVE SMOOTH",
"191 326 LINE",
"191 348 LINE SMOOTH",
"191 414 OFFCURVE",
"137 450 OFFCURVE",
"83 450 CURVE SMOOTH",
"77 450 OFFCURVE",
"44 397 OFFCURVE",
"10 357 CURVE",
"10 332 LINE",
"43 332 OFFCURVE",
"76 329 OFFCURVE",
"76 271 CURVE SMOOTH",
"76 -5 LINE",
"80 -7 LINE"
);
},
{
closed = 1;
nodes = (
"656 0 LINE",
"653 115 OFFCURVE",
"653 229 OFFCURVE",
"653 344 CURVE SMOOTH",
"653 430 OFFCURVE",
"582 450 OFFCURVE",
"518 450 CURVE SMOOTH",
"506 450 OFFCURVE",
"472 394 OFFCURVE",
"403 333 CURVE",
"410 299 LINE",
"420 309 OFFCURVE",
"447 337 OFFCURVE",
"476 337 CURVE SMOOTH",
"494 337 OFFCURVE",
"528 328 OFFCURVE",
"530 300 CURVE SMOOTH",
"532 271 OFFCURVE",
"537 94 OFFCURVE",
"533 -4 CURVE",
"305 -6 LINE"
);
}
);
userData = {
com.schriftgestaltung.Glyphs.lastChange = "2019-03-28 15:56:55 +0000";
};
width = 701;
}
);
leftMetricsKey = n;
rightMetricsKey = n;
unicode = 006D;
},
{
color = 4;
glyphname = m_macr;
layers = (
{
anchors = (
{
name = bottom;
position = "{338, 0}";
},
{
name = top;
position = "{338, 430}";
}
);
components = (
{
name = m;
}
);
layerId = "5FE47517-9953-4891-9518-AB2E2247E448";
paths = (
{
closed = 1;
nodes = (
"270 537 OFFCURVE",
"301 550 OFFCURVE",
"323 550 CURVE SMOOTH",
"346 550 OFFCURVE",
"405 543 OFFCURVE",
"429 543 CURVE SMOOTH",
"442 543 OFFCURVE",
"477 604 OFFCURVE",
"502 636 CURVE",
"474 645 LINE",
"460 639 OFFCURVE",
"447 637 OFFCURVE",
"425 637 CURVE SMOOTH",
"402 637 OFFCURVE",
"346 641 OFFCURVE",
"322 641 CURVE SMOOTH",
"310 641 OFFCURVE",
"255 568 OFFCURVE",
"229 536 CURVE",
"254 525 LINE"
);
}
);
userData = {
com.schriftgestaltung.Glyphs.ComponentInfo = (
{
alignment = -1;
index = 0;
name = m;
}
);
com.schriftgestaltung.Glyphs.lastChange = "2019-04-23 08:58:37 +0000";
};
width = 676;
}
);
unicode = E5B8;
},
{
color = 4;
glyphname = m_i;
layers = (
{
anchors = (
{
name = bottom_1;
position = "{222, 0}";
},
{
name = bottom_2;
position = "{665, 0}";
},
{
name = caret_1;
position = "{443.5, 0}";
},
{
name = top_1;
position = "{222, 430}";
},
{
name = top_2;
position = "{665, 430}";
}
);
layerId = "5FE47517-9953-4891-9518-AB2E2247E448";
paths = (
{
closed = 1;
nodes = (
"635 0 LINE",
"632 115 OFFCURVE",
"632 229 OFFCURVE",
"632 344 CURVE SMOOTH",
"632 430 OFFCURVE",
"561 450 OFFCURVE",
"497 450 CURVE SMOOTH",
"485 450 OFFCURVE",
"451 394 OFFCURVE",
"382 333 CURVE",
"389 299 LINE",
"399 309 OFFCURVE",
"426 337 OFFCURVE",
"455 337 CURVE SMOOTH",
"473 337 OFFCURVE",
"505 328 OFFCURVE",
"509 300 CURVE SMOOTH",
"513 271 OFFCURVE",
"516 94 OFFCURVE",
"512 -4 CURVE",
"516 -6 LINE"
);
},
{
closed = 1;
nodes = (
"187 11 LINE",
"184 115 OFFCURVE",
"186 238 OFFCURVE",
"186 332 CURVE SMOOTH",
"186 418 OFFCURVE",
"140 464 OFFCURVE",
"72 445 CURVE",
"10 362 LINE",
"10 342 LINE",
"40 334 OFFCURVE",
"68 331 OFFCURVE",
"70 282 CURVE SMOOTH",
"73 200 OFFCURVE",
"72 103 OFFCURVE",
"68 -10 CURVE",
"75 -14 LINE"
);
},
{
closed = 1;
nodes = (
"409 0 LINE",
"406 115 OFFCURVE",
"406 229 OFFCURVE",
"406 344 CURVE SMOOTH",
"406 430 OFFCURVE",
"335 450 OFFCURVE",
"271 450 CURVE SMOOTH",
"259 450 OFFCURVE",
"225 394 OFFCURVE",
"156 333 CURVE",
"163 299 LINE",
"173 309 OFFCURVE",
"200 337 OFFCURVE",
"229 337 CURVE SMOOTH",
"247 337 OFFCURVE",
"279 328 OFFCURVE",
"283 300 CURVE SMOOTH",
"287 271 OFFCURVE",
"290 94 OFFCURVE",
"286 -4 CURVE",
"290 -6 LINE"
);
},
{
closed = 1;
nodes = (
"867 0 LINE",
"864 115 OFFCURVE",
"864 229 OFFCURVE",
"864 344 CURVE SMOOTH",
"864 430 OFFCURVE",
"793 450 OFFCURVE",
"729 450 CURVE SMOOTH",
"717 450 OFFCURVE",
"683 394 OFFCURVE",
"614 333 CURVE",
"621 299 LINE",
"631 309 OFFCURVE",
"658 337 OFFCURVE",
"687 337 CURVE SMOOTH",
"705 337 OFFCURVE",
"739 328 OFFCURVE",
"741 300 CURVE SMOOTH",
"743 271 OFFCURVE",
"748 94 OFFCURVE",
"744 -4 CURVE",
"516 -6 LINE"
);
},
{
closed = 1;
nodes = (
"768 536 LINE",
"845 700 LINE",
"845 703 LINE",
"807 719 LINE",
"804 718 LINE",
"758 574 LINE",
"765 536 LINE"
);
}
);
userData = {
com.schriftgestaltung.Glyphs.lastChange = "2019-03-28 15:56:55 +0000";
};
width = 912;
}
);
leftMetricsKey = m;
rightMetricsKey = "=i";
},
{
color = 4;
glyphname = n;
layers = (
{
anchors = (
{
name = bottom;
position = "{230, 0}";
},
{
name = top;
position = "{230, 430}";
}
);
layerId = "5FE47517-9953-4891-9518-AB2E2247E448";
paths = (
{
closed = 1;
nodes = (
"187 298 LINE",
"195 307 OFFCURVE",
"227 337 OFFCURVE",
"257 337 CURVE SMOOTH",
"280 337 OFFCURVE",
"311 329 OFFCURVE",
"311 293 CURVE SMOOTH",
"311 264 OFFCURVE",
"311 98 OFFCURVE",
"311 -4 CURVE",
"315 -6 LINE",
"434 0 LINE",
"431 115 OFFCURVE",
"431 229 OFFCURVE",
"431 344 CURVE SMOOTH",
"431 430 OFFCURVE",
"360 450 OFFCURVE",
"296 450 CURVE SMOOTH",
"284 450 OFFCURVE",
"248 396 OFFCURVE",
"177 332 CURVE"
);
},
{
closed = 1;
nodes = (
"191 338 CURVE",
"191 404 OFFCURVE",
"137 450 OFFCURVE",
"83 450 CURVE SMOOTH",
"77 450 OFFCURVE",
"44 397 OFFCURVE",
"10 357 CURVE",
"10 332 LINE",
"43 332 OFFCURVE",
"76 329 OFFCURVE",
"76 271 CURVE SMOOTH",
"76 -5 LINE",
"80 -7 LINE",
"195 0 LINE",
"191 101 OFFCURVE",
"190 188 OFFCURVE"
);
}
);
userData = {
com.schriftgestaltung.Glyphs.lastChange = "2019-04-13 11:37:18 +0000";
};
width = 479;
}
);
unicode = 006E;
},
{
color = 4;
glyphname = n_hook;
layers = (
{
anchors = (
{
name = bottom;
position = "{230, 0}";
},
{
name = top;
position = "{230, 430}";
}
);
layerId = "5FE47517-9953-4891-9518-AB2E2247E448";
paths = (
{
closed = 1;
nodes = (
"296 540 OFFCURVE",
"368 619 OFFCURVE",
"368 633 CURVE SMOOTH",
"368 675 OFFCURVE",
"344 717 OFFCURVE",
"286 725 CURVE",
"280 725 LINE",
"197 668 LINE",
"197 663 LINE",
"241 646 OFFCURVE",
"262 626 OFFCURVE",
"262 589 CURVE SMOOTH",
"262 555 OFFCURVE",
"226 508 OFFCURVE",
"198 480 CURVE",
"220 460 LINE"
);
},
{
closed = 1;
nodes = (
"187 298 LINE",
"195 307 OFFCURVE",
"227 337 OFFCURVE",
"257 337 CURVE SMOOTH",
"290 337 OFFCURVE",
"311 319 OFFCURVE",
"311 283 CURVE SMOOTH",
"311 254 OFFCURVE",
"311 98 OFFCURVE",
"311 -4 CURVE",
"315 -6 LINE",
"434 50 LINE",
"431 165 OFFCURVE",
"431 229 OFFCURVE",
"431 344 CURVE SMOOTH",
"431 430 OFFCURVE",
"394 450 OFFCURVE",
"350 450 CURVE SMOOTH",
"338 450 OFFCURVE",
"243 398 OFFCURVE",
"181 335 CURVE"
);
},
{
closed = 1;
nodes = (
"191 338 CURVE SMOOTH",
"191 404 OFFCURVE",
"137 450 OFFCURVE",
"83 450 CURVE SMOOTH",
"77 450 OFFCURVE",
"44 397 OFFCURVE",
"10 357 CURVE",
"10 332 LINE",
"43 332 OFFCURVE",
"76 329 OFFCURVE",
"76 271 CURVE SMOOTH",
"76 -5 LINE",
"80 -7 LINE",
"195 40 LINE",
"191 155 OFFCURVE",
"190 205 OFFCURVE"
);
}
);
userData = {
com.schriftgestaltung.Glyphs.lastChange = "2019-04-13 11:37:59 +0000";
};
width = 459;
}
);
},
{
color = 4;
glyphname = n_macr;
layers = (
{
anchors = (
{
name = bottom;
position = "{230, 0}";
},
{
name = top;
position = "{230, 430}";
}
);
components = (
{
name = n;
}
);
layerId = "5FE47517-9953-4891-9518-AB2E2247E448";
paths = (
{
closed = 1;
nodes = (
"141.31 581.485 OFFCURVE",
"176.971 596.806 OFFCURVE",
"202.98 598.476 CURVE SMOOTH",
"230.171 600.221 OFFCURVE",
"300.454 597.717 OFFCURVE",
"328.827 599.538 CURVE SMOOTH",
"344.196 600.525 OFFCURVE",
"380.939 664.033 OFFCURVE",
"408.063 697.852 CURVE",
"374.277 704.705 LINE",
"358.182 697.657 OFFCURVE",
"342.965 694.675 OFFCURVE",
"316.956 693.005 CURVE SMOOTH",
"289.765 691.26 OFFCURVE",
"223.257 691 OFFCURVE",
"194.883 689.178 CURVE SMOOTH",
"180.697 688.267 OFFCURVE",
"121.221 611.271 OFFCURVE",
"92.915 577.375 CURVE",
"123.306 568.3 LINE"
);
}
);
userData = {
com.schriftgestaltung.Glyphs.ComponentInfo = (
{
alignment = -1;
index = 0;
name = n;
}
);
com.schriftgestaltung.Glyphs.lastChange = "2019-04-23 08:58:33 +0000";
};
width = 479;
}
);
rightMetricsKey = "=n";
unicode = E5DC;
},
{
color = 4;
glyphname = n_i;
layers = (
{
anchors = (
{
name = bottom_1;
position = "{168, 0}";
},
{
name = bottom_2;
position = "{503, 0}";
},
{
name = caret_1;
position = "{335, 0}";
},
{
name = top_1;
position = "{168, 430}";
},
{
name = top_2;
position = "{503, 430}";
}
);
layerId = "5FE47517-9953-4891-9518-AB2E2247E448";
paths = (
{
closed = 1;
nodes = (
"413 0 LINE",
"410 115 OFFCURVE",
"410 229 OFFCURVE",
"410 344 CURVE SMOOTH",
"410 430 OFFCURVE",
"339 450 OFFCURVE",
"275 450 CURVE SMOOTH",
"263 450 OFFCURVE",
"229 394 OFFCURVE",
"160 333 CURVE",
"167 299 LINE",
"177 309 OFFCURVE",
"204 337 OFFCURVE",
"233 337 CURVE SMOOTH",
"251 337 OFFCURVE",
"283 328 OFFCURVE",
"287 300 CURVE SMOOTH",
"291 271 OFFCURVE",
"294 94 OFFCURVE",
"290 -4 CURVE",
"294 -6 LINE"
);
},
{
closed = 1;
nodes = (
"187 11 LINE",
"184 115 OFFCURVE",
"186 238 OFFCURVE",
"186 332 CURVE SMOOTH",
"186 418 OFFCURVE",
"140 464 OFFCURVE",
"72 445 CURVE",
"10 362 LINE",
"10 342 LINE",
"40 334 OFFCURVE",
"68 331 OFFCURVE",
"70 282 CURVE SMOOTH",
"72 200 OFFCURVE",
"72 103 OFFCURVE",
"68 -10 CURVE",
"75 -14 LINE"
);
},
{
closed = 1;
nodes = (
"645 0 LINE",
"642 115 OFFCURVE",
"642 229 OFFCURVE",
"642 344 CURVE SMOOTH",
"642 430 OFFCURVE",
"571 450 OFFCURVE",
"507 450 CURVE SMOOTH",
"495 450 OFFCURVE",
"461 394 OFFCURVE",
"392 333 CURVE",
"399 299 LINE",
"409 309 OFFCURVE",
"436 337 OFFCURVE",
"465 337 CURVE SMOOTH",
"483 337 OFFCURVE",
"517 328 OFFCURVE",
"519 300 CURVE SMOOTH",
"521 271 OFFCURVE",
"526 94 OFFCURVE",
"522 -4 CURVE",
"294 -6 LINE"
);
},
{
closed = 1;
nodes = (
"538 536 LINE",
"615 700 LINE",
"615 703 LINE",
"577 719 LINE",
"574 718 LINE",
"528 574 LINE",
"535 536 LINE"
);
}
);
userData = {
com.schriftgestaltung.Glyphs.lastChange = "2019-03-28 15:56:55 +0000";
};
width = 690;
}
);
leftMetricsKey = n;
rightMetricsKey = "=n";
},
{
color = 4;
glyphname = o;
layers = (
{
anchors = (
{
name = bottom;
position = "{227, 0}";
},
{
name = center;
position = "{227, 215}";
},
{
name = ogonek;
position = "{408, 10}";
},
{
name = top;
position = "{227, 430}";
},
{
name = topright;
position = "{433, 430}";
}
);
layerId = "5FE47517-9953-4891-9518-AB2E2247E448";
paths = (
{
closed = 1;
nodes = (
"234 -21 OFFCURVE",
"347 64 OFFCURVE",
"392 100 CURVE",
"422 132 OFFCURVE",
"438 198 OFFCURVE",
"438 234 CURVE SMOOTH",
"438 365 OFFCURVE",
"335 441 OFFCURVE",
"261 450 CURVE",
"224 440 OFFCURVE",
"99 349 OFFCURVE",
"71 330 CURVE",
"43 302 OFFCURVE",
"14 252 OFFCURVE",
"14 194 CURVE SMOOTH",
"14 79 OFFCURVE",
"102 -11 OFFCURVE",
"195 -21 CURVE"
);
},
{
closed = 1;
nodes = (
"254 60 OFFCURVE",
"122 90 OFFCURVE",
"122 247 CURVE SMOOTH",
"122 311 OFFCURVE",
"155 351 OFFCURVE",
"178 355 CURVE SMOOTH",
"224 362 OFFCURVE",
"322 318 OFFCURVE",
"322 183 CURVE SMOOTH",
"322 124 OFFCURVE",
"299 76 OFFCURVE",
"277 68 CURVE SMOOTH"
);
}
);
userData = {
com.schriftgestaltung.Glyphs.lastChange = "2019-04-13 11:32:20 +0000";
};
width = 453;
}
);
unicode = 006F;
},
{
color = 4;
glyphname = o_macr;
layers = (
{
anchors = (
{
name = bottom;
position = "{227, 0}";
},
{
name = center;
position = "{227, 215}";
},
{
name = ogonek;
position = "{408, 10}";
},
{
name = top;
position = "{227, 430}";
},
{
name = topright;
position = "{433, 430}";
}
);
components = (
{
name = o;
}
);
layerId = "5FE47517-9953-4891-9518-AB2E2247E448";
paths = (
{
closed = 1;
nodes = (
"135.152 563.579 OFFCURVE",
"168.726 578.958 OFFCURVE",
"193.196 580.669 CURVE SMOOTH",
"218.778 582.458 OFFCURVE",
"284.89 580.064 OFFCURVE",
"311.585 581.931 CURVE SMOOTH",
"326.044 582.942 OFFCURVE",
"360.718 646.516 OFFCURVE",
"386.293 680.382 CURVE",
"354.521 687.182 LINE",
"339.368 680.108 OFFCURVE",
"325.048 677.102 OFFCURVE",
"300.578 675.391 CURVE SMOOTH",
"274.996 673.602 OFFCURVE",
"212.43 673.236 OFFCURVE",
"185.735 671.37 CURVE SMOOTH",
"172.388 670.436 OFFCURVE",
"116.306 593.336 OFFCURVE",
"89.619 559.392 CURVE",
"118.193 550.364 LINE"
);
}
);
userData = {
com.schriftgestaltung.Glyphs.ComponentInfo = (
{
alignment = -1;
index = 0;
name = o;
}
);
com.schriftgestaltung.Glyphs.lastChange = "2019-04-23 08:58:29 +0000";
};
width = 453;
}
);
leftMetricsKey = o;
rightMetricsKey = o;
unicode = 014D;
},
{
color = 4;
glyphname = o_ra;
layers = (
{
anchors = (
{
name = bottom;
position = "{239, 0}";
},
{
name = center;
position = "{239, 215}";
},
{
name = ogonek;
position = "{420, 10}";
},
{
name = top;
position = "{239, 430}";
},
{
name = topright;
position = "{445, 430}";
}
);
components = (
{
name = o;
transform = "{1, 0, 0, 1, 12, 0}";
}
);
layerId = "5FE47517-9953-4891-9518-AB2E2247E448";
paths = (
{
closed = 1;
nodes = (
"190 544 OFFCURVE",
"249 593 OFFCURVE",
"259 593 CURVE",
"282 577 OFFCURVE",
"302 531 OFFCURVE",
"332 531 CURVE",
"367 541 OFFCURVE",
"414 568 OFFCURVE",
"473 626 CURVE",
"458 652 LINE",
"431 619 OFFCURVE",
"404 621 OFFCURVE",
"384 620 CURVE",
"356 620 OFFCURVE",
"330 645 OFFCURVE",
"320 685 CURVE",
"312 687 LINE",
"287 652 OFFCURVE",
"267 617 OFFCURVE",
"218 617 CURVE SMOOTH",
"187 617 OFFCURVE",
"161 645 OFFCURVE",
"159 698 CURVE",
"151 698 LINE",
"132 683 OFFCURVE",
"45 618 OFFCURVE",
"14 585 CURVE",
"32 564 LINE",
"32 560 OFFCURVE",
"52 589 OFFCURVE",
"80 583 CURVE SMOOTH",
"115 576 OFFCURVE",
"141 529 OFFCURVE",
"152 529 CURVE"
);
}
);
userData = {
com.schriftgestaltung.Glyphs.ComponentInfo = (
{
alignment = -1;
index = 0;
name = o;
}
);
com.schriftgestaltung.Glyphs.lastChange = "2019-04-13 12:36:56 +0000";
};
width = 488;
}
);
leftMetricsKey = o;
rightMetricsKey = o;
},
{
color = 4;
glyphname = o_r;
layers = (
{
anchors = (
{
name = bottom_1;
position = "{166, 0}";
},
{
name = bottom_2;
position = "{498, 0}";
},
{
name = caret_1;
position = "{332, 0}";
},
{
name = center_1;
position = "{0, 0}";
},
{
name = center_2;
position = "{0, 0}";
},
{
name = ogonek_1;
position = "{0, 0}";
},
{
name = ogonek_2;
position = "{0, 0}";
},
{
name = top_1;
position = "{166, 430}";
},
{
name = top_2;
position = "{498, 430}";
},
{
name = topright_1;
position = "{0, 0}";
},
{
name = topright_2;
position = "{0, 0}";
}
);
components = (
{
name = o;
}
);
layerId = "5FE47517-9953-4891-9518-AB2E2247E448";
paths = (
{
closed = 1;
nodes = (
"559 0 OFFCURVE",
"633 41 OFFCURVE",
"669 73 CURVE",
"657 95 LINE",
"614 80 OFFCURVE",
"568 101 OFFCURVE",
"521 144 CURVE",
"577 206 OFFCURVE",
"644 269 OFFCURVE",
"644 347 CURVE SMOOTH",
"644 407 OFFCURVE",
"583 450 OFFCURVE",
"510 450 CURVE SMOOTH",
"494 450 OFFCURVE",
"427 383 OFFCURVE",
"387 353 CURVE",
"396 310 LINE",
"407 322 OFFCURVE",
"423 354 OFFCURVE",
"464 354 CURVE SMOOTH",
"500 354 OFFCURVE",
"545 331 OFFCURVE",
"545 274 CURVE SMOOTH",
"545 211 OFFCURVE",
"445 122 OFFCURVE",
"414 95 CURVE",
"414 88 LINE",
"448 56 OFFCURVE",
"508 -10 OFFCURVE",
"533 -20 CURVE"
);
}
);
userData = {
com.schriftgestaltung.Glyphs.lastChange = "2019-04-13 12:36:56 +0000";
};
width = 694;
}
);
leftMetricsKey = o;
rightMetricsKey = r.ss01;
},
{
color = 4;
glyphname = o_r_ra;
layers = (
{
anchors = (
{
name = bottom_1;
position = "{111, 0}";
},
{
name = bottom_2;
position = "{332, 0}";
},
{
name = bottom_3;
position = "{553, 0}";
},
{
name = caret_1;
position = "{221.333, 0}";
},
{
name = caret_2;
position = "{442.667, 0}";
},
{
name = center_1;
position = "{0, 0}";
},
{
name = center_2;
position = "{0, 0}";
},
{
name = center_3;
position = "{0, 0}";
},
{
name = ogonek_1;
position = "{0, 0}";
},
{
name = ogonek_2;
position = "{0, 0}";
},
{
name = ogonek_3;
position = "{0, 0}";
},
{
name = top_1;
position = "{111, 430}";
},
{
name = top_2;
position = "{332, 430}";
},
{
name = top_3;
position = "{553, 430}";
},
{
name = topright_1;
position = "{0, 0}";
},
{
name = topright_2;
position = "{0, 0}";
},
{
name = topright_3;
position = "{0, 0}";
}
);
components = (
{
name = o_r;
}
);
layerId = "5FE47517-9953-4891-9518-AB2E2247E448";
paths = (
{
closed = 1;
nodes = (
"398 564 OFFCURVE",
"457 613 OFFCURVE",
"467 613 CURVE",
"490 597 OFFCURVE",
"510 551 OFFCURVE",
"540 551 CURVE",
"575 561 OFFCURVE",
"622 588 OFFCURVE",
"681 646 CURVE",
"666 672 LINE",
"639 639 OFFCURVE",
"612 641 OFFCURVE",
"592 640 CURVE",
"564 640 OFFCURVE",
"538 665 OFFCURVE",
"528 705 CURVE",
"520 707 LINE",
"495 672 OFFCURVE",
"475 637 OFFCURVE",
"426 637 CURVE SMOOTH",
"395 637 OFFCURVE",
"369 665 OFFCURVE",
"367 718 CURVE",
"359 718 LINE",
"340 703 OFFCURVE",
"253 638 OFFCURVE",
"222 605 CURVE",
"240 584 LINE",
"240 580 OFFCURVE",
"260 609 OFFCURVE",
"288 603 CURVE SMOOTH",
"323 596 OFFCURVE",
"349 549 OFFCURVE",
"360 549 CURVE"
);
}
);
userData = {
com.schriftgestaltung.Glyphs.ComponentInfo = (
{
alignment = -1;
index = 0;
name = o_r;
}
);
com.schriftgestaltung.Glyphs.lastChange = "2019-04-13 11:38:33 +0000";
};
width = 706;
}
);
leftMetricsKey = o;
rightMetricsKey = r.ss01;
},
{
color = 4;
glyphname = p;
layers = (
{
anchors = (
{
name = bottom;
position = "{264, 0}";
},
{
name = top;
position = "{264, 430}";
}
);
layerId = "5FE47517-9953-4891-9518-AB2E2247E448";
paths = (
{
closed = 1;
nodes = (
"218 -192 LINE",
"218 -171 LINE",
"203 -159 OFFCURVE",
"190 -153 OFFCURVE",
"188 -132 CURVE SMOOTH",
"187 -117 OFFCURVE",
"183 -61 OFFCURVE",
"184 -13 CURVE",
"194 -12 OFFCURVE",
"262 -13 OFFCURVE",
"272 -9 CURVE SMOOTH",
"290 -2 OFFCURVE",
"474 113 OFFCURVE",
"477 120 CURVE SMOOTH",
"488 146 OFFCURVE",
"510 182 OFFCURVE",
"509 261 CURVE SMOOTH",
"508 373 OFFCURVE",
"402 451 OFFCURVE",
"313 451 CURVE SMOOTH",
"304 451 OFFCURVE",
"229 383 OFFCURVE",
"175 336 CURVE",
"183 466 LINE",
"173 470 LINE",
"147 454 OFFCURVE",
"48 394 OFFCURVE",
"15 377 CURVE",
"16 357 LINE",
"42 334 OFFCURVE",
"69 310 OFFCURVE",
"70 281 CURVE SMOOTH",
"73 124 LINE SMOOTH",
"73 112 OFFCURVE",
"59 86 OFFCURVE",
"18 27 CURVE",
"18 25 LINE",
"59 13 OFFCURVE",
"73 5 OFFCURVE",
"73 -10 CURVE SMOOTH",
"73 -100 OFFCURVE",
"72 -170 OFFCURVE",
"70 -239 CURVE",
"77 -244 LINE"
);
},
{
closed = 1;
nodes = (
"241 72 OFFCURVE",
"200 114 OFFCURVE",
"193 136 CURVE SMOOTH",
"177 186 OFFCURVE",
"180 260 OFFCURVE",
"187 300 CURVE",
"211 330 OFFCURVE",
"230 344 OFFCURVE",
"267 344 CURVE SMOOTH",
"340 346 OFFCURVE",
"383 279 OFFCURVE",
"384 204 CURVE SMOOTH",
"386 126 OFFCURVE",
"358 74 OFFCURVE",
"303 73 CURVE SMOOTH"
);
}
);
userData = {
com.schriftgestaltung.Glyphs.lastChange = "2019-04-13 12:36:49 +0000";
};
width = 524;
}
);
rightMetricsKey = o;
unicode = 0070;
},
{
color = 4;
glyphname = p.ss01;
layers = (
{
anchors = (
{
name = bottom;
position = "{264, 0}";
},
{
name = top;
position = "{264, 430}";
}
);
layerId = "5FE47517-9953-4891-9518-AB2E2247E448";
paths = (
{
closed = 1;
nodes = (
"16 357 LINE",
"42 334 OFFCURVE",
"70 310 OFFCURVE",
"70 281 CURVE SMOOTH",
"69 110 LINE",
"53 76 OFFCURVE",
"37 48 OFFCURVE",
"21 28 CURVE",
"22 25 LINE",
"48 16 OFFCURVE",
"69 6 OFFCURVE",
"69 -13 CURVE SMOOTH",
"69 -113 OFFCURVE",
"68 -189 OFFCURVE",
"67 -220 CURVE",
"186 -220 LINE",
"184 -151 OFFCURVE",
"184 -82 OFFCURVE",
"184 -13 CURVE",
"194 -12 OFFCURVE",
"262 -13 OFFCURVE",
"272 -9 CURVE SMOOTH",
"290 -2 OFFCURVE",
"474 113 OFFCURVE",
"477 120 CURVE SMOOTH",
"488 146 OFFCURVE",
"510 182 OFFCURVE",
"509 261 CURVE SMOOTH",
"508 373 OFFCURVE",
"402 451 OFFCURVE",
"313 451 CURVE SMOOTH",
"304 451 OFFCURVE",
"229 383 OFFCURVE",
"175 336 CURVE",
"183 466 LINE",
"173 470 LINE",
"147 454 OFFCURVE",
"48 394 OFFCURVE",
"15 377 CURVE"
);
},
{
closed = 1;
nodes = (
"211 330 OFFCURVE",
"230 344 OFFCURVE",
"267 344 CURVE SMOOTH",
"340 346 OFFCURVE",
"383 279 OFFCURVE",
"384 204 CURVE SMOOTH",
"386 126 OFFCURVE",
"358 74 OFFCURVE",
"303 73 CURVE SMOOTH",
"241 72 OFFCURVE",
"200 114 OFFCURVE",
"193 136 CURVE SMOOTH",
"177 186 OFFCURVE",
"180 260 OFFCURVE",
"187 300 CURVE"
);
}
);
userData = {
com.schriftgestaltung.Glyphs.lastChange = "2019-04-13 12:36:56 +0000";
};
width = 524;
}
);
leftMetricsKey = p;
rightMetricsKey = p;
},
{
color = 4;
glyphname = p_bardes;
layers = (
{
anchors = (
{
name = bottom_1;
position = "{98, 0}";
},
{
name = bottom_2;
position = "{274, 0}";
},
{
name = bottom_3;
position = "{450, 0}";
},
{
name = caret_1;
position = "{186, 0}";
},
{
name = caret_2;
position = "{362, 0}";
},
{
name = top_1;
position = "{98, 430}";
},
{
name = top_2;
position = "{274, 430}";
},
{
name = top_3;
position = "{450, 430}";
}
);
components = (
{
name = p;
transform = "{1, 0, 0, 1, 10, 0}";
}
);
layerId = "5FE47517-9953-4891-9518-AB2E2247E448";
paths = (
{
closed = 1;
nodes = (
"143 -242 OFFCURVE",
"230 -243 OFFCURVE",
"378 -244 CURVE",
"433 -185 LINE",
"433 -166 LINE",
"310 -166 OFFCURVE",
"217 -170 OFFCURVE",
"94 -160 CURVE",
"15 -236 LINE",
"15 -251 LINE"
);
}
);
userData = {
com.schriftgestaltung.Glyphs.lastChange = "2019-04-13 12:36:56 +0000";
};
width = 534;
}
);
leftMetricsKey = p;
rightMetricsKey = p;
unicode = A750;
},
{
color = 4;
glyphname = p_flour;
layers = (
{
anchors = (
{
name = bottom;
position = "{264, 0}";
},
{
name = top;
position = "{264, 430}";
}
);
components = (
{
name = p;
}
);
layerId = "5FE47517-9953-4891-9518-AB2E2247E448";
paths = (
{
closed = 1;
nodes = (
"-39 -218 OFFCURVE",
"53 -181 OFFCURVE",
"78 -181 CURVE",
"78 -147 LINE",
"62 -161 OFFCURVE",
"45 -165 OFFCURVE",
"29 -165 CURVE SMOOTH",
"-13 -165 OFFCURVE",
"-41 -127 OFFCURVE",
"-41 -81 CURVE SMOOTH",
"-41 -31 OFFCURVE",
"3 9 OFFCURVE",
"31 9 CURVE SMOOTH",
"40 9 OFFCURVE",
"66 -3 OFFCURVE",
"82 -11 CURVE",
"98 6 LINE",
"72 117 LINE",
"54 47 OFFCURVE",
"-117 -21 OFFCURVE",
"-117 -124 CURVE SMOOTH",
"-117 -179 OFFCURVE",
"-76 -218 OFFCURVE",
"-45 -218 CURVE SMOOTH"
);
}
);
userData = {
com.schriftgestaltung.Glyphs.ComponentInfo = (
{
alignment = -1;
index = 0;
name = p;
}
);
com.schriftgestaltung.Glyphs.lastChange = "2019-04-23 09:35:48 +0000";
};
width = 528;
}
);
unicode = A753;
},
{
color = 4;
glyphname = p_macr;
layers = (
{
anchors = (
{
name = bottom;
position = "{256, 0}";
},
{
name = top;
position = "{256, 430}";
}
);
components = (
{
name = p;
}
);
layerId = "5FE47517-9953-4891-9518-AB2E2247E448";
paths = (
{
closed = 1;
nodes = (
"66.142 559.178 OFFCURVE",
"102.748 574.309 OFFCURVE",
"129.511 575.843 CURVE SMOOTH",
"157.49 577.448 OFFCURVE",
"229.859 574.581 OFFCURVE",
"259.055 576.255 CURVE SMOOTH",
"274.87 577.162 OFFCURVE",
"312.258 640.455 OFFCURVE",
"339.948 674.12 CURVE",
"305.121 681.145 LINE",
"288.6 674.183 OFFCURVE",
"272.956 671.281 OFFCURVE",
"246.193 669.747 CURVE SMOOTH",
"218.213 668.142 OFFCURVE",
"149.749 668.226 OFFCURVE",
"120.553 666.551 CURVE SMOOTH",
"105.955 665.714 OFFCURVE",
"45.258 589.056 OFFCURVE",
"16.351 555.32 CURVE",
"47.699 546.091 LINE"
);
}
);
userData = {
com.schriftgestaltung.Glyphs.ComponentInfo = (
{
alignment = -1;
index = 0;
name = p;
}
);
com.schriftgestaltung.Glyphs.lastChange = "2019-04-23 08:58:23 +0000";
};
width = 524;
}
);
leftMetricsKey = p;
rightMetricsKey = p;
unicode = E665;
},
{
color = 4;
glyphname = p_urrot;
layers = (
{
anchors = (
{
name = bottom;
position = "{264, 0}";
},
{
name = top;
position = "{264, 430}";
}
);
components = (
{
name = p;
}
);
layerId = "5FE47517-9953-4891-9518-AB2E2247E448";
paths = (
{
closed = 1;
nodes = (
"249 502 OFFCURVE",
"404 577 OFFCURVE",
"453 609 CURVE",
"436 635 LINE",
"420 628 OFFCURVE",
"338 586 OFFCURVE",
"325 586 CURVE SMOOTH",
"302 586 OFFCURVE",
"312 730 OFFCURVE",
"305 730 CURVE SMOOTH",
"291 730 OFFCURVE",
"143 682 OFFCURVE",
"95 652 CURVE",
"106 622 LINE",
"133 636 OFFCURVE",
"198 653 OFFCURVE",
"219 653 CURVE SMOOTH",
"227 653 OFFCURVE",
"226 502 OFFCURVE",
"236 502 CURVE SMOOTH"
);
}
);
userData = {
com.schriftgestaltung.Glyphs.ComponentInfo = (
{
alignment = -1;
index = 0;
name = p;
}
);
com.schriftgestaltung.Glyphs.lastChange = "2019-04-13 12:36:56 +0000";
};
width = 524;
}
);
leftMetricsKey = p;
rightMetricsKey = p;
},
{
color = 4;
glyphname = p_e_macr;
layers = (
{
anchors = (
{
name = bottom_1;
position = "{123, 0}";
},
{
name = bottom_2;
position = "{370, 0}";
},
{
name = bottom_3;
position = "{617, 0}";
},
{
name = caret_1;
position = "{247, 0}";
},
{
name = caret_2;
position = "{493, 0}";
},
{
name = top_1;
position = "{123, 430}";
},
{
name = top_2;
position = "{370, 430}";
},
{
name = top_3;
position = "{617, 430}";
}
);
components = (
{
name = p_e;
}
);
layerId = "5FE47517-9953-4891-9518-AB2E2247E448";
paths = (
{
closed = 1;
nodes = (
"519 527 OFFCURVE",
"568 564 OFFCURVE",
"609.452 573.982 CURVE SMOOTH",
"632 579 OFFCURVE",
"692 586 OFFCURVE",
"715 590 CURVE SMOOTH",
"728 592 OFFCURVE",
"754.438 648.889 OFFCURVE",
"774.742 684.057 CURVE",
"751 691 LINE",
"738 683 OFFCURVE",
"720.138 677.393 OFFCURVE",
"698.352 674.331 CURVE SMOOTH",
"675.576 671.13 OFFCURVE",
"619.564 667.298 OFFCURVE",
"595.797 663.957 CURVE SMOOTH",
"583.914 662.287 OFFCURVE",
"500 555 OFFCURVE",
"478 520 CURVE",
"505 513 LINE"
);
}
);
userData = {
com.schriftgestaltung.Glyphs.ComponentInfo = (
{
alignment = -1;
index = 0;
name = p_e;
}
);
com.schriftgestaltung.Glyphs.lastChange = "2019-04-13 11:35:30 +0000";
};
width = 785;
}
);
leftMetricsKey = p;
rightMetricsKey = e;
},
{
color = 4;
glyphname = p_o_macr;
layers = (
{
anchors = (
{
name = bottom_1;
position = "{140, 0}";
},
{
name = bottom_2;
position = "{421, 0}";
},
{
name = bottom_3;
position = "{701, 0}";
},
{
name = caret_1;
position = "{280.333, 0}";
},
{
name = caret_2;
position = "{560.667, 0}";
},
{
name = top_1;
position = "{140, 430}";
},
{
name = top_2;
position = "{421, 430}";
},
{
name = top_3;
position = "{701, 430}";
}
);
components = (
{
name = p_o;
}
);
layerId = "5FE47517-9953-4891-9518-AB2E2247E448";
paths = (
{
closed = 1;
nodes = (
"539 587 OFFCURVE",
"578 613 OFFCURVE",
"619 624 CURVE SMOOTH",
"642 630 OFFCURVE",
"702 636 OFFCURVE",
"725 640 CURVE SMOOTH",
"738 642 OFFCURVE",
"764 699 OFFCURVE",
"785 734 CURVE",
"761 741 LINE",
"748 733 OFFCURVE",
"730 727 OFFCURVE",
"708 724 CURVE SMOOTH",
"686 721 OFFCURVE",
"630 718 OFFCURVE",
"606 714 CURVE SMOOTH",
"594 712 OFFCURVE",
"520 615 OFFCURVE",
"498 580 CURVE",
"525 573 LINE"
);
}
);
userData = {
com.schriftgestaltung.Glyphs.ComponentInfo = (
{
alignment = -1;
index = 0;
name = p_o;
}
);
com.schriftgestaltung.Glyphs.lastChange = "2019-04-13 11:38:40 +0000";
};
width = 841;
}
);
leftMetricsKey = p;
rightMetricsKey = o;
},
{
color = 4;
glyphname = p_p;
layers = (
{
anchors = (
{
name = bottom_1;
position = "{197, 0}";
},
{
name = bottom_2;
position = "{591, 0}";
},
{
name = caret_1;
position = "{394, 0}";
},
{
name = top_1;
position = "{197, 430}";
},
{
name = top_2;
position = "{591, 430}";
}
);
layerId = "5FE47517-9953-4891-9518-AB2E2247E448";
paths = (
{
closed = 1;
nodes = (
"218 -192 LINE",
"218 -171 LINE",
"203 -159 OFFCURVE",
"189 -153 OFFCURVE",
"188 -132 CURVE SMOOTH",
"187 -117 OFFCURVE",
"183 -61 OFFCURVE",
"184 -13 CURVE",
"194 -10 OFFCURVE",
"292 29 OFFCURVE",
"317 29 CURVE SMOOTH",
"326 29 OFFCURVE",
"354 6 OFFCURVE",
"354 -4 CURVE SMOOTH",
"354 -96 OFFCURVE",
"353 -170 OFFCURVE",
"351 -239 CURVE",
"358 -244 LINE",
"511 -192 LINE",
"511 -171 LINE",
"496 -159 OFFCURVE",
"483 -153 OFFCURVE",
"481 -132 CURVE SMOOTH",
"479 -117 OFFCURVE",
"476 -58 OFFCURVE",
"477 -10 CURVE",
"538 14 OFFCURVE",
"705 86 OFFCURVE",
"737 120 CURVE SMOOTH",
"755 139 OFFCURVE",
"770 182 OFFCURVE",
"769 261 CURVE SMOOTH",
"768 373 OFFCURVE",
"665 451 OFFCURVE",
"576 451 CURVE SMOOTH",
"559 451 OFFCURVE",
"518 399 OFFCURVE",
"469 354 CURVE",
"472 449 LINE",
"458 453 LINE",
"439 452 OFFCURVE",
"237 369 OFFCURVE",
"178 343 CURVE",
"183 466 LINE",
"173 470 LINE",
"147 454 OFFCURVE",
"48 394 OFFCURVE",
"15 377 CURVE",
"16 357 LINE",
"53 344 OFFCURVE",
"70 310 OFFCURVE",
"70 281 CURVE SMOOTH",
"73 117 LINE SMOOTH",
"73 110 OFFCURVE",
"59 86 OFFCURVE",
"18 27 CURVE",
"18 21 LINE",
"59 9 OFFCURVE",
"73 9 OFFCURVE",
"73 -18 CURVE SMOOTH",
"75 -100 OFFCURVE",
"72 -170 OFFCURVE",
"70 -239 CURVE",
"77 -244 LINE"
);
},
{
closed = 1;
nodes = (
"260 63 OFFCURVE",
"212 78 OFFCURVE",
"193 136 CURVE SMOOTH",
"177 186 OFFCURVE",
"180 264 OFFCURVE",
"187 304 CURVE",
"211 319 OFFCURVE",
"240 335 OFFCURVE",
"277 335 CURVE SMOOTH",
"335 335 OFFCURVE",
"359 284 OFFCURVE",
"360 231 CURVE SMOOTH",
"361 182 OFFCURVE",
"358 123 OFFCURVE",
"343 74 CURVE"
);
},
{
closed = 1;
nodes = (
"465 143 LINE",
"465 142 LINE"
);
},
{
closed = 1;
nodes = (
"530 72 OFFCURVE",
"500 92 OFFCURVE",
"482 111 CURVE",
"460 163 OFFCURVE",
"464 270 OFFCURVE",
"471 314 CURVE",
"490 330 OFFCURVE",
"514 344 OFFCURVE",
"540 344 CURVE SMOOTH",
"603 344 OFFCURVE",
"646 289 OFFCURVE",
"647 224 CURVE SMOOTH",
"649 126 OFFCURVE",
"611 74 OFFCURVE",
"566 73 CURVE SMOOTH"
);
}
);
userData = {
com.schriftgestaltung.Glyphs.lastChange = "2019-04-13 12:36:56 +0000";
};
width = 784;
}
);
leftMetricsKey = p;
rightMetricsKey = p;
unicode = EED6;
},
{
color = 4;
glyphname = p_p_macr;
layers = (
{
anchors = (
{
name = bottom_1;
position = "{131, 0}";
},
{
name = bottom_2;
position = "{394, 0}";
},
{
name = bottom_3;
position = "{657, 0}";
},
{
name = caret_1;
position = "{262.667, 0}";
},
{
name = caret_2;
position = "{525.333, 0}";
},
{
name = top_1;
position = "{131, 430}";
},
{
name = top_2;
position = "{394, 430}";
},
{
name = top_3;
position = "{657, 430}";
}
);
components = (
{
name = p_p;
}
);
layerId = "5FE47517-9953-4891-9518-AB2E2247E448";
paths = (
{
closed = 1;
nodes = (
"452.813 580.555 OFFCURVE",
"486.176 595.919 OFFCURVE",
"510.496 597.62 CURVE SMOOTH",
"535.922 599.398 OFFCURVE",
"601.634 596.976 OFFCURVE",
"628.166 598.831 CURVE SMOOTH",
"642.537 599.836 OFFCURVE",
"676.973 663.392 OFFCURVE",
"702.378 697.247 CURVE",
"670.797 704.06 LINE",
"655.739 696.993 OFFCURVE",
"641.507 693.993 OFFCURVE",
"617.186 692.292 CURVE SMOOTH",
"591.76 690.514 OFFCURVE",
"529.574 690.176 OFFCURVE",
"503.043 688.321 CURVE SMOOTH",
"489.777 687.393 OFFCURVE",
"434.068 610.32 OFFCURVE",
"407.558 576.388 CURVE",
"435.962 567.347 LINE"
);
}
);
userData = {
com.schriftgestaltung.Glyphs.ComponentInfo = (
{
alignment = -1;
index = 0;
name = p_p;
}
);
com.schriftgestaltung.Glyphs.lastChange = "2019-04-23 08:58:16 +0000";
};
width = 784;
}
);
leftMetricsKey = p;
rightMetricsKey = p;
},
{
color = 4;
glyphname = p_p_flour;
layers = (
{
anchors = (
{
name = bottom_1;
position = "{131, 0}";
},
{
name = bottom_2;
position = "{394, 0}";
},
{
name = bottom_3;
position = "{657, 0}";
},
{
name = caret_1;
position = "{262.667, 0}";
},
{
name = caret_2;
position = "{525.333, 0}";
},
{
name = top_1;
position = "{131, 430}";
},
{
name = top_2;
position = "{394, 430}";
},
{
name = top_3;
position = "{657, 430}";
}
);
components = (
{
name = p_p;
}
);
layerId = "5FE47517-9953-4891-9518-AB2E2247E448";
paths = (
{
closed = 1;
nodes = (
"-37 -218 OFFCURVE",
"55 -181 OFFCURVE",
"80 -181 CURVE",
"80 -147 LINE",
"64 -161 OFFCURVE",
"47 -165 OFFCURVE",
"31 -165 CURVE SMOOTH",
"-11 -165 OFFCURVE",
"-39 -127 OFFCURVE",
"-39 -81 CURVE SMOOTH",
"-39 -31 OFFCURVE",
"5 9 OFFCURVE",
"33 9 CURVE SMOOTH",
"42 9 OFFCURVE",
"68 -3 OFFCURVE",
"84 -11 CURVE",
"100 6 LINE",
"74 117 LINE",
"56 47 OFFCURVE",
"-115 -21 OFFCURVE",
"-115 -124 CURVE SMOOTH",
"-115 -179 OFFCURVE",
"-74 -218 OFFCURVE",
"-43 -218 CURVE SMOOTH"
);
}
);
userData = {
com.schriftgestaltung.Glyphs.ComponentInfo = (
{
alignment = -1;
index = 0;
name = p_p;
}
);
com.schriftgestaltung.Glyphs.lastChange = "2019-04-23 09:35:42 +0000";
};
width = 784;
}
);
rightMetricsKey = p;
unicode = EED7;
},
{
color = 4;
glyphname = p_p_flour_hook;
layers = (
{
anchors = (
{
name = bottom_1;
position = "{99, 0}";
},
{
name = bottom_2;
position = "{296, 0}";
},
{
name = bottom_3;
position = "{493, 0}";
},
{
name = bottom_4;
position = "{0, 0}";
},
{
name = caret_1;
position = "{197, 0}";
},
{
name = caret_2;
position = "{394, 0}";
},
{
name = caret_3;
position = "{591, 0}";
},
{
name = top_1;
position = "{99, 430}";
},
{
name = top_2;
position = "{296, 430}";
},
{
name = top_3;
position = "{493, 430}";
},
{
name = top_4;
position = "{0, 0}";
}
);
components = (
{
name = p_p;
}
);
layerId = "5FE47517-9953-4891-9518-AB2E2247E448";
paths = (
{
closed = 1;
nodes = (
"664 563 OFFCURVE",
"692 577 OFFCURVE",
"709 590 CURVE",
"744 648 OFFCURVE",
"707 700 OFFCURVE",
"650 719 CURVE",
"644 719 LINE",
"556 665 LINE",
"556 648 LINE",
"587 645 OFFCURVE",
"617 631 OFFCURVE",
"617 597 CURVE SMOOTH",
"617 574 OFFCURVE",
"600 552 OFFCURVE",
"584 540 CURVE",
"602 525 LINE"
);
},
{
closed = 1;
nodes = (
"-37 -218 OFFCURVE",
"55 -181 OFFCURVE",
"80 -181 CURVE",
"80 -147 LINE",
"64 -161 OFFCURVE",
"47 -165 OFFCURVE",
"31 -165 CURVE SMOOTH",
"-11 -165 OFFCURVE",
"-39 -127 OFFCURVE",
"-39 -81 CURVE SMOOTH",
"-39 -31 OFFCURVE",
"5 9 OFFCURVE",
"33 9 CURVE SMOOTH",
"42 9 OFFCURVE",
"68 -3 OFFCURVE",
"84 -11 CURVE",
"100 6 LINE",
"74 117 LINE",
"56 47 OFFCURVE",
"-115 -21 OFFCURVE",
"-115 -124 CURVE SMOOTH",
"-115 -179 OFFCURVE",
"-74 -218 OFFCURVE",
"-43 -218 CURVE SMOOTH"
);
}
);
userData = {
com.schriftgestaltung.Glyphs.ComponentInfo = (
{
alignment = -1;
index = 0;
name = p_p;
}
);
com.schriftgestaltung.Glyphs.lastChange = "2019-04-23 12:31:34 +0000";
};
width = 784;
}
);
rightMetricsKey = p;
},
{
color = 4;
glyphname = p_p_hook;
layers = (
{
anchors = (
{
name = bottom_1;
position = "{131, 0}";
},
{
name = bottom_2;
position = "{394, 0}";
},
{
name = bottom_3;
position = "{657, 0}";
},
{
name = caret_1;
position = "{262.667, 0}";
},
{
name = caret_2;
position = "{525.333, 0}";
},
{
name = top_1;
position = "{131, 430}";
},
{
name = top_2;
position = "{394, 430}";
},
{
name = top_3;
position = "{657, 430}";
}
);
components = (
{
name = p_p;
}
);
layerId = "5FE47517-9953-4891-9518-AB2E2247E448";
paths = (
{
closed = 1;
nodes = (
"605.451 542.455 OFFCURVE",
"696.828 620.644 OFFCURVE",
"696.828 633.833 CURVE SMOOTH",
"696.828 647.022 OFFCURVE",
"669.509 690.355 OFFCURVE",
"635.596 725.211 CURVE",
"629.944 725.211 LINE",
"528.203 668.688 LINE",
"528.203 663.978 LINE",
"551.754 647.964 OFFCURVE",
"581.9 629.123 OFFCURVE",
"581.9 592.383 CURVE SMOOTH",
"581.9 558.47 OFFCURVE",
"536.682 530.209 OFFCURVE",
"508.42 502.889 CURVE",
"531.029 482.165 LINE"
);
}
);
userData = {
com.schriftgestaltung.Glyphs.ComponentInfo = (
{
alignment = -1;
index = 0;
name = p_p;
}
);
com.schriftgestaltung.Glyphs.lastChange = "2019-04-23 08:56:50 +0000";
};
width = 788;
}
);
},
{
color = 4;
glyphname = q;
layers = (
{
anchors = (
{
name = bottom;
position = "{242, 0}";
},
{
name = top;
position = "{242, 430}";
}
);
layerId = "5FE47517-9953-4891-9518-AB2E2247E448";
paths = (
{
closed = 1;
nodes = (
"351 -244 OFFCURVE",
"467 -226 OFFCURVE",
"465 -203 CURVE SMOOTH",
"441 73 OFFCURVE",
"461 396 OFFCURVE",
"451 398 CURVE SMOOTH",
"415 405 OFFCURVE",
"297 433 OFFCURVE",
"253 445 CURVE SMOOTH",
"240 449 OFFCURVE",
"123 366 OFFCURVE",
"61 318 CURVE SMOOTH",
"34 297 OFFCURVE",
"14 258 OFFCURVE",
"14 181 CURVE SMOOTH",
"14 83 OFFCURVE",
"78 -19 OFFCURVE",
"213 -19 CURVE SMOOTH",
"245 -19 OFFCURVE",
"292 44 OFFCURVE",
"345 93 CURVE",
"347 -49 OFFCURVE",
"351 -224 OFFCURVE",
"351 -240 CURVE SMOOTH"
);
},
{
closed = 1;
nodes = (
"202 88 OFFCURVE",
"140 125 OFFCURVE",
"140 224 CURVE SMOOTH",
"140 265 OFFCURVE",
"148 308 OFFCURVE",
"168 338 CURVE",
"283 346 OFFCURVE",
"347 286 OFFCURVE",
"349 152 CURVE",
"329 113 OFFCURVE",
"297 88 OFFCURVE",
"261 88 CURVE SMOOTH"
);
}
);
userData = {
com.schriftgestaltung.Glyphs.lastChange = "2019-04-13 12:36:56 +0000";
};
width = 495;
}
);
leftMetricsKey = o;
unicode = 0071;
},
{
color = 4;
glyphname = q_macr;
layers = (
{
anchors = (
{
name = bottom;
position = "{248, 0}";
},
{
name = top;
position = "{248, 430}";
}
);
components = (
{
name = q;
}
);
layerId = "5FE47517-9953-4891-9518-AB2E2247E448";
paths = (
{
closed = 1;
nodes = (
"186.433 589 OFFCURVE",
"221.422 602 OFFCURVE",
"246.252 602 CURVE SMOOTH",
"272.212 602 OFFCURVE",
"338.803 595 OFFCURVE",
"365.891 595 CURVE",
"381 615 OFFCURVE",
"420.066 656 OFFCURVE",
"448.283 688 CURVE",
"416.68 697 LINE",
"400.879 691 OFFCURVE",
"386.207 689 OFFCURVE",
"361.376 689 CURVE SMOOTH",
"335.417 689 OFFCURVE",
"252 693 OFFCURVE",
"225 693 CURVE",
"202 673 OFFCURVE",
"169.503 620 OFFCURVE",
"140.158 588 CURVE",
"168.375 577 LINE"
);
}
);
userData = {
com.schriftgestaltung.Glyphs.ComponentInfo = (
{
alignment = -1;
index = 0;
name = q;
}
);
com.schriftgestaltung.Glyphs.lastChange = "2019-04-13 12:36:56 +0000";
};
width = 495;
}
);
leftMetricsKey = q;
rightMetricsKey = q;
unicode = E681;
},
{
color = 4;
glyphname = q_ra;
layers = (
{
anchors = (
{
name = bottom;
position = "{257, 0}";
},
{
name = top;
position = "{257, 430}";
}
);
components = (
{
name = q;
}
);
layerId = "5FE47517-9953-4891-9518-AB2E2247E448";
paths = (
{
closed = 1;
nodes = (
"543 525 OFFCURVE",
"604 570 OFFCURVE",
"658 614 CURVE",
"639 633 LINE",
"614 610 OFFCURVE",
"599 607 OFFCURVE",
"580 607 CURVE SMOOTH",
"570 607 OFFCURVE",
"524 623 OFFCURVE",
"504 657 CURVE",
"493 656 LINE",
"478 628 OFFCURVE",
"432 600 OFFCURVE",
"412 600 CURVE SMOOTH",
"403 600 OFFCURVE",
"353 621 OFFCURVE",
"326 658 CURVE",
"298 633 OFFCURVE",
"281 607 OFFCURVE",
"273 582 CURVE",
"299 555 OFFCURVE",
"325 537 OFFCURVE",
"351 526 CURVE",
"366 526 OFFCURVE",
"422 568 OFFCURVE",
"441 578 CURVE",
"466 562 OFFCURVE",
"514 525 OFFCURVE",
"532 525 CURVE SMOOTH"
);
}
);
userData = {
com.schriftgestaltung.Glyphs.ComponentInfo = (
{
alignment = -1;
index = 0;
name = q;
}
);
com.schriftgestaltung.Glyphs.lastChange = "2019-04-13 12:36:56 +0000";
};
width = 688;
}
);
leftMetricsKey = q;
rightMetricsKey = q;
},
{
color = 4;
glyphname = q_ring;
layers = (
{
anchors = (
{
name = bottom;
position = "{273, 0}";
},
{
name = top;
position = "{273, 430}";
}
);
components = (
{
name = q;
}
);
layerId = "5FE47517-9953-4891-9518-AB2E2247E448";
paths = (
{
closed = 1;
nodes = (
"454.826 455.44 OFFCURVE",
"535.759 502.468 OFFCURVE",
"559.82 522.155 CURVE SMOOTH",
"580.6 539.654 OFFCURVE",
"586.069 574.652 OFFCURVE",
"586.069 594.338 CURVE SMOOTH",
"586.069 667.616 OFFCURVE",
"513.885 716.832 OFFCURVE",
"471.231 716.832 CURVE SMOOTH",
"447.17 716.832 OFFCURVE",
"362.956 661.053 OFFCURVE",
"345.457 650.116 CURVE SMOOTH",
"329.052 639.18 OFFCURVE",
"311.553 607.463 OFFCURVE",
"311.553 574.652 CURVE SMOOTH",
"311.553 512.312 OFFCURVE",
"366.237 455.44 OFFCURVE",
"427.484 455.44 CURVE SMOOTH"
);
},
{
closed = 1;
nodes = (
"461.388 512.312 OFFCURVE",
"389.205 528.717 OFFCURVE",
"389.205 600.9 CURVE SMOOTH",
"389.205 630.43 OFFCURVE",
"407.797 647.929 OFFCURVE",
"420.922 651.21 CURVE SMOOTH",
"446.076 657.772 OFFCURVE",
"500.761 633.711 OFFCURVE",
"500.761 571.371 CURVE SMOOTH",
"500.761 544.029 OFFCURVE",
"487.637 522.155 OFFCURVE",
"475.606 517.78 CURVE SMOOTH"
);
}
);
userData = {
com.schriftgestaltung.Glyphs.ComponentInfo = (
{
alignment = -1;
index = 0;
name = q;
}
);
com.schriftgestaltung.Glyphs.lastChange = "2019-04-23 08:58:09 +0000";
};
width = 616;
}
);
leftMetricsKey = q;
rightMetricsKey = q;
},
{
color = 4;
glyphname = q_urrot;
layers = (
{
anchors = (
{
name = bottom;
position = "{248, 0}";
},
{
name = top;
position = "{248, 430}";
}
);
components = (
{
name = q;
}
);
layerId = "5FE47517-9953-4891-9518-AB2E2247E448";
paths = (
{
closed = 1;
nodes = (
"311 524 OFFCURVE",
"427 563 OFFCURVE",
"462 592 CURVE",
"446 616 LINE",
"432 610 OFFCURVE",
"406 600 OFFCURVE",
"395 600 CURVE SMOOTH",
"374 600 OFFCURVE",
"367 709 OFFCURVE",
"360 709 CURVE SMOOTH",
"347 709 OFFCURVE",
"242 686 OFFCURVE",
"199 666 CURVE",
"209 640 LINE",
"234 644 OFFCURVE",
"257 649 OFFCURVE",
"258 649 CURVE SMOOTH",
"266 649 OFFCURVE",
"290 524 OFFCURVE",
"300 524 CURVE SMOOTH"
);
}
);
userData = {
com.schriftgestaltung.Glyphs.ComponentInfo = (
{
alignment = -1;
index = 0;
name = q;
}
);
com.schriftgestaltung.Glyphs.lastChange = "2019-04-13 12:36:56 +0000";
};
width = 495;
}
);
leftMetricsKey = q;
rightMetricsKey = q;
},
{
color = 4;
glyphname = q_etfin;
layers = (
{
anchors = (
{
name = bottom_1;
position = "{202, 0}";
},
{
name = bottom_2;
position = "{605, 0}";
},
{
name = caret_1;
position = "{403.5, 0}";
},
{
name = top_1;
position = "{202, 430}";
},
{
name = top_2;
position = "{605, 430}";
}
);
components = (
{
name = q;
}
);
layerId = "5FE47517-9953-4891-9518-AB2E2247E448";
paths = (
{
closed = 1;
nodes = (
"628 -94 OFFCURVE",
"766 -7 OFFCURVE",
"766 112 CURVE SMOOTH",
"766 217 OFFCURVE",
"680 274 OFFCURVE",
"580 271 CURVE",
"588 254 LINE",
"630 308 OFFCURVE",
"663 333 OFFCURVE",
"707 365 CURVE",
"714 416 OFFCURVE",
"655 479 OFFCURVE",
"586 489 CURVE",
"552 459 OFFCURVE",
"500 423 OFFCURVE",
"437 385 CURVE",
"458 353 LINE",
"481 375 OFFCURVE",
"501 387 OFFCURVE",
"524 387 CURVE SMOOTH",
"554 387 OFFCURVE",
"589 365 OFFCURVE",
"589 331 CURVE SMOOTH",
"589 295 OFFCURVE",
"573 274 OFFCURVE",
"494 204 CURVE",
"502 183 LINE",
"608 200 OFFCURVE",
"678 138 OFFCURVE",
"682 59 CURVE SMOOTH",
"685 1 OFFCURVE",
"653 -36 OFFCURVE",
"620 -49 CURVE",
"595 -49 OFFCURVE",
"570 -37 OFFCURVE",
"551 -13 CURVE",
"530 -23 OFFCURVE",
"508 -51 OFFCURVE",
"497 -69 CURVE",
"494 -93 OFFCURVE",
"520 -130 OFFCURVE",
"550 -139 CURVE"
);
}
);
userData = {
com.schriftgestaltung.Glyphs.lastChange = "2019-04-13 12:36:56 +0000";
};
width = 771;
}
);
leftMetricsKey = q;
rightMetricsKey = etfin;
unicode = E8BF;
},
{
color = 4;
glyphname = q_etfin_ring;
layers = (
{
anchors = (
{
name = bottom_1;
position = "{202, 0}";
},
{
name = bottom_2;
position = "{605, 0}";
},
{
name = bottom_3;
position = "{697, 0}";
},
{
name = caret_1;
position = "{269, 0}";
},
{
name = caret_2;
position = "{538, 0}";
},
{
name = top_1;
position = "{202, 430}";
},
{
name = top_2;
position = "{605, 430}";
},
{
name = top_3;
position = "{647, 430}";
}
);
components = (
{
name = q_etfin;
}
);
layerId = "5FE47517-9953-4891-9518-AB2E2247E448";
paths = (
{
closed = 1;
nodes = (
"469 477 OFFCURVE",
"551 534 OFFCURVE",
"575 558 CURVE SMOOTH",
"597 580 OFFCURVE",
"602 622 OFFCURVE",
"602 646 CURVE SMOOTH",
"602 735 OFFCURVE",
"529 795 OFFCURVE",
"486 795 CURVE SMOOTH",
"461 795 OFFCURVE",
"376 727 OFFCURVE",
"358 714 CURVE SMOOTH",
"341 701 OFFCURVE",
"324 662 OFFCURVE",
"324 622 CURVE SMOOTH",
"324 546 OFFCURVE",
"380 477 OFFCURVE",
"441 477 CURVE SMOOTH"
);
},
{
closed = 1;
nodes = (
"477 547 OFFCURVE",
"403 566 OFFCURVE",
"403 655 CURVE SMOOTH",
"403 690 OFFCURVE",
"422 711 OFFCURVE",
"435 715 CURVE SMOOTH",
"461 723 OFFCURVE",
"516 695 OFFCURVE",
"516 617 CURVE SMOOTH",
"516 584 OFFCURVE",
"503 558 OFFCURVE",
"491 553 CURVE SMOOTH"
);
}
);
userData = {
com.schriftgestaltung.Glyphs.lastChange = "2019-04-13 12:36:56 +0000";
};
width = 771;
}
);
leftMetricsKey = q;
rightMetricsKey = etfin;
},
{
color = 4;
glyphname = q_r;
layers = (
{
anchors = (
{
name = bottom_1;
position = "{193, 0}";
},
{
name = bottom_2;
position = "{579, 0}";
},
{
name = caret_1;
position = "{386, 0}";
},
{
name = top_1;
position = "{193, 430}";
},
{
name = top_2;
position = "{579, 430}";
}
);
components = (
{
name = q;
}
);
layerId = "5FE47517-9953-4891-9518-AB2E2247E448";
paths = (
{
closed = 1;
nodes = (
"705 28 OFFCURVE",
"755 86 OFFCURVE",
"791 118 CURVE",
"772 136 LINE",
"689 79 OFFCURVE",
"642 88 OFFCURVE",
"539 168 CURVE",
"554 131 LINE",
"607 203 OFFCURVE",
"688 250 OFFCURVE",
"688 337 CURVE SMOOTH",
"688 417 OFFCURVE",
"608 450 OFFCURVE",
"565 450 CURVE",
"509 431 OFFCURVE",
"486 407 OFFCURVE",
"456 397 CURVE",
"449 316 LINE",
"459 353 OFFCURVE",
"488 371 OFFCURVE",
"515 371 CURVE SMOOTH",
"536 371 OFFCURVE",
"578 350 OFFCURVE",
"578 293 CURVE SMOOTH",
"578 218 OFFCURVE",
"513 113 OFFCURVE",
"436 85 CURVE",
"433 47 LINE",
"506 90 OFFCURVE",
"568 0 OFFCURVE",
"655 -20 CURVE"
);
}
);
userData = {
com.schriftgestaltung.Glyphs.lastChange = "2019-04-13 12:36:56 +0000";
};
width = 781;
}
);
leftMetricsKey = q;
},
{
color = 4;
glyphname = q_strok;
layers = (
{
anchors = (
{
name = bottom_1;
position = "{183, 0}";
},
{
name = bottom_2;
position = "{549, 0}";
},
{
name = caret_1;
position = "{366, 0}";
},
{
name = top_1;
position = "{183, 430}";
},
{
name = top_2;
position = "{549, 430}";
}
);
components = (
{
name = q;
}
);
layerId = "5FE47517-9953-4891-9518-AB2E2247E448";
paths = (
{
closed = 1;
nodes = (
"409 -59 OFFCURVE",
"712 133 OFFCURVE",
"712 316 CURVE SMOOTH",
"712 390 OFFCURVE",
"648 440 OFFCURVE",
"596 461 CURVE",
"556 440 OFFCURVE",
"494 407 OFFCURVE",
"438 392 CURVE",
"435 343 LINE",
"503 394 OFFCURVE",
"603 347 OFFCURVE",
"603 255 CURVE SMOOTH",
"603 85 OFFCURVE",
"352 -56 OFFCURVE",
"139 -208 CURVE",
"165 -242 LINE"
);
}
);
userData = {
com.schriftgestaltung.Glyphs.lastChange = "2019-04-13 12:36:56 +0000";
};
width = 732;
}
);
leftMetricsKey = q;
unicode = A759;
},
{
color = 4;
glyphname = q_strok_ra;
layers = (
{
anchors = (
{
name = bottom_1;
position = "{122, 0}";
},
{
name = bottom_2;
position = "{366, 0}";
},
{
name = bottom_3;
position = "{610, 0}";
},
{
name = caret_1;
position = "{244, 0}";
},
{
name = caret_2;
position = "{488, 0}";
},
{
name = top_1;
position = "{122, 430}";
},
{
name = top_2;
position = "{366, 430}";
},
{
name = top_3;
position = "{610, 430}";
}
);
components = (
{
name = q;
}
);
layerId = "5FE47517-9953-4891-9518-AB2E2247E448";
paths = (
{
closed = 1;
nodes = (
"598 145 OFFCURVE",
"712 264 OFFCURVE",
"712 316 CURVE SMOOTH",
"712 390 OFFCURVE",
"631 440 OFFCURVE",
"579 461 CURVE",
"539 440 OFFCURVE",
"494 407 OFFCURVE",
"438 392 CURVE",
"435 334 LINE",
"468 359 OFFCURVE",
"496 373 OFFCURVE",
"515 373 CURVE SMOOTH",
"550 373 OFFCURVE",
"613 322 OFFCURVE",
"613 275 CURVE SMOOTH",
"613 203 OFFCURVE",
"468 69 OFFCURVE",
"368 -2 CURVE",
"394 -36 LINE"
);
},
{
closed = 1;
nodes = (
"534 539 OFFCURVE",
"584 581 OFFCURVE",
"618 605 CURVE",
"606 623 LINE",
"567 611 OFFCURVE",
"531 610 OFFCURVE",
"490 656 CURVE",
"459 633 OFFCURVE",
"419 606 OFFCURVE",
"389 606 CURVE SMOOTH",
"367 606 OFFCURVE",
"328 642 OFFCURVE",
"303 658 CURVE",
"272 638 OFFCURVE",
"222 608 OFFCURVE",
"192 591 CURVE",
"204 569 LINE",
"206 568 OFFCURVE",
"231 582 OFFCURVE",
"250 582 CURVE SMOOTH",
"268 582 OFFCURVE",
"297 551 OFFCURVE",
"328 526 CURVE",
"359 541 OFFCURVE",
"409 578 OFFCURVE",
"418 578 CURVE SMOOTH",
"457 578 OFFCURVE",
"491 525 OFFCURVE",
"509 525 CURVE"
);
}
);
userData = {
com.schriftgestaltung.Glyphs.ComponentInfo = (
{
alignment = -1;
index = 0;
name = q;
}
);
com.schriftgestaltung.Glyphs.lastChange = "2019-04-23 08:58:04 +0000";
};
width = 732;
}
);
leftMetricsKey = q_strok;
rightMetricsKey = q_strok;
},
{
color = 4;
glyphname = r;
layers = (
{
anchors = (
{
name = bottom;
position = "{165, 0}";
},
{
name = top;
position = "{165, 430}";
}
);
layerId = "5FE47517-9953-4891-9518-AB2E2247E448";
paths = (
{
closed = 1;
nodes = (
"195 0 LINE",
"191 102 OFFCURVE",
"190 200 OFFCURVE",
"191 302 CURVE",
"191 334 LINE",
"191 348 LINE SMOOTH",
"191 387 OFFCURVE",
"137 430 OFFCURVE",
"83 450 CURVE SMOOTH",
"76 453 OFFCURVE",
"44 404 OFFCURVE",
"10 364 CURVE",
"10 339 LINE",
"43 339 OFFCURVE",
"76 336 OFFCURVE",
"76 278 CURVE SMOOTH",
"76 -5 LINE",
"80 -7 LINE"
);
},
{
closed = 1;
nodes = (
"258 301 OFFCURVE",
"345 376 OFFCURVE",
"345 380 CURVE SMOOTH",
"345 389 OFFCURVE",
"277 455 OFFCURVE",
"271 450 CURVE SMOOTH",
"244 427 OFFCURVE",
"209 390 OFFCURVE",
"184 367 CURVE",
"191 328 LINE",
"211 345 OFFCURVE",
"211 345 OFFCURVE",
"253 305 CURVE SMOOTH"
);
}
);
userData = {
com.schriftgestaltung.Glyphs.lastChange = "2019-03-28 15:56:55 +0000";
};
width = 345;
}
);
leftMetricsKey = n;
unicode = 0072;
},
{
color = 4;
glyphname = r.ss01;
layers = (
{
anchors = (
{
name = bottom;
position = "{138, 0}";
},
{
name = top;
position = "{138, 430}";
}
);
layerId = "5FE47517-9953-4891-9518-AB2E2247E448";
paths = (
{
closed = 1;
nodes = (
"165 -20 OFFCURVE",
"239 46 OFFCURVE",
"265 68 CURVE",
"253 90 LINE",
"220 85 OFFCURVE",
"182 94 OFFCURVE",
"135 137 CURVE",
"191 199 OFFCURVE",
"269 259 OFFCURVE",
"269 337 CURVE SMOOTH",
"269 397 OFFCURVE",
"208 450 OFFCURVE",
"135 450 CURVE SMOOTH",
"119 450 OFFCURVE",
"63 393 OFFCURVE",
"23 353 CURVE",
"23 326 LINE",
"34 329 OFFCURVE",
"58 349 OFFCURVE",
"89 349 CURVE SMOOTH",
"127 349 OFFCURVE",
"170 322 OFFCURVE",
"170 274 CURVE SMOOTH",
"170 211 OFFCURVE",
"61 122 OFFCURVE",
"30 95 CURVE",
"30 88 LINE",
"64 56 OFFCURVE",
"124 -20 OFFCURVE",
"149 -20 CURVE SMOOTH"
);
}
);
userData = {
com.schriftgestaltung.Glyphs.lastChange = "2019-01-14 10:03:51 +0000";
};
width = 294;
}
);
},
{
color = 4;
glyphname = r_hook;
layers = (
{
anchors = (
{
name = bottom;
position = "{160, 0}";
},
{
name = top;
position = "{160, 430}";
}
);
components = (
{
name = r;
}
);
layerId = "5FE47517-9953-4891-9518-AB2E2247E448";
paths = (
{
closed = 1;
nodes = (
"243 515 OFFCURVE",
"303 590 OFFCURVE",
"303 621 CURVE SMOOTH",
"303 662 OFFCURVE",
"262 698 OFFCURVE",
"204 693 CURVE",
"198 693 LINE",
"129 620 LINE",
"129 615 LINE",
"176 607 OFFCURVE",
"214 592 OFFCURVE",
"215 554 CURVE SMOOTH",
"216 522 OFFCURVE",
"186 489 OFFCURVE",
"165 455 CURVE",
"191 441 LINE"
);
}
);
userData = {
com.schriftgestaltung.Glyphs.ComponentInfo = (
{
alignment = -1;
index = 0;
name = r;
}
);
com.schriftgestaltung.Glyphs.lastChange = "2019-04-13 11:56:55 +0000";
};
width = 345;
}
);
leftMetricsKey = r;
rightMetricsKey = r;
},
{
color = 4;
glyphname = r_macr;
layers = (
{
anchors = (
{
name = bottom;
position = "{160, 0}";
},
{
name = top;
position = "{160, 430}";
}
);
components = (
{
name = r;
}
);
layerId = "5FE47517-9953-4891-9518-AB2E2247E448";
paths = (
{
closed = 1;
nodes = (
"111.417 562.178 OFFCURVE",
"141.434 577.309 OFFCURVE",
"163.381 578.843 CURVE SMOOTH",
"186.325 580.448 OFFCURVE",
"245.669 577.581 OFFCURVE",
"269.61 579.255 CURVE SMOOTH",
"282.579 580.162 OFFCURVE",
"313.238 643.455 OFFCURVE",
"335.945 677.12 CURVE",
"307.385 684.145 LINE",
"293.838 677.183 OFFCURVE",
"281.009 674.281 OFFCURVE",
"259.063 672.747 CURVE SMOOTH",
"236.119 671.142 OFFCURVE",
"179.976 671.226 OFFCURVE",
"156.035 669.551 CURVE SMOOTH",
"144.064 668.714 OFFCURVE",
"94.291 592.056 OFFCURVE",
"70.587 558.32 CURVE",
"96.293 549.091 LINE"
);
}
);
userData = {
com.schriftgestaltung.Glyphs.ComponentInfo = (
{
alignment = -1;
index = 0;
name = r;
}
);
com.schriftgestaltung.Glyphs.lastChange = "2019-04-23 08:57:59 +0000";
};
width = 345;
}
);
leftMetricsKey = r;
rightMetricsKey = r;
},
{
color = 4;
glyphname = r_ra;
layers = (
{
anchors = (
{
name = bottom;
position = "{172, 0}";
},
{
name = top;
position = "{172, 430}";
}
);
components = (
{
name = r;
}
);
layerId = "5FE47517-9953-4891-9518-AB2E2247E448";
paths = (
{
closed = 1;
nodes = (
"270.226 547.79 OFFCURVE",
"307.512 581.514 OFFCURVE",
"332.867 600.785 CURVE",
"323.918 615.238 LINE",
"294.835 605.602 OFFCURVE",
"267.988 604.8 OFFCURVE",
"237.413 641.735 CURVE",
"214.296 623.267 OFFCURVE",
"184.467 601.588 OFFCURVE",
"162.095 601.588 CURVE SMOOTH",
"145.689 601.588 OFFCURVE",
"116.605 630.494 OFFCURVE",
"97.962 643.341 CURVE",
"74.844 627.282 OFFCURVE",
"37.558 603.194 OFFCURVE",
"15.186 589.543 CURVE",
"24.135 571.879 LINE",
"25.626 571.076 OFFCURVE",
"44.269 582.317 OFFCURVE",
"58.438 582.317 CURVE SMOOTH",
"71.861 582.317 OFFCURVE",
"93.488 557.425 OFFCURVE",
"116.605 537.352 CURVE",
"139.723 549.396 OFFCURVE",
"177.009 579.105 OFFCURVE",
"183.721 579.105 CURVE SMOOTH",
"212.804 579.105 OFFCURVE",
"238.159 536.549 OFFCURVE",
"251.582 536.549 CURVE"
);
}
);
userData = {
com.schriftgestaltung.Glyphs.ComponentInfo = (
{
alignment = -1;
index = 0;
name = r;
}
);
com.schriftgestaltung.Glyphs.lastChange = "2019-04-23 08:57:57 +0000";
};
width = 345;
}
);
leftMetricsKey = r;
rightMetricsKey = r;
},
{
color = 4;
glyphname = r_a_macr;
layers = (
{
anchors = (
{
name = bottom_1;
position = "{108, 0}";
},
{
name = bottom_2;
position = "{325, 0}";
},
{
name = bottom_3;
position = "{542, 0}";
},
{
name = caret_1;
position = "{216.667, 0}";
},
{
name = caret_2;
position = "{433.333, 0}";
},
{
name = top_1;
position = "{108, 430}";
},
{
name = top_2;
position = "{325, 430}";
},
{
name = top_3;
position = "{542, 430}";
}
);
components = (
{
name = r_a;
}
);
layerId = "5FE47517-9953-4891-9518-AB2E2247E448";
paths = (
{
closed = 1;
nodes = (
"371.417 560.178 OFFCURVE",
"401.434 575.309 OFFCURVE",
"423.381 576.843 CURVE SMOOTH",
"446.325 578.448 OFFCURVE",
"505.669 575.581 OFFCURVE",
"529.61 577.255 CURVE SMOOTH",
"542.579 578.162 OFFCURVE",
"573.238 641.455 OFFCURVE",
"595.945 675.12 CURVE",
"567.385 682.145 LINE",
"553.838 675.183 OFFCURVE",
"541.009 672.281 OFFCURVE",
"519.063 670.747 CURVE SMOOTH",
"496.119 669.142 OFFCURVE",
"439.976 669.226 OFFCURVE",
"416.035 667.551 CURVE SMOOTH",
"404.064 666.714 OFFCURVE",
"354.291 590.056 OFFCURVE",
"330.587 556.32 CURVE",
"356.293 547.091 LINE"
);
}
);
userData = {
com.schriftgestaltung.Glyphs.ComponentInfo = (
{
alignment = -1;
index = 0;
name = r_a;
}
);
com.schriftgestaltung.Glyphs.lastChange = "2019-04-23 08:57:53 +0000";
};
width = 650;
}
);
leftMetricsKey = r;
rightMetricsKey = a;
},
{
color = 4;
glyphname = r_u;
layers = (
{
anchors = (
{
name = bottom_1;
position = "{189, 0}";
},
{
name = bottom_2;
position = "{566, 0}";
},
{
name = caret_1;
position = "{377, 0}";
},
{
name = top_1;
position = "{189, 430}";
},
{
name = top_2;
position = "{566, 430}";
}
);
components = (
{
name = r;
}
);
layerId = "5FE47517-9953-4891-9518-AB2E2247E448";
paths = (
{
closed = 1;
nodes = (
"462 -24 OFFCURVE",
"533 33 OFFCURVE",
"576 62 CURVE",
"579 49 LINE SMOOTH",
"587 16 OFFCURVE",
"612 -20 OFFCURVE",
"651 -20 CURVE SMOOTH",
"672 -20 OFFCURVE",
"734 41 OFFCURVE",
"749 58 CURVE",
"747 81 LINE",
"717 80 OFFCURVE",
"687 88 OFFCURVE",
"686 124 CURVE SMOOTH",
"683 220 OFFCURVE",
"684 343 OFFCURVE",
"690 450 CURVE",
"684 452 LINE",
"565 396 LINE",
"574 313 OFFCURVE",
"571 187 OFFCURVE",
"571 104 CURVE",
"555 90 OFFCURVE",
"534 73 OFFCURVE",
"509 73 CURVE SMOOTH",
"475 73 OFFCURVE",
"462 103 OFFCURVE",
"462 134 CURVE SMOOTH",
"462 389 LINE SMOOTH",
"462 421 OFFCURVE",
"425 449 OFFCURVE",
"371 449 CURVE SMOOTH",
"365 449 OFFCURVE",
"321 392 OFFCURVE",
"300 381 CURVE",
"300 361 LINE",
"335 373 OFFCURVE",
"350 336 OFFCURVE",
"350 295 CURVE SMOOTH",
"350 65 LINE SMOOTH",
"350 28 OFFCURVE",
"365 -24 OFFCURVE",
"416 -24 CURVE SMOOTH"
);
}
);
userData = {
com.schriftgestaltung.Glyphs.ComponentInfo = (
{
alignment = -1;
index = 0;
name = r;
}
);
com.schriftgestaltung.Glyphs.lastChange = "2019-01-07 10:00:03 +0000";
};
width = 754;
}
);
leftMetricsKey = r;
rightMetricsKey = u;
},
{
color = 4;
glyphname = r_u_macr;
layers = (
{
anchors = (
{
name = bottom_1;
position = "{131, 0}";
},
{
name = bottom_2;
position = "{392, 0}";
},
{
name = bottom_3;
position = "{653, 0}";
},
{
name = caret_1;
position = "{261.333, 0}";
},
{
name = caret_2;
position = "{522.667, 0}";
},
{
name = top_1;
position = "{131, 430}";
},
{
name = top_2;
position = "{392, 430}";
},
{
name = top_3;
position = "{653, 430}";
}
);
components = (
{
name = r_u;
}
);
layerId = "5FE47517-9953-4891-9518-AB2E2247E448";
paths = (
{
closed = 1;
nodes = (
"476 589 OFFCURVE",
"521 592 OFFCURVE",
"629 590 CURVE",
"643 600 OFFCURVE",
"664 633 OFFCURVE",
"692.206 668.93 CURVE",
"682 683 LINE",
"639 670 OFFCURVE",
"605 674 OFFCURVE",
"485.904 673.08 CURVE",
"472 663 OFFCURVE",
"449 620 OFFCURVE",
"419 584 CURVE",
"448 575 LINE"
);
}
);
userData = {
com.schriftgestaltung.Glyphs.ComponentInfo = (
{
alignment = -1;
index = 0;
name = r_u;
}
);
com.schriftgestaltung.Glyphs.lastChange = "2019-04-13 12:05:10 +0000";
};
width = 754;
}
);
leftMetricsKey = r;
rightMetricsKey = u;
},
{
color = 4;
glyphname = s;
layers = (
{
anchors = (
{
name = bottom;
position = "{223, 0}";
},
{
name = top;
position = "{223, 430}";
}
);
layerId = "5FE47517-9953-4891-9518-AB2E2247E448";
paths = (
{
closed = 1;
nodes = (
"192 -20 OFFCURVE",
"289 7 OFFCURVE",
"337 37 CURVE",
"381 70 OFFCURVE",
"420 109 OFFCURVE",
"420 159 CURVE SMOOTH",
"420 225 OFFCURVE",
"369 271 OFFCURVE",
"315 281 CURVE",
"298 281 OFFCURVE",
"247 227 OFFCURVE",
"200 227 CURVE SMOOTH",
"167 227 OFFCURVE",
"130 261 OFFCURVE",
"130 305 CURVE SMOOTH",
"130 338 OFFCURVE",
"148 365 OFFCURVE",
"187 380 CURVE",
"229 363 OFFCURVE",
"261 319 OFFCURVE",
"282 289 CURVE",
"313 299 OFFCURVE",
"365 338 OFFCURVE",
"405 370 CURVE",
"397 386 LINE",
"315 371 OFFCURVE",
"307 452 OFFCURVE",
"296 452 CURVE SMOOTH",
"221 452 OFFCURVE",
"34 386 OFFCURVE",
"34 266 CURVE SMOOTH",
"34 214 OFFCURVE",
"65 173 OFFCURVE",
"116 151 CURVE",
"143 168 OFFCURVE",
"195 196 OFFCURVE",
"205 196 CURVE",
"266 198 OFFCURVE",
"305 166 OFFCURVE",
"305 119 CURVE SMOOTH",
"305 71 OFFCURVE",
"274 38 OFFCURVE",
"230 33 CURVE",
"188 33 OFFCURVE",
"151 81 OFFCURVE",
"141 125 CURVE",
"137 127 LINE",
"31 100 LINE",
"30 98 LINE",
"26 41 OFFCURVE",
"99 -10 OFFCURVE",
"152 -20 CURVE"
);
}
);
userData = {
com.schriftgestaltung.Glyphs.lastChange = "2019-04-13 12:36:36 +0000";
};
width = 445;
}
);
unicode = 0073;
},
{
color = 4;
glyphname = longs;
layers = (
{
anchors = (
{
name = bottom;
position = "{107, 0}";
},
{
name = top;
position = "{107, 430}";
}
);
layerId = "5FE47517-9953-4891-9518-AB2E2247E448";
paths = (
{
closed = 1;
nodes = (
"178 9 LINE",
"178 600 LINE",
"192 610 OFFCURVE",
"207 612 OFFCURVE",
"221 612 CURVE SMOOTH",
"248 612 OFFCURVE",
"281 590 OFFCURVE",
"307 561 CURVE",
"315 562 LINE",
"394 640 LINE",
"394 646 LINE",
"352 681 OFFCURVE",
"287 699 OFFCURVE",
"251 699 CURVE SMOOTH",
"242 699 OFFCURVE",
"107 610 OFFCURVE",
"77 589 CURVE SMOOTH",
"63 579 OFFCURVE",
"62 578 OFFCURVE",
"64 562 CURVE SMOOTH",
"72 482 OFFCURVE",
"53 421 OFFCURVE",
"20 357 CURVE",
"20 350 LINE",
"43 333 OFFCURVE",
"66 323 OFFCURVE",
"66 279 CURVE SMOOTH",
"66 -17 LINE",
"72 -20 LINE"
);
}
);
userData = {
com.schriftgestaltung.Glyphs.lastChange = "2019-03-28 15:56:55 +0000";
};
width = 234;
}
);
leftMetricsKey = f;
unicode = 017F;
},
{
color = 4;
glyphname = longs_strok;
layers = (
{
anchors = (
{
name = bottom;
position = "{107, 10}";
},
{
name = bottom_1;
position = "{101, 10}";
},
{
name = bottom_2;
position = "{302, 0}";
},
{
name = caret_1;
position = "{201, 0}";
},
{
name = top;
position = "{107, 430}";
},
{
name = top_1;
position = "{101, 430}";
},
{
name = top_2;
position = "{302, 430}";
}
);
layerId = "5FE47517-9953-4891-9518-AB2E2247E448";
paths = (
{
closed = 1;
nodes = (
"239 138 OFFCURVE",
"374 317 OFFCURVE",
"374 337 CURVE SMOOTH",
"374 372 OFFCURVE",
"291 452 OFFCURVE",
"265 452 CURVE",
"257 452 OFFCURVE",
"174 365 OFFCURVE",
"128 353 CURVE",
"146 323 LINE",
"199 381 OFFCURVE",
"285 366 OFFCURVE",
"285 292 CURVE SMOOTH",
"285 239 OFFCURVE",
"208 159 OFFCURVE",
"115 87 CURVE",
"104 17 LINE"
);
},
{
closed = 1;
nodes = (
"178 89 LINE",
"178 600 LINE",
"192 610 OFFCURVE",
"207 612 OFFCURVE",
"221 612 CURVE SMOOTH",
"248 612 OFFCURVE",
"281 590 OFFCURVE",
"307 561 CURVE",
"315 562 LINE",
"394 640 LINE",
"394 646 LINE",
"352 681 OFFCURVE",
"287 699 OFFCURVE",
"251 699 CURVE SMOOTH",
"242 699 OFFCURVE",
"107 610 OFFCURVE",
"77 589 CURVE SMOOTH",
"63 579 OFFCURVE",
"62 578 OFFCURVE",
"64 562 CURVE SMOOTH",
"72 482 OFFCURVE",
"53 421 OFFCURVE",
"20 357 CURVE",
"20 350 LINE",
"43 333 OFFCURVE",
"66 323 OFFCURVE",
"66 279 CURVE SMOOTH",
"66 -17 LINE",
"85 -23 LINE"
);
}
);
userData = {
com.schriftgestaltung.Glyphs.lastChange = "2019-04-13 11:59:32 +0000";
};
width = 332;
}
);
},
{
color = 4;
glyphname = longs_b_strok;
layers = (
{
anchors = (
{
name = bottom_1;
position = "{121, 0}";
},
{
name = bottom_2;
position = "{363, 0}";
},
{
name = bottom_3;
position = "{605, 0}";
},
{
name = caret_1;
position = "{242, 0}";
},
{
name = caret_2;
position = "{484, 0}";
},
{
name = top_1;
position = "{121, 430}";
},
{
name = top_2;
position = "{363, 430}";
},
{
name = top_3;
position = "{605, 430}";
}
);
components = (
{
name = longs;
},
{
name = b;
transform = "{1, 0, 0, 1, 213, 0}";
}
);
layerId = "5FE47517-9953-4891-9518-AB2E2247E448";
paths = (
{
closed = 1;
nodes = (
"457 462 OFFCURVE",
"643 610 OFFCURVE",
"643 624 CURVE SMOOTH",
"643 638 OFFCURVE",
"614 684 OFFCURVE",
"578 721 CURVE",
"572 721 LINE",
"464 661 LINE",
"464 656 LINE",
"489 639 OFFCURVE",
"521 619 OFFCURVE",
"521 580 CURVE SMOOTH",
"521 544 OFFCURVE",
"384 449 OFFCURVE",
"354 420 CURVE",
"378 398 LINE"
);
}
);
userData = {
com.schriftgestaltung.Glyphs.ComponentInfo = (
{
alignment = -1;
index = 0;
name = longs;
},
{
alignment = -1;
index = 1;
name = b;
}
);
com.schriftgestaltung.Glyphs.lastChange = "2019-04-23 08:57:48 +0000";
};
width = 701;
}
);
leftMetricsKey = longs;
rightMetricsKey = b;
},
{
color = 4;
glyphname = longs_etfin;
layers = (
{
anchors = (
{
name = bottom;
position = "{226, 0}";
},
{
name = top;
position = "{226, 430}";
}
);
components = (
{
name = longs;
}
);
layerId = "5FE47517-9953-4891-9518-AB2E2247E448";
paths = (
{
closed = 1;
nodes = (
"215 -176 OFFCURVE",
"414 -16 OFFCURVE",
"414 106 CURVE SMOOTH",
"414 178 OFFCURVE",
"343 222 OFFCURVE",
"296 259 CURVE",
"270 199 LINE",
"296 260 OFFCURVE",
"363 299 OFFCURVE",
"391 327 CURVE",
"391 385 OFFCURVE",
"348 435 OFFCURVE",
"293 451 CURVE",
"272 451 OFFCURVE",
"204 411 OFFCURVE",
"164 374 CURVE",
"178 355 LINE",
"203 380 OFFCURVE",
"289 366 OFFCURVE",
"289 305 CURVE SMOOTH",
"289 239 OFFCURVE",
"228 225 OFFCURVE",
"161 178 CURVE",
"180 161 LINE",
"235 185 OFFCURVE",
"312 122 OFFCURVE",
"312 45 CURVE SMOOTH",
"312 -49 OFFCURVE",
"243 -108 OFFCURVE",
"212 -108 CURVE SMOOTH",
"185 -108 OFFCURVE",
"163 -68 OFFCURVE",
"157 -68 CURVE",
"124 -85 OFFCURVE",
"93 -103 OFFCURVE",
"93 -115 CURVE",
"101 -143 OFFCURVE",
"127 -185 OFFCURVE",
"160 -195 CURVE"
);
}
);
userData = {
com.schriftgestaltung.Glyphs.ComponentInfo = (
{
alignment = -1;
index = 0;
name = longs;
}
);
com.schriftgestaltung.Glyphs.lastChange = "2019-04-13 12:36:56 +0000";
};
width = 419;
}
);
leftMetricsKey = longs;
rightMetricsKey = etfin;
},
